<?xml version="1.0" encoding="utf-8"?>
<!-- Generator: Adobe Illustrator 28.3.0, SVG Export Plug-In . SVG Version: 6.00 Build 0)  -->
<svg version="1.1" id="Layer_1" xmlns="http://www.w3.org/2000/svg" xmlns:xlink="http://www.w3.org/1999/xlink" x="0px" y="0px"
	 viewBox="0 0 252 144" style="enable-background:new 0 0 252 144;" xml:space="preserve">
<style type="text/css">
	.st0{clip-path:url(#SVGID_00000013881456592899321960000008653532568504580244_);}
	.st1{fill:#F9F8F2;}
	.st2{opacity:0.1;}
	.st3{opacity:0.3;fill:url(#SVGID_00000002384182694958301600000002602903785443947701_);}
	.st4{fill:#0764B0;}
	.st5{font-family:'Poppins-Medium';}
	.st6{font-size:6.3315px;}
	.st7{fill:#0C64AF;}
	.st8{fill:none;stroke:#0C64AF;stroke-width:2;stroke-miterlimit:10;}
	.st9{fill:#202020;}
	.st10{font-family:'Poppins-Regular';}
	.st11{font-size:6.5788px;}
	.st12{clip-path:url(#SVGID_00000108277138153642740440000004453977465019120263_);}
	.st13{opacity:0.3;fill:url(#SVGID_00000089553797878446395270000006060295248172656831_);}
	.st14{opacity:0.3;fill:url(#SVGID_00000076574131313203765180000013076555608403965859_);}
</style>
<g>
	<defs>
		<rect id="SVGID_1_" y="0" width="252" height="144"/>
	</defs>
	<clipPath id="SVGID_00000109719342335495644550000008602587701443597965_">
		<use xlink:href="#SVGID_1_"  style="overflow:visible;"/>
	</clipPath>
	<g style="clip-path:url(#SVGID_00000109719342335495644550000008602587701443597965_);">
		<rect x="-3.4" y="5" class="st1" width="258.8" height="143.5"/>
		<g class="st2">
			<g>
				
					<linearGradient id="SVGID_00000041268207855430874180000007967256574271156910_" gradientUnits="userSpaceOnUse" x1="126" y1="202.7161" x2="126" y2="174.6121" gradientTransform="matrix(1 0 0 -1 0 324.5995)">
					<stop  offset="0" style="stop-color:#FFFFFF;stop-opacity:0"/>
					<stop  offset="1" style="stop-color:#202020"/>
				</linearGradient>
				
					<rect x="-9.1" y="121.9" style="opacity:0.3;fill:url(#SVGID_00000041268207855430874180000007967256574271156910_);" width="270.2" height="28.1"/>
			</g>
		</g>
		<rect x="-7.3" y="-6" class="st4" width="266.6" height="60.3"/>
		<rect x="-10.1" y="134.2" class="st4" width="272.2" height="15.8"/>
		<g>
			<g>
				<g>
					<g>
						<path class="st1" d="M19.7,10.6c2.2,0,3.7,0.4,4.8,1.1c1.3,0.9,2,2.2,2,3.9c0,4-3.5,5.7-6.3,5.7c-0.1,0-0.3,0-0.5-0.1L18,21
							v4.5c0,2.5,0.3,2.7,2.5,3v0.5h-8.2v-0.5c2.1-0.3,2.3-0.5,2.3-3V14.1c0-2.5-0.3-2.7-2.3-3v-0.5H19.7z M18,20.4
							c0.3,0.1,0.9,0.1,1.5,0.1c0.8,0,3.3-0.4,3.3-4.8c0-3.3-1.4-4.4-3.4-4.4c-0.5,0-0.9,0.1-1.1,0.2C18,11.6,18,11.9,18,12.4V20.4z
							"/>
						<path class="st1" d="M36.7,11.1c-1.9,0.3-2.1,0.5-2.1,3v9.7c0,3.5-0.2,5.8-2.1,7.5c-1.3,1.2-2.8,1.7-4,2l-0.1-0.4
							c1.4-0.7,2.4-1.7,2.6-4.3c0.1-1.7,0.1-2.6,0.1-4.7v-9.7c0-2.5-0.3-2.7-2.3-3v-0.5h7.9V11.1z"/>
						<path class="st1" d="M60.5,28.9v-0.5c2-0.4,2.2-0.6,2.2-3.5l0.1-11.7c-2.1,5-6.2,14.4-6.7,15.6h-0.4
							c-0.5-1.3-4.1-10.2-6.2-15.2c-0.4,8.6-0.5,11.9-0.4,12.9c0.1,1.2,0.7,1.5,2.8,1.9v0.5h-6.6v-0.5c2-0.3,2.4-0.8,2.5-1.8
							c0.1-0.9,0.3-2.4,0.9-13.6c0-0.7-0.2-1.7-2.6-2v-0.5h5.6l5.7,13l5.8-13h5.3v0.5c-2.3,0.4-2.5,0.6-2.5,3.3l0.1,10.6
							c0,2.8,0.1,3.1,2.4,3.5v0.5H60.5z"/>
						<path class="st1" d="M79.4,29.2c-0.7,0-1.2-0.2-1.6-0.6c-0.3-0.3-0.5-0.8-0.6-1.2c-0.9,0.7-2.3,1.8-2.8,1.8
							c-2,0-3.4-1.7-3.4-3.3c0-1.3,0.6-2,1.9-2.4c1.5-0.6,3.6-1.1,4.3-1.6v-1.7c0-1.7-1.1-2.6-1.9-2.6c-0.5,0-0.9,0.2-1.2,0.6
							c-0.2,0.3-0.4,0.8-0.6,1.9c-0.1,0.6-0.3,0.8-0.7,0.8c-0.9,0-1.5-0.7-1.5-1.3c0-0.3,0.3-0.6,0.8-1c1.4-0.9,3.2-1.7,4.2-1.9
							c1.2,0,1.9,0.4,2.5,0.8c1.2,0.9,1.4,2,1.4,3.7V26c0,1.2,0.4,1.5,0.9,1.5c0.2,0,0.5,0,0.6-0.1l0.1,0.5L79.4,29.2z M77.1,22.5
							c-0.4,0.2-0.9,0.4-1.5,0.7c-1,0.6-1.5,1.1-1.5,2.1c0,1.5,0.8,2.2,1.7,2.2c0.4,0,0.8-0.1,1.3-0.5
							C77.1,25.3,77.1,24.1,77.1,22.5z"/>
						<path class="st1" d="M89.2,28.9c-0.4,0.2-0.9,0.3-1.1,0.3c-1.9,0-3.1-1-3.1-3.3v-8h-1.7l-0.1-0.2l0.5-0.7h1.2v-2.3
							c1-0.5,2.1-1.4,3-2.1l0.3,0c0,0.8-0.1,2.8-0.1,4.4h2.5c0.1,0.2,0,0.7-0.1,0.9h-2.4v7.5c0,2.1,0.8,2.5,1.5,2.5
							c0.3,0,0.8-0.1,1.1-0.2L91,28L89.2,28.9z"/>
						<path class="st1" d="M106.1,17.4c-1.2,0.3-1.4,0.6-2.1,2.3c-0.7,1.7-1.7,3.9-3.2,8.1c-1.7,4.4-2.2,6.3-2.6,7.8
							c-0.2,0.6-0.5,0.8-0.8,0.8c-0.8,0-1.9-0.6-1.9-1.5c0-0.3,0.1-0.5,0.7-0.9c1.3-0.8,1.8-1.4,2.4-2.6c0.3-0.5,0.5-1,0.6-1.3
							c0.1-0.2-0.2-0.9-0.4-1.5c-1.3-3.6-3.1-7.8-3.8-9.5c-0.5-1.1-0.6-1.5-1.9-1.7V17h6.5v0.4c-1.5,0.3-1.6,0.5-1.2,1.5l2.6,6.5
							c0.8-2.2,1.7-4.3,2.3-6.3c0.3-1.1,0.3-1.4-1.7-1.7V17h4.7V17.4z"/>
						<path class="st1" d="M115.3,20.1c-0.6-1.6-1.4-2.8-3-2.8c-0.8,0-1.6,0.6-1.6,1.7c0,1.2,0.8,1.7,2,2.4c2,1.1,3.5,2,3.5,4
							c0,2.7-2.5,3.9-4.6,3.9c-1.4,0-2.6-0.4-3.2-0.6c-0.1-0.6-0.3-2.2-0.4-3.3l0.4-0.1c0.6,1.8,1.9,3.3,3.6,3.3
							c1,0,1.6-0.7,1.6-1.7c0-0.9-0.3-1.6-2.1-2.7c-1.1-0.6-3.2-1.7-3.2-3.9c0-2.2,1.7-3.7,4.4-3.7c1.2,0,2.2,0.3,2.7,0.3
							c0.1,1,0.2,2.5,0.3,3L115.3,20.1z"/>
					</g>
				</g>
				<g>
					<path class="st1" d="M17.2,37.6v4.8h-0.6v-3.6l-1.6,3.6h-0.4l-1.6-3.6v3.6h-0.6v-4.8h0.7l1.8,4l1.8-4H17.2z"/>
					<path class="st1" d="M19.1,39.5c0.2-0.3,0.4-0.5,0.7-0.7c0.3-0.2,0.6-0.2,0.9-0.2c0.3,0,0.6,0.1,0.9,0.2
						c0.2,0.1,0.4,0.3,0.6,0.5v-0.7h0.6v3.8h-0.6v-0.7c-0.1,0.2-0.3,0.4-0.6,0.6s-0.5,0.2-0.9,0.2c-0.3,0-0.6-0.1-0.9-0.3
						c-0.3-0.2-0.5-0.4-0.7-0.7c-0.2-0.3-0.2-0.6-0.2-1C18.9,40.1,19,39.8,19.1,39.5z M22,39.8c-0.1-0.2-0.3-0.4-0.5-0.5
						s-0.4-0.2-0.7-0.2s-0.5,0.1-0.7,0.2c-0.2,0.1-0.4,0.3-0.5,0.5s-0.2,0.5-0.2,0.8c0,0.3,0.1,0.5,0.2,0.8s0.3,0.4,0.5,0.5
						c0.2,0.1,0.4,0.2,0.7,0.2s0.5-0.1,0.7-0.2s0.4-0.3,0.5-0.5c0.1-0.2,0.2-0.5,0.2-0.8C22.1,40.2,22.1,40,22,39.8z"/>
					<path class="st1" d="M25.8,38.7c0.2-0.1,0.5-0.2,0.8-0.2v0.7h-0.2c-0.7,0-1.1,0.4-1.1,1.2v2.1h-0.6v-3.8h0.6v0.6
						C25.4,39,25.6,38.9,25.8,38.7z"/>
					<path class="st1" d="M30.2,42.5l-1.5-1.7v1.7h-0.6v-5.2h0.6v3l1.5-1.7h0.9l-1.8,1.9l1.8,1.9H30.2z"/>
					<path class="st1" d="M35.8,40.8h-3.1c0,0.4,0.2,0.7,0.4,0.9c0.2,0.2,0.5,0.3,0.9,0.3c0.3,0,0.5-0.1,0.7-0.2s0.3-0.3,0.4-0.5
						h0.7c-0.1,0.4-0.3,0.7-0.6,0.9c-0.3,0.2-0.7,0.3-1.1,0.3c-0.4,0-0.7-0.1-1-0.2c-0.3-0.2-0.5-0.4-0.7-0.7
						c-0.2-0.3-0.2-0.6-0.2-1c0-0.4,0.1-0.7,0.2-1c0.2-0.3,0.4-0.5,0.7-0.7c0.3-0.2,0.6-0.2,1-0.2c0.4,0,0.7,0.1,1,0.2
						s0.5,0.4,0.6,0.7c0.2,0.3,0.2,0.6,0.2,0.9C35.8,40.5,35.8,40.6,35.8,40.8z M35,39.6c-0.1-0.2-0.3-0.3-0.4-0.4
						c-0.2-0.1-0.4-0.1-0.6-0.1c-0.3,0-0.6,0.1-0.8,0.3c-0.2,0.2-0.4,0.5-0.4,0.9h2.4C35.2,40,35.1,39.8,35,39.6z"/>
					<path class="st1" d="M38.2,39.1v2.3c0,0.2,0,0.3,0.1,0.4c0.1,0.1,0.2,0.1,0.4,0.1h0.5v0.5h-0.6c-0.4,0-0.6-0.1-0.8-0.2
						c-0.2-0.2-0.3-0.4-0.3-0.8v-2.3h-0.5v-0.5h0.5v-1h0.6v1h1v0.5H38.2z"/>
					<path class="st1" d="M40.8,37.9c-0.1-0.1-0.1-0.2-0.1-0.3c0-0.1,0-0.2,0.1-0.3s0.2-0.1,0.3-0.1c0.1,0,0.2,0,0.3,0.1
						c0.1,0.1,0.1,0.2,0.1,0.3c0,0.1,0,0.2-0.1,0.3C41.3,38,41.2,38,41.1,38C41,38,40.9,38,40.8,37.9z M41.4,38.6v3.8h-0.6v-3.8
						H41.4z"/>
					<path class="st1" d="M46.3,39c0.3,0.3,0.4,0.7,0.4,1.2v2.3h-0.6v-2.2c0-0.4-0.1-0.7-0.3-0.9c-0.2-0.2-0.5-0.3-0.8-0.3
						c-0.3,0-0.6,0.1-0.8,0.3s-0.3,0.5-0.3,0.9v2.1h-0.6v-3.8h0.6v0.5c0.1-0.2,0.3-0.3,0.5-0.5s0.5-0.2,0.7-0.2
						C45.6,38.6,46,38.7,46.3,39z"/>
					<path class="st1" d="M51.1,38.8c0.2,0.1,0.4,0.3,0.6,0.5v-0.7h0.6v3.9c0,0.4-0.1,0.7-0.2,0.9s-0.4,0.5-0.6,0.6
						c-0.3,0.2-0.6,0.2-1,0.2c-0.5,0-0.9-0.1-1.3-0.4c-0.3-0.2-0.5-0.6-0.6-1h0.6c0.1,0.2,0.2,0.4,0.4,0.6c0.2,0.1,0.5,0.2,0.8,0.2
						c0.3,0,0.6-0.1,0.9-0.3c0.2-0.2,0.3-0.5,0.3-0.9v-0.8c-0.1,0.2-0.3,0.4-0.6,0.6c-0.2,0.1-0.5,0.2-0.9,0.2
						c-0.3,0-0.7-0.1-0.9-0.3s-0.5-0.4-0.7-0.7c-0.2-0.3-0.2-0.6-0.2-1c0-0.4,0.1-0.7,0.2-1c0.2-0.3,0.4-0.5,0.7-0.7
						c0.3-0.2,0.6-0.2,0.9-0.2C50.5,38.6,50.8,38.6,51.1,38.8z M51.4,39.8c-0.1-0.2-0.3-0.4-0.5-0.5s-0.4-0.2-0.7-0.2
						s-0.5,0.1-0.7,0.2c-0.2,0.1-0.4,0.3-0.5,0.5S49,40.2,49,40.5c0,0.3,0.1,0.5,0.2,0.8s0.3,0.4,0.5,0.5c0.2,0.1,0.4,0.2,0.7,0.2
						s0.5-0.1,0.7-0.2s0.4-0.3,0.5-0.5c0.1-0.2,0.2-0.5,0.2-0.8C51.6,40.2,51.6,40,51.4,39.8z"/>
					<path class="st1" d="M61.6,37.6v4.8h-0.6v-3.6l-1.6,3.6h-0.4l-1.6-3.6v3.6h-0.6v-4.8h0.7l1.8,4l1.8-4H61.6z"/>
					<path class="st1" d="M63.5,39.5c0.2-0.3,0.4-0.5,0.7-0.7c0.3-0.2,0.6-0.2,0.9-0.2c0.3,0,0.6,0.1,0.9,0.2
						c0.2,0.1,0.4,0.3,0.6,0.5v-0.7h0.6v3.8h-0.6v-0.7c-0.1,0.2-0.3,0.4-0.6,0.6s-0.5,0.2-0.9,0.2c-0.3,0-0.6-0.1-0.9-0.3
						c-0.3-0.2-0.5-0.4-0.7-0.7c-0.2-0.3-0.2-0.6-0.2-1C63.3,40.1,63.4,39.8,63.5,39.5z M66.4,39.8c-0.1-0.2-0.3-0.4-0.5-0.5
						s-0.4-0.2-0.7-0.2s-0.5,0.1-0.7,0.2c-0.2,0.1-0.4,0.3-0.5,0.5s-0.2,0.5-0.2,0.8c0,0.3,0.1,0.5,0.2,0.8s0.3,0.4,0.5,0.5
						c0.2,0.1,0.4,0.2,0.7,0.2s0.5-0.1,0.7-0.2s0.4-0.3,0.5-0.5c0.1-0.2,0.2-0.5,0.2-0.8C66.5,40.2,66.5,40,66.4,39.8z"/>
					<path class="st1" d="M72.1,39c0.3,0.3,0.4,0.7,0.4,1.2v2.3h-0.6v-2.2c0-0.4-0.1-0.7-0.3-0.9c-0.2-0.2-0.5-0.3-0.8-0.3
						c-0.3,0-0.6,0.1-0.8,0.3s-0.3,0.5-0.3,0.9v2.1h-0.6v-3.8h0.6v0.5c0.1-0.2,0.3-0.3,0.5-0.5s0.5-0.2,0.7-0.2
						C71.4,38.6,71.8,38.7,72.1,39z"/>
					<path class="st1" d="M74.4,39.5c0.2-0.3,0.4-0.5,0.7-0.7c0.3-0.2,0.6-0.2,0.9-0.2c0.3,0,0.6,0.1,0.9,0.2
						c0.2,0.1,0.4,0.3,0.6,0.5v-0.7H78v3.8h-0.6v-0.7c-0.1,0.2-0.3,0.4-0.6,0.6s-0.5,0.2-0.9,0.2c-0.3,0-0.6-0.1-0.9-0.3
						c-0.3-0.2-0.5-0.4-0.7-0.7c-0.2-0.3-0.2-0.6-0.2-1C74.1,40.1,74.2,39.8,74.4,39.5z M77.2,39.8c-0.1-0.2-0.3-0.4-0.5-0.5
						s-0.4-0.2-0.7-0.2s-0.5,0.1-0.7,0.2c-0.2,0.1-0.4,0.3-0.5,0.5s-0.2,0.5-0.2,0.8c0,0.3,0.1,0.5,0.2,0.8s0.3,0.4,0.5,0.5
						c0.2,0.1,0.4,0.2,0.7,0.2s0.5-0.1,0.7-0.2s0.4-0.3,0.5-0.5c0.1-0.2,0.2-0.5,0.2-0.8C77.4,40.2,77.3,40,77.2,39.8z"/>
					<path class="st1" d="M82.4,38.8c0.2,0.1,0.4,0.3,0.6,0.5v-0.7h0.6v3.9c0,0.4-0.1,0.7-0.2,0.9S83,44,82.7,44.1
						c-0.3,0.2-0.6,0.2-1,0.2c-0.5,0-0.9-0.1-1.3-0.4c-0.3-0.2-0.5-0.6-0.6-1h0.6c0.1,0.2,0.2,0.4,0.4,0.6c0.2,0.1,0.5,0.2,0.8,0.2
						c0.3,0,0.6-0.1,0.9-0.3c0.2-0.2,0.3-0.5,0.3-0.9v-0.8c-0.1,0.2-0.3,0.4-0.6,0.6c-0.2,0.1-0.5,0.2-0.9,0.2
						c-0.3,0-0.7-0.1-0.9-0.3s-0.5-0.4-0.7-0.7c-0.2-0.3-0.2-0.6-0.2-1c0-0.4,0.1-0.7,0.2-1c0.2-0.3,0.4-0.5,0.7-0.7
						c0.3-0.2,0.6-0.2,0.9-0.2C81.9,38.6,82.2,38.6,82.4,38.8z M82.8,39.8c-0.1-0.2-0.3-0.4-0.5-0.5s-0.4-0.2-0.7-0.2
						s-0.5,0.1-0.7,0.2c-0.2,0.1-0.4,0.3-0.5,0.5s-0.2,0.5-0.2,0.8c0,0.3,0.1,0.5,0.2,0.8s0.3,0.4,0.5,0.5c0.2,0.1,0.4,0.2,0.7,0.2
						s0.5-0.1,0.7-0.2s0.4-0.3,0.5-0.5c0.1-0.2,0.2-0.5,0.2-0.8C83,40.2,82.9,40,82.8,39.8z"/>
					<path class="st1" d="M89,40.8h-3.1c0,0.4,0.2,0.7,0.4,0.9c0.2,0.2,0.5,0.3,0.9,0.3c0.3,0,0.5-0.1,0.7-0.2s0.3-0.3,0.4-0.5h0.7
						c-0.1,0.4-0.3,0.7-0.6,0.9c-0.3,0.2-0.7,0.3-1.1,0.3c-0.4,0-0.7-0.1-1-0.2c-0.3-0.2-0.5-0.4-0.7-0.7c-0.2-0.3-0.2-0.6-0.2-1
						c0-0.4,0.1-0.7,0.2-1c0.2-0.3,0.4-0.5,0.7-0.7c0.3-0.2,0.6-0.2,1-0.2c0.4,0,0.7,0.1,1,0.2s0.5,0.4,0.6,0.7
						c0.2,0.3,0.2,0.6,0.2,0.9C89,40.5,89,40.6,89,40.8z M88.2,39.6c-0.1-0.2-0.3-0.3-0.4-0.4c-0.2-0.1-0.4-0.1-0.6-0.1
						c-0.3,0-0.6,0.1-0.8,0.3c-0.2,0.2-0.4,0.5-0.4,0.9h2.4C88.4,40,88.3,39.8,88.2,39.6z"/>
					<path class="st1" d="M91.8,38.7c0.2-0.1,0.5-0.2,0.8-0.2v0.7h-0.2c-0.7,0-1.1,0.4-1.1,1.2v2.1h-0.6v-3.8h0.6v0.6
						C91.5,39,91.6,38.9,91.8,38.7z"/>
				</g>
			</g>
			<g>
				<g>
					<g>
						<path class="st1" d="M239.3,14.3c-0.2,0-0.5,0.1-0.5,0.3c-0.2,0.5-0.4,0.8-0.7,1.2c-0.7-0.6-1.6-1.2-3.1-1.2
							c-3.1,0-5,2.4-5,4.7c0,1.4,0.7,2.4,1.9,3c0.7,0.4,1.1,0.4,1.1,0.5c0,0.1-0.2,0.1-1.2,0.5c-0.7,0.2-1.2,0.4-1.3,0.5
							c-0.5,0.4-1,1.9-1,2.4c0,0.4,0.1,0.5,0.8,0.7c0.5,0.1,0.6,0.2,0.6,0.2c0,0-0.3,0.1-0.5,0.2c-0.1,0-0.3,0.1-0.4,0.1
							c-1.3-0.1-1.5-0.2-1.5-0.3c0-0.1,0.1-0.8,0.2-1.4l1.6-11.3c0.1-0.3,0.4-2.5,0.5-2.9c0.1-0.2,0.2-0.4,0.4-0.5
							c0.1-0.1,0.2-0.2,0.2-0.4c-0.1-0.2-0.2-0.2-0.4-0.2c-2.5,0.9-2.8,1.2-3.1,1.5c-0.4,0.5-2.2,2.8-2.6,3.4l-1.5,2
							c-2.9,3.7-7.6,10-13.1,10c-2.1,0-3.6-1.1-3.6-2.6c0-1.1,0.7-1.8,1.6-1.8c1.6,0,0.5,1.4,2.1,1.4c0.5,0,0.7-0.1,0.7-0.5
							c0-0.7-0.6-1.9-2.1-1.9c-1.6,0-2.9,1.3-2.9,2.9c0,2,2.2,3.3,4.7,3.3c0.4,0,0.8,0,1.2-0.1c-2.6,1.4-2.9,3.2-2.9,4
							c0,1.6,1.1,2.4,2.4,2.4c1.8,0,2.8-1.4,2.8-2c0-0.3-0.5-0.3-0.7-0.3c-1.3,0-0.9,1.4-2.3,1.4c-0.7,0-1.6-0.5-1.6-1.6
							c0-3.2,4.7-4.1,6.2-4.1c0.6,0,0.8,0.2,0.9,0.9l1.6,14.6c0,0.4,0.1,1,0.4,1c0.2,0,1.7-1.9,1.8-2.1c0.9-1.1,5.2-8.1,6.1-9.6h0
							l1.3,10.7c0,0.4,0.1,1,0.4,1c0.2-0.1,1.6-1.9,1.8-2c0,0,0.1-0.1,0.1-0.2c0.3,0.1,1.4,0.5,2.8,0.5c1.3,0,3-0.3,4.8-1.3
							c0.1,0,0.2-0.1,0.2-0.2c0-0.1,0.1-0.2,0.1-0.3l-0.7-8.8l0,0c0.7-1.3,1.1-2.3,1.1-3.3c0-0.1,0-0.1,0-0.2c0,0,0-0.1,0-0.1
							c0-2.4-2-2.6-5.7-3c-2.1-0.2-2.3-0.3-2.3-0.6c0-0.1,0.2-0.8,0.5-0.9c1.9-0.7,2.5-0.8,4.1-1.2c2.6-0.6,3.8-2.6,3.8-4.5
							c0-0.8-0.2-1.1-0.4-1.5c0.3-0.4,0.6-0.8,0.9-1.7C239.9,14.7,239.6,14.4,239.3,14.3z M222.7,19.8l4.9-6.5
							c0.2-0.2,0.2-0.2,0.3-0.2c0.1,0,0.1,0,0.1,0.1c0,0.1-0.1,0.4-0.1,0.8l-0.9,6.1c0,0.2,0,0.2-0.1,0.3c0,0-0.1,0-0.2,0h-3.9
							c-0.2,0-0.4,0-0.4-0.1C222.4,20.2,222.5,20,222.7,19.8z M221.4,40.3c-0.1,0.2-0.5,0.8-0.6,0.8c0,0-0.1-0.1-0.1-0.3l-1.5-14.4
							c-0.7,0.1-2.2,0.2-3.9,0.6c2.5-1.4,4.6-3.6,6.2-5.6c0.3-0.3,0.4-0.3,1.2-0.3h3.7c0.2,0,0.3,0,0.3,0.1c0,0.1-0.1,0.5-0.1,0.8
							l-0.5,3.7c-0.1,0.3-0.2,1.4-0.3,1.5c-0.1,0.1-1.5,0.2-1.9,0.2V28c0.5,0,2.1,0,3.2,0c0.3,0,0.8,0,1.2,0
							C224.1,36.1,223.5,36.9,221.4,40.3z M230.5,40.5C230.4,40.5,230.4,40.5,230.5,40.5l-1.1-9.1c0.8,0.3,1.7,0.5,2.8,0.5
							c1.9,0,3.9-0.4,5-1.1c-0.5,1.1-1.2,2.9-3.9,6.5C232.9,37.8,230.7,40.5,230.5,40.5z M237.9,40.9c-3.1,1.7-5.9,1.1-6.9,0.9
							l4-5.7c0.8-1.1,1.5-2.1,2-2.9l0.2-0.3L237.9,40.9z M233.1,28.4c1.8-0.2,3.4,0,4,0.4c0.2,0.1,0.2,0.3,0.3,0.4
							c0.1,0.8-1.6,1.6-4,1.8c-0.5,0.1-1,0.1-1.4,0.1c-1.2,0-2.1-0.2-2.5-0.5c-0.2-0.1-0.2-0.3-0.3-0.4
							C229,29.5,230.7,28.7,233.1,28.4z M234.7,22.3c-0.6,0.2-1.2,0.1-1.7-0.3c-0.5-0.5-0.8-1.3-0.8-2.3c0-2,1.2-4.4,3-4.4
							c1.4,0,1.8,1.2,1.8,2.6C237,19.8,236.2,21.7,234.7,22.3z M229.5,30.5c0.6,0.4,2.1,0.6,3.8,0.4c2.4-0.3,3.8-1,3.8-1.6
							c0-0.1-0.1-0.2-0.2-0.3c-0.4-0.3-1.3-0.5-2.4-0.5c-0.4,0-0.9,0-1.4,0.1c-2.4,0.3-3.8,1-3.8,1.6
							C229.3,30.3,229.4,30.5,229.5,30.5z M233.1,28.9c1.9-0.2,3.4,0,3.5,0.5c0.1,0.5-1.4,1.1-3.3,1.3c-1.9,0.2-3.4,0-3.5-0.5
							C229.8,29.6,231.2,29.1,233.1,28.9z"/>
					</g>
				</g>
			</g>
		</g>
		<g>
			<g>
				<text transform="matrix(1 0 0 1 192.593 68.3212)" class="st4 st5 st6">LEARN MORE</text>
				<g>
					<path class="st7" d="M236.2,123.9h-45.1c-2,0-3.6-1.6-3.6-3.6V75.3c0-2,1.6-3.6,3.6-3.6h45.1c2,0,3.6,1.6,3.6,3.6v45.1
						C239.8,122.3,238.2,123.9,236.2,123.9z"/>
					
						<image style="overflow:visible;" width="396" height="396" xlink:href="363DEF94.jpg"  transform="matrix(0.1231 0 0 0.1231 189.312 73.4396)">
					</image>
					<path class="st8" d="M235.1,122.8h-42.9c-2,0-3.6-1.6-3.6-3.6V76.4c0-2,1.6-3.6,3.6-3.6h42.9c2,0,3.6,1.6,3.6,3.6v42.9
						C238.7,121.2,237.1,122.8,235.1,122.8z"/>
				</g>
			</g>
			<g>
				<g>
					<path class="st9" d="M29.8,118.9v-0.4l1.9-2.7h0.6v2.6h0.6v0.4h-0.6v0.9h-0.5v-0.9H29.8z M31.8,116.3l-1.5,2.1h1.5V116.3z"/>
					<path class="st9" d="M33.2,116.2v-0.5h1v4h-0.5v-3.5H33.2z"/>
					<path class="st9" d="M35,116.2v-0.5h1v4h-0.5v-3.5H35z"/>
					<path class="st9" d="M40.7,115.9v0.4H39v1.3h1.4v0.4H39v1.7h-0.5v-3.9H40.7z"/>
					<path class="st9" d="M41.3,116.1c-0.1-0.1-0.1-0.1-0.1-0.2c0-0.1,0-0.2,0.1-0.2c0.1-0.1,0.1-0.1,0.2-0.1c0.1,0,0.2,0,0.2,0.1
						c0.1,0.1,0.1,0.1,0.1,0.2c0,0.1,0,0.2-0.1,0.2c-0.1,0.1-0.1,0.1-0.2,0.1C41.4,116.2,41.4,116.2,41.3,116.1z M41.8,116.7v3h-0.5
						v-3H41.8z"/>
					<path class="st9" d="M43.9,117.1h-0.6v2.6h-0.5v-2.6h-0.4v-0.4h0.4v-0.2c0-0.3,0.1-0.6,0.3-0.7c0.2-0.2,0.5-0.2,0.8-0.2v0.4
						c-0.2,0-0.4,0-0.5,0.1c-0.1,0.1-0.1,0.2-0.1,0.4v0.2h0.6V117.1z"/>
					<path class="st9" d="M45.1,117.1v1.8c0,0.1,0,0.3,0.1,0.3c0.1,0.1,0.2,0.1,0.3,0.1h0.4v0.4h-0.5c-0.3,0-0.5-0.1-0.6-0.2
						c-0.1-0.1-0.2-0.3-0.2-0.6v-1.8h-0.4v-0.4h0.4v-0.8h0.5v0.8h0.8v0.4H45.1z"/>
					<path class="st9" d="M48.6,116.8c0.2,0.1,0.3,0.2,0.4,0.4c0.1,0.2,0.2,0.4,0.2,0.7v1.8h-0.5V118c0-0.3-0.1-0.5-0.2-0.7
						c-0.2-0.2-0.4-0.2-0.6-0.2c-0.3,0-0.5,0.1-0.6,0.2c-0.2,0.2-0.2,0.4-0.2,0.7v1.7h-0.5v-4.1H47v1.5c0.1-0.2,0.2-0.3,0.4-0.4
						c0.2-0.1,0.4-0.1,0.6-0.1C48.2,116.6,48.4,116.7,48.6,116.8z"/>
					<path class="st9" d="M53.8,118.9h-1.7l-0.3,0.9h-0.5l1.4-3.8h0.6l1.4,3.8h-0.5L53.8,118.9z M53.7,118.5l-0.7-2l-0.7,2H53.7z"/>
					<path class="st9" d="M56.4,119.3l0.9-2.6h0.5l-1.2,3h-0.6l-1.2-3h0.5L56.4,119.3z"/>
					<path class="st9" d="M61.1,118.4h-2.4c0,0.3,0.1,0.5,0.3,0.7c0.2,0.2,0.4,0.3,0.7,0.3c0.2,0,0.4-0.1,0.5-0.2
						c0.1-0.1,0.2-0.2,0.3-0.4h0.5c-0.1,0.3-0.2,0.5-0.5,0.7c-0.2,0.2-0.5,0.3-0.9,0.3c-0.3,0-0.5-0.1-0.8-0.2
						c-0.2-0.1-0.4-0.3-0.5-0.6c-0.1-0.2-0.2-0.5-0.2-0.8c0-0.3,0.1-0.6,0.2-0.8c0.1-0.2,0.3-0.4,0.5-0.5c0.2-0.1,0.5-0.2,0.8-0.2
						c0.3,0,0.5,0.1,0.8,0.2c0.2,0.1,0.4,0.3,0.5,0.5c0.1,0.2,0.2,0.5,0.2,0.7C61.1,118.2,61.1,118.3,61.1,118.4z M60.5,117.5
						c-0.1-0.1-0.2-0.2-0.3-0.3c-0.1-0.1-0.3-0.1-0.5-0.1c-0.3,0-0.5,0.1-0.7,0.2c-0.2,0.2-0.3,0.4-0.3,0.7h1.9
						C60.6,117.8,60.6,117.6,60.5,117.5z"/>
					<path class="st9" d="M62.3,119l-0.6,1.5h-0.3l0.4-1.5H62.3z"/>
					<path class="st9" d="M66.6,117.8c-0.2,0.2-0.6,0.3-1,0.3h-0.7v1.6h-0.5v-3.9h1.2c0.4,0,0.8,0.1,1,0.3c0.2,0.2,0.3,0.5,0.3,0.8
						C67,117.3,66.9,117.6,66.6,117.8z M66.2,117.5c0.1-0.1,0.2-0.3,0.2-0.5c0-0.5-0.3-0.7-0.8-0.7h-0.7v1.4h0.7
						C65.9,117.7,66.1,117.7,66.2,117.5z"/>
					<path class="st9" d="M70.3,118.4h-2.4c0,0.3,0.1,0.5,0.3,0.7c0.2,0.2,0.4,0.3,0.7,0.3c0.2,0,0.4-0.1,0.5-0.2
						c0.1-0.1,0.2-0.2,0.3-0.4h0.5c-0.1,0.3-0.2,0.5-0.5,0.7c-0.2,0.2-0.5,0.3-0.9,0.3c-0.3,0-0.5-0.1-0.8-0.2
						c-0.2-0.1-0.4-0.3-0.5-0.6c-0.1-0.2-0.2-0.5-0.2-0.8c0-0.3,0.1-0.6,0.2-0.8c0.1-0.2,0.3-0.4,0.5-0.5c0.2-0.1,0.5-0.2,0.8-0.2
						c0.3,0,0.5,0.1,0.8,0.2c0.2,0.1,0.4,0.3,0.5,0.5c0.1,0.2,0.2,0.5,0.2,0.7C70.4,118.2,70.4,118.3,70.3,118.4z M69.7,117.5
						c-0.1-0.1-0.2-0.2-0.3-0.3c-0.1-0.1-0.3-0.1-0.5-0.1c-0.3,0-0.5,0.1-0.7,0.2c-0.2,0.2-0.3,0.4-0.3,0.7h1.9
						C69.8,117.8,69.8,117.6,69.7,117.5z"/>
					<path class="st9" d="M71.5,115.6v4.1H71v-4.1H71.5z"/>
					<path class="st9" d="M74.5,116.8c0.2,0.1,0.3,0.2,0.4,0.4c0.1,0.2,0.2,0.4,0.2,0.7v1.8h-0.5V118c0-0.3-0.1-0.5-0.2-0.7
						c-0.2-0.2-0.4-0.2-0.6-0.2c-0.3,0-0.5,0.1-0.6,0.2s-0.2,0.4-0.2,0.7v1.7h-0.5v-4.1h0.5v1.5c0.1-0.2,0.2-0.3,0.4-0.4
						c0.2-0.1,0.4-0.1,0.6-0.1C74.1,116.6,74.3,116.7,74.5,116.8z"/>
					<path class="st9" d="M75.9,117.4c0.1-0.2,0.3-0.4,0.5-0.5c0.2-0.1,0.5-0.2,0.7-0.2c0.3,0,0.5,0.1,0.7,0.2
						c0.2,0.1,0.3,0.3,0.4,0.4v-0.6h0.5v3h-0.5v-0.6c-0.1,0.2-0.2,0.3-0.4,0.4c-0.2,0.1-0.4,0.2-0.7,0.2c-0.3,0-0.5-0.1-0.7-0.2
						s-0.4-0.3-0.5-0.6s-0.2-0.5-0.2-0.8C75.8,117.9,75.8,117.6,75.9,117.4z M78.2,117.6c-0.1-0.2-0.2-0.3-0.4-0.4
						c-0.2-0.1-0.3-0.1-0.5-0.1c-0.2,0-0.4,0-0.5,0.1c-0.2,0.1-0.3,0.2-0.4,0.4c-0.1,0.2-0.1,0.4-0.1,0.6c0,0.2,0,0.4,0.1,0.6
						c0.1,0.2,0.2,0.3,0.4,0.4c0.2,0.1,0.3,0.1,0.5,0.1c0.2,0,0.4,0,0.5-0.1c0.2-0.1,0.3-0.2,0.4-0.4c0.1-0.2,0.1-0.4,0.1-0.6
						C78.3,118,78.3,117.8,78.2,117.6z"/>
					<path class="st9" d="M84,116.8c0.2,0.1,0.3,0.2,0.4,0.4c0.1,0.2,0.2,0.4,0.2,0.7v1.8h-0.5V118c0-0.3-0.1-0.5-0.2-0.7
						c-0.1-0.2-0.4-0.2-0.6-0.2c-0.3,0-0.5,0.1-0.6,0.3c-0.2,0.2-0.2,0.4-0.2,0.7v1.7h-0.5V118c0-0.3-0.1-0.5-0.2-0.7
						c-0.1-0.2-0.4-0.2-0.6-0.2c-0.3,0-0.5,0.1-0.6,0.3c-0.2,0.2-0.2,0.4-0.2,0.7v1.7h-0.5v-3h0.5v0.4c0.1-0.2,0.2-0.3,0.4-0.4
						c0.2-0.1,0.4-0.1,0.6-0.1c0.3,0,0.5,0.1,0.7,0.2c0.2,0.1,0.3,0.3,0.4,0.5c0.1-0.2,0.2-0.4,0.4-0.5c0.2-0.1,0.4-0.2,0.7-0.2
						C83.6,116.6,83.8,116.7,84,116.8z"/>
					<path class="st9" d="M89.9,119.7h-0.5l-2-3.1v3.1h-0.5v-3.9h0.5l2,3.1v-3.1h0.5V119.7z"/>
					<path class="st9" d="M93.5,115.9l-1.3,2.4v1.5h-0.5v-1.5l-1.3-2.4H91l1,2l1-2H93.5z"/>
					<path class="st9" d="M95.3,116.2v-0.5h1v4h-0.5v-3.5H95.3z"/>
					<path class="st9" d="M97.5,116.2c0.2-0.4,0.6-0.5,1.1-0.5c0.5,0,0.9,0.2,1.1,0.5c0.2,0.4,0.3,0.9,0.3,1.5
						c0,0.6-0.1,1.2-0.3,1.5c-0.2,0.4-0.6,0.5-1.1,0.5c-0.5,0-0.9-0.2-1.1-0.5c-0.2-0.4-0.3-0.9-0.3-1.5
						C97.2,117.1,97.3,116.6,97.5,116.2z M99.4,116.9c0-0.2-0.1-0.4-0.3-0.5c-0.1-0.1-0.3-0.2-0.6-0.2c-0.3,0-0.4,0.1-0.6,0.2
						c-0.1,0.1-0.2,0.3-0.3,0.5c0,0.2-0.1,0.5-0.1,0.8c0,0.3,0,0.6,0.1,0.8s0.1,0.4,0.3,0.5c0.1,0.1,0.3,0.2,0.6,0.2
						c0.2,0,0.4-0.1,0.6-0.2c0.1-0.1,0.2-0.3,0.3-0.5c0-0.2,0.1-0.5,0.1-0.8C99.5,117.4,99.5,117.1,99.4,116.9z"/>
					<path class="st9" d="M100.9,117.3c-0.1-0.2-0.2-0.3-0.2-0.6c0-0.2,0.1-0.4,0.1-0.5c0.1-0.2,0.2-0.3,0.4-0.4
						c0.2-0.1,0.4-0.1,0.7-0.1s0.5,0,0.7,0.1c0.2,0.1,0.3,0.2,0.4,0.4s0.2,0.3,0.2,0.5c0,0.2-0.1,0.4-0.2,0.6
						c-0.1,0.2-0.3,0.3-0.5,0.4c0.2,0.1,0.4,0.2,0.5,0.4c0.1,0.2,0.2,0.4,0.2,0.6c0,0.2-0.1,0.4-0.2,0.6c-0.1,0.2-0.3,0.3-0.5,0.4
						c-0.2,0.1-0.5,0.1-0.7,0.1s-0.5,0-0.7-0.1c-0.2-0.1-0.4-0.2-0.5-0.4c-0.1-0.2-0.2-0.4-0.2-0.6c0-0.2,0.1-0.5,0.2-0.6
						c0.1-0.2,0.3-0.3,0.5-0.4C101.2,117.6,101,117.5,100.9,117.3z M101.4,118.1c-0.2,0.1-0.3,0.3-0.3,0.6c0,0.2,0.1,0.4,0.3,0.6
						c0.2,0.1,0.4,0.2,0.7,0.2c0.3,0,0.5-0.1,0.7-0.2c0.2-0.1,0.2-0.3,0.2-0.6c0-0.2-0.1-0.4-0.3-0.6c-0.2-0.1-0.4-0.2-0.7-0.2
						C101.8,117.9,101.6,117.9,101.4,118.1z M102.7,116.3c-0.1-0.1-0.4-0.2-0.6-0.2c-0.3,0-0.5,0.1-0.6,0.2s-0.2,0.3-0.2,0.5
						c0,0.2,0.1,0.4,0.2,0.5c0.2,0.1,0.4,0.2,0.6,0.2c0.2,0,0.4-0.1,0.6-0.2c0.2-0.1,0.2-0.3,0.2-0.5
						C102.9,116.6,102.8,116.4,102.7,116.3z"/>
					<path class="st9" d="M104.5,116.2c0.2-0.4,0.6-0.5,1.1-0.5c0.5,0,0.9,0.2,1.1,0.5c0.2,0.4,0.3,0.9,0.3,1.5
						c0,0.6-0.1,1.2-0.3,1.5c-0.2,0.4-0.6,0.5-1.1,0.5c-0.5,0-0.9-0.2-1.1-0.5c-0.2-0.4-0.3-0.9-0.3-1.5
						C104.2,117.1,104.3,116.6,104.5,116.2z M106.4,116.9c0-0.2-0.1-0.4-0.3-0.5c-0.1-0.1-0.3-0.2-0.6-0.2c-0.3,0-0.4,0.1-0.6,0.2
						c-0.1,0.1-0.2,0.3-0.3,0.5c0,0.2-0.1,0.5-0.1,0.8c0,0.3,0,0.6,0.1,0.8s0.1,0.4,0.3,0.5c0.1,0.1,0.3,0.2,0.6,0.2
						c0.2,0,0.4-0.1,0.6-0.2c0.1-0.1,0.2-0.3,0.3-0.5c0-0.2,0.1-0.5,0.1-0.8C106.5,117.4,106.4,117.1,106.4,116.9z"/>
					<path class="st9" d="M108,115.9c0.2-0.2,0.5-0.3,0.9-0.3c0.3,0,0.5,0,0.7,0.1c0.2,0.1,0.3,0.2,0.4,0.4c0.1,0.2,0.1,0.3,0.1,0.5
						c0,0.2-0.1,0.4-0.2,0.6c-0.1,0.2-0.3,0.3-0.5,0.3v0c0.2,0.1,0.4,0.2,0.6,0.3c0.1,0.2,0.2,0.4,0.2,0.7c0,0.2,0,0.4-0.1,0.6
						c-0.1,0.2-0.2,0.3-0.4,0.4c-0.2,0.1-0.4,0.1-0.7,0.1c-0.4,0-0.7-0.1-1-0.3c-0.3-0.2-0.4-0.5-0.4-0.9h0.5c0,0.2,0.1,0.4,0.3,0.5
						c0.2,0.1,0.4,0.2,0.6,0.2c0.3,0,0.5-0.1,0.6-0.2c0.1-0.1,0.2-0.3,0.2-0.5c0-0.3-0.1-0.5-0.3-0.6c-0.2-0.1-0.5-0.2-0.8-0.2h-0.1
						v-0.4h0.1c0.3,0,0.6-0.1,0.8-0.2c0.2-0.1,0.3-0.3,0.3-0.5c0-0.2-0.1-0.4-0.2-0.5c-0.1-0.1-0.3-0.2-0.5-0.2
						c-0.2,0-0.4,0.1-0.6,0.2c-0.1,0.1-0.2,0.3-0.2,0.5h-0.5C107.7,116.4,107.8,116.1,108,115.9z"/>
				</g>
				<g>
					<path class="st9" d="M34.2,99.9l-0.9,3h-0.5l-0.7-2.4l-0.7,2.4h-0.5l-1-3h0.5l0.7,2.6l0.8-2.6h0.5l0.7,2.6l0.7-2.6H34.2z"/>
					<path class="st9" d="M38.7,99.9l-0.9,3h-0.5l-0.7-2.4l-0.7,2.4h-0.5l-1-3h0.5l0.7,2.6l0.8-2.6h0.5l0.7,2.6l0.7-2.6H38.7z"/>
					<path class="st9" d="M43.3,99.9l-0.9,3h-0.5l-0.7-2.4l-0.7,2.4h-0.5l-1-3h0.5l0.7,2.6l0.8-2.6h0.5l0.7,2.6l0.7-2.6H43.3z"/>
					<path class="st9" d="M43.7,102.9c-0.1-0.1-0.1-0.1-0.1-0.2c0-0.1,0-0.2,0.1-0.2c0.1-0.1,0.1-0.1,0.2-0.1c0.1,0,0.2,0,0.2,0.1
						c0.1,0.1,0.1,0.1,0.1,0.2c0,0.1,0,0.2-0.1,0.2c-0.1,0.1-0.1,0.1-0.2,0.1C43.8,103,43.7,103,43.7,102.9z"/>
					<path class="st9" d="M44.9,100.6c0.1-0.2,0.3-0.4,0.5-0.5s0.5-0.2,0.7-0.2c0.3,0,0.5,0.1,0.7,0.2c0.2,0.1,0.3,0.3,0.4,0.4v-0.6
						h0.5v3h-0.5v-0.6c-0.1,0.2-0.2,0.3-0.4,0.4c-0.2,0.1-0.4,0.2-0.7,0.2c-0.3,0-0.5-0.1-0.7-0.2c-0.2-0.1-0.4-0.3-0.5-0.6
						c-0.1-0.2-0.2-0.5-0.2-0.8C44.7,101.1,44.8,100.8,44.9,100.6z M47.2,100.8c-0.1-0.2-0.2-0.3-0.4-0.4c-0.2-0.1-0.3-0.1-0.5-0.1
						c-0.2,0-0.4,0-0.5,0.1c-0.2,0.1-0.3,0.2-0.4,0.4c-0.1,0.2-0.1,0.4-0.1,0.6c0,0.2,0,0.4,0.1,0.6c0.1,0.2,0.2,0.3,0.4,0.4
						c0.2,0.1,0.3,0.1,0.5,0.1c0.2,0,0.4,0,0.5-0.1c0.2-0.1,0.3-0.2,0.4-0.4c0.1-0.2,0.1-0.4,0.1-0.6
						C47.3,101.2,47.3,101,47.2,100.8z"/>
					<path class="st9" d="M50.6,100c0.2,0.1,0.3,0.3,0.4,0.4v-0.6h0.5v3.1c0,0.3-0.1,0.5-0.2,0.7s-0.3,0.4-0.5,0.5
						c-0.2,0.1-0.5,0.2-0.8,0.2c-0.4,0-0.7-0.1-1-0.3c-0.3-0.2-0.4-0.4-0.5-0.8h0.5c0.1,0.2,0.2,0.3,0.3,0.4
						c0.2,0.1,0.4,0.2,0.6,0.2c0.3,0,0.5-0.1,0.7-0.3c0.2-0.2,0.3-0.4,0.3-0.7v-0.6c-0.1,0.2-0.2,0.3-0.4,0.4
						c-0.2,0.1-0.4,0.2-0.7,0.2c-0.3,0-0.5-0.1-0.7-0.2s-0.4-0.3-0.5-0.6c-0.1-0.2-0.2-0.5-0.2-0.8c0-0.3,0.1-0.6,0.2-0.8
						c0.1-0.2,0.3-0.4,0.5-0.5s0.5-0.2,0.7-0.2C50.2,99.9,50.4,99.9,50.6,100z M50.9,100.8c-0.1-0.2-0.2-0.3-0.4-0.4
						c-0.2-0.1-0.3-0.1-0.5-0.1c-0.2,0-0.4,0-0.5,0.1c-0.2,0.1-0.3,0.2-0.4,0.4c-0.1,0.2-0.1,0.4-0.1,0.6c0,0.2,0,0.4,0.1,0.6
						c0.1,0.2,0.2,0.3,0.4,0.4c0.2,0.1,0.3,0.1,0.5,0.1c0.2,0,0.4,0,0.5-0.1c0.2-0.1,0.3-0.2,0.4-0.4c0.1-0.2,0.1-0.4,0.1-0.6
						C51.1,101.2,51,101,50.9,100.8z"/>
					<path class="st9" d="M56.5,99.9l-0.9,3H55l-0.7-2.4l-0.7,2.4H53l-1-3h0.5l0.7,2.6l0.8-2.6h0.5l0.7,2.6l0.7-2.6H56.5z"/>
					<path class="st9" d="M57,99.3c-0.1-0.1-0.1-0.1-0.1-0.2c0-0.1,0-0.2,0.1-0.2c0.1-0.1,0.1-0.1,0.2-0.1c0.1,0,0.2,0,0.2,0.1
						c0.1,0.1,0.1,0.1,0.1,0.2c0,0.1,0,0.2-0.1,0.2c-0.1,0.1-0.1,0.1-0.2,0.1C57.1,99.4,57.1,99.4,57,99.3z M57.5,99.9v3H57v-3H57.5
						z"/>
					<path class="st9" d="M58.8,98.9v4.1h-0.5v-4.1H58.8z"/>
					<path class="st9" d="M60.2,98.9v4.1h-0.5v-4.1H60.2z"/>
					<path class="st9" d="M61.1,99.3C61,99.3,61,99.2,61,99.1c0-0.1,0-0.2,0.1-0.2c0.1-0.1,0.1-0.1,0.2-0.1c0.1,0,0.2,0,0.2,0.1
						c0.1,0.1,0.1,0.1,0.1,0.2c0,0.1,0,0.2-0.1,0.2c-0.1,0.1-0.1,0.1-0.2,0.1C61.2,99.4,61.1,99.4,61.1,99.3z M61.6,99.9v3h-0.5v-3
						H61.6z"/>
					<path class="st9" d="M62.4,100.6c0.1-0.2,0.3-0.4,0.5-0.5s0.5-0.2,0.7-0.2c0.3,0,0.5,0.1,0.7,0.2c0.2,0.1,0.3,0.3,0.4,0.4v-0.6
						h0.5v3h-0.5v-0.6c-0.1,0.2-0.2,0.3-0.4,0.4c-0.2,0.1-0.4,0.2-0.7,0.2c-0.3,0-0.5-0.1-0.7-0.2s-0.4-0.3-0.5-0.6
						c-0.1-0.2-0.2-0.5-0.2-0.8C62.2,101.1,62.3,100.8,62.4,100.6z M64.7,100.8c-0.1-0.2-0.2-0.3-0.4-0.4c-0.2-0.1-0.3-0.1-0.5-0.1
						c-0.2,0-0.4,0-0.5,0.1c-0.2,0.1-0.3,0.2-0.4,0.4c-0.1,0.2-0.1,0.4-0.1,0.6c0,0.2,0,0.4,0.1,0.6c0.1,0.2,0.2,0.3,0.4,0.4
						c0.2,0.1,0.3,0.1,0.5,0.1c0.2,0,0.4,0,0.5-0.1c0.2-0.1,0.3-0.2,0.4-0.4c0.1-0.2,0.1-0.4,0.1-0.6
						C64.8,101.2,64.8,101,64.7,100.8z"/>
					<path class="st9" d="M70.5,100c0.2,0.1,0.3,0.2,0.4,0.4c0.1,0.2,0.2,0.4,0.2,0.7v1.8h-0.5v-1.7c0-0.3-0.1-0.5-0.2-0.7
						c-0.1-0.2-0.4-0.2-0.6-0.2c-0.3,0-0.5,0.1-0.6,0.3c-0.2,0.2-0.2,0.4-0.2,0.7v1.7h-0.5v-1.7c0-0.3-0.1-0.5-0.2-0.7
						c-0.1-0.2-0.4-0.2-0.6-0.2c-0.3,0-0.5,0.1-0.6,0.3c-0.2,0.2-0.2,0.4-0.2,0.7v1.7h-0.5v-3h0.5v0.4c0.1-0.2,0.2-0.3,0.4-0.4
						c0.2-0.1,0.4-0.1,0.6-0.1c0.3,0,0.5,0.1,0.7,0.2c0.2,0.1,0.3,0.3,0.4,0.5c0.1-0.2,0.2-0.4,0.4-0.5c0.2-0.1,0.4-0.2,0.7-0.2
						C70.1,99.9,70.3,99.9,70.5,100z"/>
					<path class="st9" d="M72.3,102.9c-0.2-0.1-0.3-0.2-0.4-0.3c-0.1-0.1-0.2-0.3-0.2-0.5h0.5c0,0.2,0.1,0.3,0.2,0.4
						c0.1,0.1,0.3,0.1,0.5,0.1c0.2,0,0.3,0,0.5-0.1c0.1-0.1,0.2-0.2,0.2-0.3c0-0.1-0.1-0.2-0.2-0.3c-0.1-0.1-0.3-0.1-0.5-0.2
						c-0.2-0.1-0.4-0.1-0.6-0.2c-0.1-0.1-0.3-0.2-0.4-0.3c-0.1-0.1-0.2-0.3-0.2-0.5c0-0.2,0-0.3,0.1-0.4c0.1-0.1,0.2-0.2,0.4-0.3
						c0.2-0.1,0.4-0.1,0.6-0.1c0.3,0,0.6,0.1,0.8,0.3c0.2,0.2,0.3,0.4,0.3,0.7h-0.5c0-0.2-0.1-0.3-0.2-0.4c-0.1-0.1-0.3-0.1-0.5-0.1
						c-0.2,0-0.3,0-0.4,0.1c-0.1,0.1-0.2,0.2-0.2,0.3c0,0.1,0,0.2,0.1,0.2c0.1,0.1,0.1,0.1,0.2,0.2c0.1,0,0.2,0.1,0.4,0.1
						c0.2,0.1,0.4,0.1,0.5,0.2c0.1,0.1,0.3,0.1,0.4,0.3c0.1,0.1,0.1,0.3,0.2,0.4c0,0.2,0,0.3-0.1,0.4c-0.1,0.1-0.2,0.2-0.4,0.3
						c-0.2,0.1-0.4,0.1-0.6,0.1C72.7,103,72.5,103,72.3,102.9z"/>
					<path class="st9" d="M75.7,100c0.2-0.1,0.4-0.2,0.7-0.2c0.3,0,0.5,0.1,0.7,0.2c0.2,0.1,0.4,0.3,0.5,0.5
						c0.1,0.2,0.2,0.5,0.2,0.8c0,0.3-0.1,0.6-0.2,0.8s-0.3,0.4-0.5,0.6c-0.2,0.1-0.5,0.2-0.7,0.2c-0.3,0-0.5-0.1-0.7-0.2
						c-0.2-0.1-0.3-0.3-0.5-0.4v2h-0.5v-4.5h0.5v0.6C75.4,100.3,75.5,100.2,75.7,100z M77.2,100.8c-0.1-0.2-0.2-0.3-0.4-0.4
						s-0.3-0.1-0.5-0.1c-0.2,0-0.4,0-0.5,0.1c-0.2,0.1-0.3,0.2-0.4,0.4c-0.1,0.2-0.1,0.4-0.1,0.6c0,0.2,0,0.4,0.1,0.6
						c0.1,0.2,0.2,0.3,0.4,0.4c0.2,0.1,0.3,0.1,0.5,0.1c0.2,0,0.4,0,0.5-0.1c0.2-0.1,0.3-0.2,0.4-0.4c0.1-0.2,0.1-0.4,0.1-0.6
						C77.4,101.2,77.3,101,77.2,100.8z"/>
					<path class="st9" d="M78.5,100.6c0.1-0.2,0.3-0.4,0.5-0.5c0.2-0.1,0.5-0.2,0.7-0.2c0.3,0,0.5,0.1,0.7,0.2
						c0.2,0.1,0.3,0.3,0.4,0.4v-0.6h0.5v3h-0.5v-0.6c-0.1,0.2-0.2,0.3-0.4,0.4c-0.2,0.1-0.4,0.2-0.7,0.2c-0.3,0-0.5-0.1-0.7-0.2
						s-0.4-0.3-0.5-0.6s-0.2-0.5-0.2-0.8C78.3,101.1,78.4,100.8,78.5,100.6z M80.8,100.8c-0.1-0.2-0.2-0.3-0.4-0.4
						c-0.2-0.1-0.3-0.1-0.5-0.1c-0.2,0-0.4,0-0.5,0.1c-0.2,0.1-0.3,0.2-0.4,0.4c-0.1,0.2-0.1,0.4-0.1,0.6c0,0.2,0,0.4,0.1,0.6
						c0.1,0.2,0.2,0.3,0.4,0.4c0.2,0.1,0.3,0.1,0.5,0.1c0.2,0,0.4,0,0.5-0.1c0.2-0.1,0.3-0.2,0.4-0.4c0.1-0.2,0.1-0.4,0.1-0.6
						C80.9,101.2,80.9,101,80.8,100.8z"/>
					<path class="st9" d="M82.3,99.3c-0.1-0.1-0.1-0.1-0.1-0.2c0-0.1,0-0.2,0.1-0.2c0.1-0.1,0.1-0.1,0.2-0.1c0.1,0,0.2,0,0.2,0.1
						c0.1,0.1,0.1,0.1,0.1,0.2c0,0.1,0,0.2-0.1,0.2c-0.1,0.1-0.1,0.1-0.2,0.1C82.4,99.4,82.4,99.4,82.3,99.3z M82.8,99.9v3h-0.5v-3
						H82.8z"/>
					<path class="st9" d="M86,100.2c0.2,0.2,0.3,0.5,0.3,1v1.8h-0.5v-1.7c0-0.3-0.1-0.5-0.2-0.7c-0.2-0.2-0.4-0.2-0.6-0.2
						c-0.3,0-0.5,0.1-0.6,0.2s-0.2,0.4-0.2,0.7v1.7h-0.5v-3h0.5v0.4c0.1-0.2,0.2-0.3,0.4-0.4c0.2-0.1,0.4-0.1,0.6-0.1
						C85.5,99.9,85.8,100,86,100.2z"/>
					<path class="st9" d="M87.8,100.3v1.8c0,0.1,0,0.3,0.1,0.3c0.1,0.1,0.2,0.1,0.3,0.1h0.4v0.4h-0.5c-0.3,0-0.5-0.1-0.6-0.2
						c-0.1-0.1-0.2-0.3-0.2-0.6v-1.8h-0.4v-0.4h0.4v-0.8h0.5v0.8h0.8v0.4H87.8z"/>
					<path class="st9" d="M89.2,99.3c-0.1-0.1-0.1-0.1-0.1-0.2c0-0.1,0-0.2,0.1-0.2c0.1-0.1,0.1-0.1,0.2-0.1c0.1,0,0.2,0,0.2,0.1
						c0.1,0.1,0.1,0.1,0.1,0.2c0,0.1,0,0.2-0.1,0.2c-0.1,0.1-0.1,0.1-0.2,0.1C89.4,99.4,89.3,99.4,89.2,99.3z M89.7,99.9v3h-0.5v-3
						H89.7z"/>
					<path class="st9" d="M93,100.2c0.2,0.2,0.3,0.5,0.3,1v1.8h-0.5v-1.7c0-0.3-0.1-0.5-0.2-0.7c-0.2-0.2-0.4-0.2-0.6-0.2
						c-0.3,0-0.5,0.1-0.6,0.2c-0.2,0.2-0.2,0.4-0.2,0.7v1.7h-0.5v-3h0.5v0.4c0.1-0.2,0.2-0.3,0.4-0.4c0.2-0.1,0.4-0.1,0.6-0.1
						C92.4,99.9,92.7,100,93,100.2z"/>
					<path class="st9" d="M96.1,100c0.2,0.1,0.3,0.3,0.4,0.4v-0.6H97v3.1c0,0.3-0.1,0.5-0.2,0.7c-0.1,0.2-0.3,0.4-0.5,0.5
						c-0.2,0.1-0.5,0.2-0.8,0.2c-0.4,0-0.7-0.1-1-0.3c-0.3-0.2-0.4-0.4-0.5-0.8h0.5c0.1,0.2,0.2,0.3,0.3,0.4
						c0.2,0.1,0.4,0.2,0.6,0.2c0.3,0,0.5-0.1,0.7-0.3c0.2-0.2,0.3-0.4,0.3-0.7v-0.6c-0.1,0.2-0.2,0.3-0.4,0.4
						c-0.2,0.1-0.4,0.2-0.7,0.2c-0.3,0-0.5-0.1-0.7-0.2c-0.2-0.1-0.4-0.3-0.5-0.6c-0.1-0.2-0.2-0.5-0.2-0.8c0-0.3,0.1-0.6,0.2-0.8
						c0.1-0.2,0.3-0.4,0.5-0.5c0.2-0.1,0.5-0.2,0.7-0.2C95.6,99.9,95.9,99.9,96.1,100z M96.4,100.8c-0.1-0.2-0.2-0.3-0.4-0.4
						c-0.2-0.1-0.3-0.1-0.5-0.1c-0.2,0-0.4,0-0.5,0.1c-0.2,0.1-0.3,0.2-0.4,0.4c-0.1,0.2-0.1,0.4-0.1,0.6c0,0.2,0,0.4,0.1,0.6
						c0.1,0.2,0.2,0.3,0.4,0.4c0.2,0.1,0.3,0.1,0.5,0.1c0.2,0,0.4,0,0.5-0.1c0.2-0.1,0.3-0.2,0.4-0.4c0.1-0.2,0.1-0.4,0.1-0.6
						C96.5,101.2,96.5,101,96.4,100.8z"/>
					<path class="st9" d="M97.8,102.9c-0.1-0.1-0.1-0.1-0.1-0.2c0-0.1,0-0.2,0.1-0.2c0.1-0.1,0.1-0.1,0.2-0.1c0.1,0,0.2,0,0.2,0.1
						c0.1,0.1,0.1,0.1,0.1,0.2c0,0.1,0,0.2-0.1,0.2c-0.1,0.1-0.1,0.1-0.2,0.1C97.9,103,97.9,103,97.8,102.9z"/>
					<path class="st9" d="M99,100.6c0.1-0.2,0.3-0.4,0.5-0.5c0.2-0.1,0.5-0.2,0.8-0.2c0.4,0,0.7,0.1,0.9,0.3
						c0.2,0.2,0.4,0.4,0.5,0.8h-0.5c-0.1-0.2-0.2-0.3-0.3-0.4c-0.1-0.1-0.3-0.2-0.6-0.2c-0.3,0-0.5,0.1-0.7,0.3
						c-0.2,0.2-0.3,0.5-0.3,0.8c0,0.4,0.1,0.6,0.3,0.8c0.2,0.2,0.4,0.3,0.7,0.3c0.2,0,0.4-0.1,0.6-0.2c0.1-0.1,0.2-0.3,0.3-0.4h0.5
						c-0.1,0.3-0.2,0.6-0.5,0.7c-0.2,0.2-0.5,0.3-0.9,0.3c-0.3,0-0.5-0.1-0.8-0.2c-0.2-0.1-0.4-0.3-0.5-0.5
						c-0.1-0.2-0.2-0.5-0.2-0.8C98.8,101.1,98.9,100.8,99,100.6z"/>
					<path class="st9" d="M103,102.8c-0.2-0.1-0.4-0.3-0.5-0.6c-0.1-0.2-0.2-0.5-0.2-0.8c0-0.3,0.1-0.6,0.2-0.8
						c0.1-0.2,0.3-0.4,0.6-0.5c0.2-0.1,0.5-0.2,0.8-0.2c0.3,0,0.5,0.1,0.8,0.2c0.2,0.1,0.4,0.3,0.6,0.5c0.1,0.2,0.2,0.5,0.2,0.8
						c0,0.3-0.1,0.6-0.2,0.8c-0.1,0.2-0.3,0.4-0.6,0.6c-0.2,0.1-0.5,0.2-0.8,0.2C103.4,103,103.2,102.9,103,102.8z M104.2,102.4
						c0.2-0.1,0.3-0.2,0.4-0.4s0.1-0.4,0.1-0.6c0-0.2,0-0.5-0.1-0.6c-0.1-0.2-0.2-0.3-0.4-0.4c-0.2-0.1-0.3-0.1-0.5-0.1
						c-0.2,0-0.4,0-0.5,0.1c-0.2,0.1-0.3,0.2-0.4,0.4c-0.1,0.2-0.1,0.4-0.1,0.6c0,0.2,0,0.5,0.1,0.6c0.1,0.2,0.2,0.3,0.4,0.4
						c0.2,0.1,0.3,0.1,0.5,0.1C103.9,102.6,104.1,102.5,104.2,102.4z"/>
					<path class="st9" d="M110.2,100c0.2,0.1,0.3,0.2,0.4,0.4c0.1,0.2,0.2,0.4,0.2,0.7v1.8h-0.5v-1.7c0-0.3-0.1-0.5-0.2-0.7
						c-0.1-0.2-0.4-0.2-0.6-0.2c-0.3,0-0.5,0.1-0.6,0.3c-0.2,0.2-0.2,0.4-0.2,0.7v1.7h-0.5v-1.7c0-0.3-0.1-0.5-0.2-0.7
						c-0.1-0.2-0.4-0.2-0.6-0.2c-0.3,0-0.5,0.1-0.6,0.3c-0.2,0.2-0.2,0.4-0.2,0.7v1.7H106v-3h0.5v0.4c0.1-0.2,0.2-0.3,0.4-0.4
						c0.2-0.1,0.4-0.1,0.6-0.1c0.3,0,0.5,0.1,0.7,0.2c0.2,0.1,0.3,0.3,0.4,0.5c0.1-0.2,0.2-0.4,0.4-0.5c0.2-0.1,0.4-0.2,0.7-0.2
						C109.8,99.9,110.1,99.9,110.2,100z"/>
				</g>
				<g>
					<path class="st9" d="M30.7,83.8c0.2-0.1,0.4-0.2,0.7-0.2c0.3,0,0.5,0.1,0.7,0.2c0.2,0.1,0.4,0.3,0.5,0.5
						c0.1,0.2,0.2,0.5,0.2,0.8c0,0.3-0.1,0.6-0.2,0.8c-0.1,0.2-0.3,0.4-0.5,0.6c-0.2,0.1-0.5,0.2-0.7,0.2c-0.3,0-0.5-0.1-0.7-0.2
						c-0.2-0.1-0.3-0.3-0.5-0.4v2h-0.5v-4.5h0.5v0.6C30.4,84.1,30.5,84,30.7,83.8z M32.2,84.6c-0.1-0.2-0.2-0.3-0.4-0.4
						c-0.2-0.1-0.3-0.1-0.5-0.1c-0.2,0-0.4,0-0.5,0.1c-0.2,0.1-0.3,0.2-0.4,0.4c-0.1,0.2-0.1,0.4-0.1,0.6c0,0.2,0,0.4,0.1,0.6
						c0.1,0.2,0.2,0.3,0.4,0.4c0.2,0.1,0.3,0.1,0.5,0.1c0.2,0,0.4,0,0.5-0.1c0.2-0.1,0.3-0.2,0.4-0.4c0.1-0.2,0.1-0.4,0.1-0.6
						C32.3,85,32.3,84.8,32.2,84.6z"/>
					<path class="st9" d="M34,87.4c0,0.3-0.1,0.5-0.2,0.6c-0.1,0.1-0.3,0.2-0.6,0.2h-0.3v-0.4h0.2c0.1,0,0.2,0,0.3-0.1
						c0.1-0.1,0.1-0.1,0.1-0.3v-3.7H34V87.4z M33.5,83.1c-0.1-0.1-0.1-0.1-0.1-0.2c0-0.1,0-0.2,0.1-0.2c0.1-0.1,0.1-0.1,0.2-0.1
						c0.1,0,0.2,0,0.2,0.1c0.1,0.1,0.1,0.1,0.1,0.2c0,0.1,0,0.2-0.1,0.2c-0.1,0.1-0.1,0.1-0.2,0.1C33.7,83.2,33.6,83.2,33.5,83.1z"
						/>
					<path class="st9" d="M38.7,83.4c0.3,0.2,0.5,0.4,0.7,0.7c0.2,0.3,0.2,0.6,0.2,1c0,0.3,0,0.6-0.1,0.8c-0.1,0.3-0.2,0.5-0.4,0.7
						c-0.2,0.2-0.4,0.2-0.6,0.2c-0.2,0-0.3,0-0.4-0.1c-0.1-0.1-0.2-0.2-0.2-0.4c-0.1,0.2-0.3,0.3-0.4,0.4c-0.2,0.1-0.4,0.1-0.6,0.1
						c-0.3,0-0.5-0.1-0.7-0.3c-0.2-0.2-0.2-0.4-0.2-0.7c0-0.3,0.1-0.5,0.2-0.8c0.1-0.2,0.3-0.4,0.5-0.6c0.2-0.1,0.4-0.2,0.7-0.2
						c0.4,0,0.6,0.1,0.7,0.4l0.1-0.3h0.4l-0.3,1.6c0,0.1,0,0.1,0,0.2c0,0.2,0.1,0.3,0.3,0.3c0.1,0,0.3-0.1,0.4-0.2
						c0.1-0.1,0.2-0.3,0.2-0.5c0.1-0.2,0.1-0.4,0.1-0.6c0-0.5-0.1-0.9-0.4-1.1c-0.3-0.3-0.7-0.4-1.2-0.4c-0.4,0-0.8,0.1-1.2,0.3
						c-0.4,0.2-0.6,0.5-0.8,0.9c-0.2,0.4-0.3,0.8-0.3,1.2c0,0.5,0.1,0.9,0.4,1.1c0.3,0.3,0.7,0.4,1.2,0.4c0.3,0,0.7-0.1,0.9-0.2
						l0.1,0.3c-0.3,0.1-0.7,0.2-1.1,0.2c-0.4,0-0.7-0.1-1-0.2c-0.3-0.1-0.5-0.4-0.7-0.6c-0.2-0.3-0.2-0.6-0.2-1c0-0.5,0.1-1,0.4-1.4
						c0.2-0.4,0.6-0.8,1-1c0.4-0.2,0.9-0.4,1.4-0.4C38.1,83.2,38.4,83.3,38.7,83.4z M37.5,86.2c0.1-0.1,0.3-0.2,0.3-0.4
						c0.1-0.2,0.1-0.4,0.1-0.6c0-0.2-0.1-0.3-0.2-0.5c-0.1-0.1-0.3-0.2-0.4-0.2c-0.2,0-0.3,0.1-0.5,0.2c-0.1,0.1-0.2,0.2-0.3,0.4
						c-0.1,0.2-0.1,0.4-0.1,0.5c0,0.2,0,0.4,0.1,0.5s0.2,0.2,0.4,0.2C37.2,86.4,37.3,86.3,37.5,86.2z"/>
					<path class="st9" d="M40.5,84.4c0.1-0.2,0.3-0.4,0.5-0.5s0.5-0.2,0.7-0.2c0.3,0,0.5,0.1,0.7,0.2c0.2,0.1,0.3,0.3,0.4,0.4v-0.6
						h0.5v3h-0.5v-0.6c-0.1,0.2-0.2,0.3-0.4,0.4c-0.2,0.1-0.4,0.2-0.7,0.2c-0.3,0-0.5-0.1-0.7-0.2c-0.2-0.1-0.4-0.3-0.5-0.6
						s-0.2-0.5-0.2-0.8C40.3,84.9,40.4,84.6,40.5,84.4z M42.7,84.6c-0.1-0.2-0.2-0.3-0.4-0.4c-0.2-0.1-0.3-0.1-0.5-0.1
						c-0.2,0-0.4,0-0.5,0.1c-0.2,0.1-0.3,0.2-0.4,0.4c-0.1,0.2-0.1,0.4-0.1,0.6c0,0.2,0,0.4,0.1,0.6c0.1,0.2,0.2,0.3,0.4,0.4
						c0.2,0.1,0.3,0.1,0.5,0.1c0.2,0,0.4,0,0.5-0.1c0.2-0.1,0.3-0.2,0.4-0.4c0.1-0.2,0.1-0.4,0.1-0.6C42.9,85,42.8,84.8,42.7,84.6z"
						/>
					<path class="st9" d="M46.2,83.8c0.2,0.1,0.3,0.3,0.4,0.4v-0.6h0.5v3.1c0,0.3-0.1,0.5-0.2,0.7s-0.3,0.4-0.5,0.5
						c-0.2,0.1-0.5,0.2-0.8,0.2c-0.4,0-0.7-0.1-1-0.3c-0.3-0.2-0.4-0.4-0.5-0.8h0.5c0.1,0.2,0.2,0.3,0.3,0.4
						c0.2,0.1,0.4,0.2,0.6,0.2c0.3,0,0.5-0.1,0.7-0.3c0.2-0.2,0.3-0.4,0.3-0.7v-0.6c-0.1,0.2-0.2,0.3-0.4,0.4
						c-0.2,0.1-0.4,0.2-0.7,0.2c-0.3,0-0.5-0.1-0.7-0.2c-0.2-0.1-0.4-0.3-0.5-0.6c-0.1-0.2-0.2-0.5-0.2-0.8c0-0.3,0.1-0.6,0.2-0.8
						c0.1-0.2,0.3-0.4,0.5-0.5s0.5-0.2,0.7-0.2C45.8,83.7,46,83.7,46.2,83.8z M46.5,84.6c-0.1-0.2-0.2-0.3-0.4-0.4
						c-0.2-0.1-0.3-0.1-0.5-0.1c-0.2,0-0.4,0-0.5,0.1c-0.2,0.1-0.3,0.2-0.4,0.4c-0.1,0.2-0.1,0.4-0.1,0.6c0,0.2,0,0.4,0.1,0.6
						c0.1,0.2,0.2,0.3,0.4,0.4c0.2,0.1,0.3,0.1,0.5,0.1c0.2,0,0.4,0,0.5-0.1c0.2-0.1,0.3-0.2,0.4-0.4c0.1-0.2,0.1-0.4,0.1-0.6
						C46.6,85,46.6,84.8,46.5,84.6z"/>
					<path class="st9" d="M52,83.7l-0.9,3h-0.5l-0.7-2.4l-0.7,2.4h-0.5l-1-3h0.5l0.7,2.6l0.8-2.6h0.5l0.7,2.6l0.7-2.6H52z"/>
					<path class="st9" d="M52.6,83.1c-0.1-0.1-0.1-0.1-0.1-0.2c0-0.1,0-0.2,0.1-0.2c0.1-0.1,0.1-0.1,0.2-0.1c0.1,0,0.2,0,0.2,0.1
						c0.1,0.1,0.1,0.1,0.1,0.2c0,0.1,0,0.2-0.1,0.2c-0.1,0.1-0.1,0.1-0.2,0.1C52.7,83.2,52.6,83.2,52.6,83.1z M53.1,83.7v3h-0.5v-3
						H53.1z"/>
					<path class="st9" d="M54.4,82.6v4.1h-0.5v-4.1H54.4z"/>
					<path class="st9" d="M55.8,82.6v4.1h-0.5v-4.1H55.8z"/>
					<path class="st9" d="M56.7,83.1c-0.1-0.1-0.1-0.1-0.1-0.2c0-0.1,0-0.2,0.1-0.2c0.1-0.1,0.1-0.1,0.2-0.1c0.1,0,0.2,0,0.2,0.1
						c0.1,0.1,0.1,0.1,0.1,0.2c0,0.1,0,0.2-0.1,0.2c-0.1,0.1-0.1,0.1-0.2,0.1C56.8,83.2,56.7,83.2,56.7,83.1z M57.1,83.7v3h-0.5v-3
						H57.1z"/>
					<path class="st9" d="M58,84.4c0.1-0.2,0.3-0.4,0.5-0.5s0.5-0.2,0.7-0.2c0.3,0,0.5,0.1,0.7,0.2c0.2,0.1,0.3,0.3,0.4,0.4v-0.6
						h0.5v3h-0.5v-0.6c-0.1,0.2-0.2,0.3-0.4,0.4c-0.2,0.1-0.4,0.2-0.7,0.2c-0.3,0-0.5-0.1-0.7-0.2c-0.2-0.1-0.4-0.3-0.5-0.6
						c-0.1-0.2-0.2-0.5-0.2-0.8C57.8,84.9,57.9,84.6,58,84.4z M60.2,84.6c-0.1-0.2-0.2-0.3-0.4-0.4c-0.2-0.1-0.3-0.1-0.5-0.1
						c-0.2,0-0.4,0-0.5,0.1c-0.2,0.1-0.3,0.2-0.4,0.4c-0.1,0.2-0.1,0.4-0.1,0.6c0,0.2,0,0.4,0.1,0.6c0.1,0.2,0.2,0.3,0.4,0.4
						c0.2,0.1,0.3,0.1,0.5,0.1c0.2,0,0.4,0,0.5-0.1c0.2-0.1,0.3-0.2,0.4-0.4c0.1-0.2,0.1-0.4,0.1-0.6C60.4,85,60.3,84.8,60.2,84.6z"
						/>
					<path class="st9" d="M66,83.8c0.2,0.1,0.3,0.2,0.4,0.4c0.1,0.2,0.2,0.4,0.2,0.7v1.8h-0.5V85c0-0.3-0.1-0.5-0.2-0.7
						c-0.1-0.2-0.4-0.2-0.6-0.2c-0.3,0-0.5,0.1-0.6,0.3c-0.2,0.2-0.2,0.4-0.2,0.7v1.7h-0.5V85c0-0.3-0.1-0.5-0.2-0.7
						c-0.1-0.2-0.4-0.2-0.6-0.2c-0.3,0-0.5,0.1-0.6,0.3c-0.2,0.2-0.2,0.4-0.2,0.7v1.7h-0.5v-3h0.5v0.4c0.1-0.2,0.2-0.3,0.4-0.4
						c0.2-0.1,0.4-0.1,0.6-0.1c0.3,0,0.5,0.1,0.7,0.2c0.2,0.1,0.3,0.3,0.4,0.5c0.1-0.2,0.2-0.4,0.4-0.5c0.2-0.1,0.4-0.2,0.7-0.2
						C65.6,83.7,65.9,83.7,66,83.8z"/>
					<path class="st9" d="M67.9,86.7c-0.2-0.1-0.3-0.2-0.4-0.3s-0.2-0.3-0.2-0.5h0.5c0,0.2,0.1,0.3,0.2,0.4s0.3,0.1,0.5,0.1
						c0.2,0,0.3,0,0.5-0.1c0.1-0.1,0.2-0.2,0.2-0.3c0-0.1-0.1-0.2-0.2-0.3c-0.1-0.1-0.3-0.1-0.5-0.2c-0.2-0.1-0.4-0.1-0.6-0.2
						c-0.1-0.1-0.3-0.2-0.4-0.3c-0.1-0.1-0.2-0.3-0.2-0.5c0-0.2,0-0.3,0.1-0.4c0.1-0.1,0.2-0.2,0.4-0.3c0.2-0.1,0.4-0.1,0.6-0.1
						c0.3,0,0.6,0.1,0.8,0.3c0.2,0.2,0.3,0.4,0.3,0.7h-0.5c0-0.2-0.1-0.3-0.2-0.4c-0.1-0.1-0.3-0.1-0.5-0.1c-0.2,0-0.3,0-0.4,0.1
						c-0.1,0.1-0.2,0.2-0.2,0.3c0,0.1,0,0.2,0.1,0.2c0.1,0.1,0.1,0.1,0.2,0.2c0.1,0,0.2,0.1,0.4,0.1c0.2,0.1,0.4,0.1,0.5,0.2
						c0.1,0.1,0.3,0.1,0.4,0.3c0.1,0.1,0.1,0.3,0.2,0.4c0,0.2,0,0.3-0.1,0.4c-0.1,0.1-0.2,0.2-0.4,0.3c-0.2,0.1-0.4,0.1-0.6,0.1
						C68.3,86.8,68.1,86.8,67.9,86.7z"/>
					<path class="st9" d="M71.3,83.8c0.2-0.1,0.4-0.2,0.7-0.2c0.3,0,0.5,0.1,0.7,0.2c0.2,0.1,0.4,0.3,0.5,0.5
						c0.1,0.2,0.2,0.5,0.2,0.8c0,0.3-0.1,0.6-0.2,0.8c-0.1,0.2-0.3,0.4-0.5,0.6c-0.2,0.1-0.5,0.2-0.7,0.2c-0.3,0-0.5-0.1-0.7-0.2
						c-0.2-0.1-0.3-0.3-0.5-0.4v2h-0.5v-4.5h0.5v0.6C71,84.1,71.1,84,71.3,83.8z M72.8,84.6c-0.1-0.2-0.2-0.3-0.4-0.4
						c-0.2-0.1-0.3-0.1-0.5-0.1c-0.2,0-0.4,0-0.5,0.1c-0.2,0.1-0.3,0.2-0.4,0.4s-0.1,0.4-0.1,0.6c0,0.2,0,0.4,0.1,0.6
						c0.1,0.2,0.2,0.3,0.4,0.4c0.2,0.1,0.3,0.1,0.5,0.1c0.2,0,0.4,0,0.5-0.1c0.2-0.1,0.3-0.2,0.4-0.4c0.1-0.2,0.1-0.4,0.1-0.6
						C72.9,85,72.9,84.8,72.8,84.6z"/>
					<path class="st9" d="M74.1,84.4c0.1-0.2,0.3-0.4,0.5-0.5c0.2-0.1,0.5-0.2,0.7-0.2c0.3,0,0.5,0.1,0.7,0.2
						c0.2,0.1,0.3,0.3,0.4,0.4v-0.6H77v3h-0.5v-0.6c-0.1,0.2-0.2,0.3-0.4,0.4c-0.2,0.1-0.4,0.2-0.7,0.2c-0.3,0-0.5-0.1-0.7-0.2
						c-0.2-0.1-0.4-0.3-0.5-0.6c-0.1-0.2-0.2-0.5-0.2-0.8C73.9,84.9,74,84.6,74.1,84.4z M76.4,84.6c-0.1-0.2-0.2-0.3-0.4-0.4
						c-0.2-0.1-0.3-0.1-0.5-0.1c-0.2,0-0.4,0-0.5,0.1c-0.2,0.1-0.3,0.2-0.4,0.4c-0.1,0.2-0.1,0.4-0.1,0.6c0,0.2,0,0.4,0.1,0.6
						c0.1,0.2,0.2,0.3,0.4,0.4c0.2,0.1,0.3,0.1,0.5,0.1c0.2,0,0.4,0,0.5-0.1c0.2-0.1,0.3-0.2,0.4-0.4c0.1-0.2,0.1-0.4,0.1-0.6
						C76.5,85,76.4,84.8,76.4,84.6z"/>
					<path class="st9" d="M77.9,83.1c-0.1-0.1-0.1-0.1-0.1-0.2c0-0.1,0-0.2,0.1-0.2c0.1-0.1,0.1-0.1,0.2-0.1c0.1,0,0.2,0,0.2,0.1
						c0.1,0.1,0.1,0.1,0.1,0.2c0,0.1,0,0.2-0.1,0.2c-0.1,0.1-0.1,0.1-0.2,0.1C78,83.2,77.9,83.2,77.9,83.1z M78.4,83.7v3h-0.5v-3
						H78.4z"/>
					<path class="st9" d="M81.6,84c0.2,0.2,0.3,0.5,0.3,1v1.8h-0.5V85c0-0.3-0.1-0.5-0.2-0.7c-0.2-0.2-0.4-0.2-0.6-0.2
						c-0.3,0-0.5,0.1-0.6,0.2c-0.2,0.2-0.2,0.4-0.2,0.7v1.7h-0.5v-3h0.5v0.4c0.1-0.2,0.2-0.3,0.4-0.4c0.2-0.1,0.4-0.1,0.6-0.1
						C81.1,83.7,81.4,83.8,81.6,84z"/>
					<path class="st9" d="M83.4,84.1v1.8c0,0.1,0,0.3,0.1,0.3c0.1,0.1,0.2,0.1,0.3,0.1h0.4v0.4h-0.5c-0.3,0-0.5-0.1-0.6-0.2
						c-0.1-0.1-0.2-0.3-0.2-0.6v-1.8h-0.4v-0.4h0.4v-0.8h0.5v0.8h0.8v0.4H83.4z"/>
					<path class="st9" d="M84.8,83.1c-0.1-0.1-0.1-0.1-0.1-0.2c0-0.1,0-0.2,0.1-0.2c0.1-0.1,0.1-0.1,0.2-0.1c0.1,0,0.2,0,0.2,0.1
						c0.1,0.1,0.1,0.1,0.1,0.2c0,0.1,0,0.2-0.1,0.2c-0.1,0.1-0.1,0.1-0.2,0.1C85,83.2,84.9,83.2,84.8,83.1z M85.3,83.7v3h-0.5v-3
						H85.3z"/>
					<path class="st9" d="M88.5,84c0.2,0.2,0.3,0.5,0.3,1v1.8h-0.5V85c0-0.3-0.1-0.5-0.2-0.7c-0.2-0.2-0.4-0.2-0.6-0.2
						c-0.3,0-0.5,0.1-0.6,0.2c-0.2,0.2-0.2,0.4-0.2,0.7v1.7h-0.5v-3h0.5v0.4c0.1-0.2,0.2-0.3,0.4-0.4c0.2-0.1,0.4-0.1,0.6-0.1
						C88,83.7,88.3,83.8,88.5,84z"/>
					<path class="st9" d="M91.6,83.8c0.2,0.1,0.3,0.3,0.4,0.4v-0.6h0.5v3.1c0,0.3-0.1,0.5-0.2,0.7c-0.1,0.2-0.3,0.4-0.5,0.5
						c-0.2,0.1-0.5,0.2-0.8,0.2c-0.4,0-0.7-0.1-1-0.3c-0.3-0.2-0.4-0.4-0.5-0.8h0.5c0.1,0.2,0.2,0.3,0.3,0.4
						c0.2,0.1,0.4,0.2,0.6,0.2c0.3,0,0.5-0.1,0.7-0.3c0.2-0.2,0.3-0.4,0.3-0.7v-0.6c-0.1,0.2-0.2,0.3-0.4,0.4
						c-0.2,0.1-0.4,0.2-0.7,0.2c-0.3,0-0.5-0.1-0.7-0.2c-0.2-0.1-0.4-0.3-0.5-0.6s-0.2-0.5-0.2-0.8c0-0.3,0.1-0.6,0.2-0.8
						s0.3-0.4,0.5-0.5c0.2-0.1,0.5-0.2,0.7-0.2C91.2,83.7,91.4,83.7,91.6,83.8z M91.9,84.6c-0.1-0.2-0.2-0.3-0.4-0.4
						c-0.2-0.1-0.3-0.1-0.5-0.1c-0.2,0-0.4,0-0.5,0.1c-0.2,0.1-0.3,0.2-0.4,0.4C90.1,84.8,90,85,90,85.2c0,0.2,0,0.4,0.1,0.6
						c0.1,0.2,0.2,0.3,0.4,0.4c0.2,0.1,0.3,0.1,0.5,0.1c0.2,0,0.4,0,0.5-0.1c0.2-0.1,0.3-0.2,0.4-0.4c0.1-0.2,0.1-0.4,0.1-0.6
						C92.1,85,92,84.8,91.9,84.6z"/>
					<path class="st9" d="M93.4,86.7c-0.1-0.1-0.1-0.1-0.1-0.2c0-0.1,0-0.2,0.1-0.2c0.1-0.1,0.1-0.1,0.2-0.1c0.1,0,0.2,0,0.2,0.1
						c0.1,0.1,0.1,0.1,0.1,0.2c0,0.1,0,0.2-0.1,0.2c-0.1,0.1-0.1,0.1-0.2,0.1C93.5,86.8,93.4,86.8,93.4,86.7z"/>
					<path class="st9" d="M94.6,84.4c0.1-0.2,0.3-0.4,0.5-0.5s0.5-0.2,0.8-0.2c0.4,0,0.7,0.1,0.9,0.3c0.2,0.2,0.4,0.4,0.5,0.8h-0.5
						c-0.1-0.2-0.2-0.3-0.3-0.4c-0.1-0.1-0.3-0.2-0.6-0.2c-0.3,0-0.5,0.1-0.7,0.3c-0.2,0.2-0.3,0.5-0.3,0.8c0,0.4,0.1,0.6,0.3,0.8
						c0.2,0.2,0.4,0.3,0.7,0.3c0.2,0,0.4-0.1,0.6-0.2c0.1-0.1,0.2-0.3,0.3-0.4h0.5c-0.1,0.3-0.2,0.6-0.5,0.7
						c-0.2,0.2-0.5,0.3-0.9,0.3c-0.3,0-0.5-0.1-0.8-0.2s-0.4-0.3-0.5-0.5c-0.1-0.2-0.2-0.5-0.2-0.8C94.4,84.9,94.5,84.6,94.6,84.4z"
						/>
					<path class="st9" d="M98.5,86.6c-0.2-0.1-0.4-0.3-0.5-0.6c-0.1-0.2-0.2-0.5-0.2-0.8c0-0.3,0.1-0.6,0.2-0.8
						c0.1-0.2,0.3-0.4,0.6-0.5c0.2-0.1,0.5-0.2,0.8-0.2c0.3,0,0.5,0.1,0.8,0.2c0.2,0.1,0.4,0.3,0.6,0.5c0.1,0.2,0.2,0.5,0.2,0.8
						c0,0.3-0.1,0.6-0.2,0.8c-0.1,0.2-0.3,0.4-0.6,0.6c-0.2,0.1-0.5,0.2-0.8,0.2C99,86.8,98.8,86.7,98.5,86.6z M99.8,86.2
						c0.2-0.1,0.3-0.2,0.4-0.4s0.1-0.4,0.1-0.6c0-0.2,0-0.5-0.1-0.6c-0.1-0.2-0.2-0.3-0.4-0.4c-0.2-0.1-0.3-0.1-0.5-0.1
						c-0.2,0-0.4,0-0.5,0.1c-0.2,0.1-0.3,0.2-0.4,0.4c-0.1,0.2-0.1,0.4-0.1,0.6c0,0.2,0,0.5,0.1,0.6c0.1,0.2,0.2,0.3,0.4,0.4
						c0.2,0.1,0.3,0.1,0.5,0.1C99.5,86.4,99.7,86.3,99.8,86.2z"/>
					<path class="st9" d="M105.8,83.8c0.2,0.1,0.3,0.2,0.4,0.4c0.1,0.2,0.2,0.4,0.2,0.7v1.8h-0.5V85c0-0.3-0.1-0.5-0.2-0.7
						c-0.1-0.2-0.4-0.2-0.6-0.2c-0.3,0-0.5,0.1-0.6,0.3c-0.2,0.2-0.2,0.4-0.2,0.7v1.7h-0.5V85c0-0.3-0.1-0.5-0.2-0.7
						c-0.1-0.2-0.4-0.2-0.6-0.2c-0.3,0-0.5,0.1-0.6,0.3c-0.2,0.2-0.2,0.4-0.2,0.7v1.7h-0.5v-3h0.5v0.4c0.1-0.2,0.2-0.3,0.4-0.4
						c0.2-0.1,0.4-0.1,0.6-0.1c0.3,0,0.5,0.1,0.7,0.2c0.2,0.1,0.3,0.3,0.4,0.5c0.1-0.2,0.2-0.4,0.4-0.5c0.2-0.1,0.4-0.2,0.7-0.2
						C105.4,83.7,105.6,83.7,105.8,83.8z"/>
				</g>
				<g>
					<path class="st4" d="M16.9,113.3c-1.9,0-3.5,1.6-3.5,3.6c0,2.8,3.2,5.7,3.3,5.8c0.1,0,0.1,0.1,0.2,0.1s0.1,0,0.2-0.1
						c0.1-0.1,3.3-3,3.3-5.8C20.5,114.9,18.9,113.3,16.9,113.3L16.9,113.3z M16.9,118.8c-1.1,0-2-0.9-2-2c0-1.1,0.9-2,2-2s2,0.9,2,2
						C18.9,117.9,18,118.8,16.9,118.8z"/>
					<g>
						<g>
							<path class="st4" d="M21.4,71.3L20.1,70c-0.5-0.5-1.3-0.3-1.5,0.3c-0.1,0.4-0.6,0.7-1,0.6c-0.9-0.2-2.2-1.5-2.4-2.4
								c-0.1-0.4,0.1-0.9,0.6-1c0.6-0.2,0.8-1,0.3-1.5l-1.3-1.3c-0.4-0.3-0.9-0.3-1.3,0l-0.9,0.9c-0.9,0.9,0.1,3.4,2.3,5.7
								c2.2,2.2,4.7,3.3,5.7,2.3l0.9-0.9C21.7,72.2,21.7,71.7,21.4,71.3z"/>
						</g>
					</g>
					<g>
						<g>
							<path class="st4" d="M20.3,98.3c-0.9-0.9-2.1-1.4-3.3-1.4s-2.4,0.5-3.3,1.4c-0.9,0.9-1.4,2.1-1.4,3.3s0.5,2.4,1.4,3.3
								c0.9,0.9,2.1,1.4,3.3,1.4c1.3,0,2.4-0.5,3.3-1.4c0.9-0.9,1.4-2.1,1.4-3.3C21.6,100.3,21.1,99.2,20.3,98.3z M14,98.7
								c0.4-0.4,0.9-0.7,1.4-0.9c-0.1,0.2-0.3,0.4-0.4,0.6c-0.1,0.3-0.3,0.6-0.4,0.9c-0.4-0.1-0.7-0.1-1-0.2
								C13.8,98.9,13.9,98.8,14,98.7z M13.3,99.5c0.3,0.1,0.7,0.2,1.2,0.3c-0.1,0.5-0.2,1-0.2,1.6h-1.5C12.8,100.7,13,100,13.3,99.5
								z M13.3,103.7c-0.3-0.6-0.5-1.2-0.6-1.8h1.5c0,0.5,0.1,1.1,0.2,1.6C14.1,103.5,13.7,103.6,13.3,103.7z M14,104.5
								c-0.1-0.1-0.2-0.2-0.3-0.4c0.3-0.1,0.6-0.2,1-0.2c0.1,0.3,0.2,0.6,0.4,0.9c0.1,0.2,0.3,0.5,0.4,0.7
								C14.9,105.3,14.4,105,14,104.5z M16.6,105.7c-0.4-0.1-0.8-0.5-1.1-1.1c-0.1-0.2-0.2-0.4-0.3-0.7c0.5-0.1,0.9-0.1,1.4-0.1
								V105.7z M16.6,103.2c-0.6,0-1.1,0-1.6,0.1c-0.1-0.5-0.2-1-0.2-1.5h1.8L16.6,103.2L16.6,103.2z M16.6,101.3h-1.8
								c0-0.5,0.1-1,0.2-1.5c0.5,0.1,1,0.1,1.6,0.1V101.3z M16.6,99.4c-0.5,0-1,0-1.4-0.1c0.1-0.2,0.2-0.5,0.3-0.7
								c0.3-0.6,0.7-1,1.1-1.1L16.6,99.4L16.6,99.4z M20.5,99.5c0.3,0.6,0.5,1.2,0.6,1.8h-1.5c0-0.5-0.1-1.1-0.2-1.6
								C19.8,99.7,20.2,99.6,20.5,99.5z M19.9,98.7c0.1,0.1,0.2,0.2,0.3,0.3c-0.3,0.1-0.6,0.1-1,0.2c-0.1-0.3-0.2-0.6-0.4-0.9
								c-0.1-0.2-0.3-0.4-0.4-0.6C19,97.9,19.4,98.2,19.9,98.7z M17.2,101.9H19c0,0.5-0.1,1-0.2,1.5c-0.5-0.1-1-0.1-1.6-0.1V101.9z
								 M17.2,101.3v-1.4c0.6,0,1.1,0,1.6-0.1c0.1,0.5,0.2,1,0.2,1.5L17.2,101.3L17.2,101.3z M17.2,97.5L17.2,97.5
								c0.4,0.1,0.8,0.5,1.1,1.1c0.1,0.2,0.2,0.4,0.3,0.7c-0.5,0-0.9,0.1-1.4,0.1V97.5z M17.2,105.7v-1.9c0.5,0,1,0,1.4,0.1
								c-0.1,0.2-0.2,0.5-0.3,0.7C18,105.2,17.6,105.6,17.2,105.7z M19.9,104.5c-0.4,0.4-0.9,0.7-1.5,1c0.2-0.2,0.3-0.4,0.4-0.7
								c0.1-0.3,0.3-0.6,0.4-0.9c0.4,0.1,0.7,0.1,1,0.2C20.1,104.3,20,104.4,19.9,104.5z M20.5,103.7c-0.3-0.1-0.7-0.2-1.2-0.3
								c0.1-0.5,0.2-1,0.2-1.6h1.5C21,102.5,20.8,103.2,20.5,103.7z"/>
						</g>
					</g>
					<g>
						<path class="st4" d="M17.7,86.5c-0.2,0.2-0.5,0.2-0.8,0.2c-0.3,0-0.6-0.1-0.8-0.2l-3.9-2.6c0,0,0,0-0.1,0v4.2
							c0,0.5,0.4,0.9,0.9,0.9h7.7c0.5,0,0.9-0.4,0.9-0.9v-4.2c0,0,0,0-0.1,0L17.7,86.5z"/>
						<path class="st4" d="M12.6,83.4l3.9,2.6c0.1,0.1,0.3,0.1,0.5,0.1c0.2,0,0.3,0,0.5-0.1l3.9-2.6c0.2-0.2,0.4-0.4,0.4-0.7
							c0-0.5-0.4-0.9-0.9-0.9h-7.7c-0.5,0-0.9,0.4-0.9,0.9C12.2,83,12.3,83.3,12.6,83.4z"/>
					</g>
				</g>
				<g>
					<path class="st9" d="M83.3,71.8h-0.5v-5h0.5V71.8z"/>
					<g>
						<g>
							<path class="st9" d="M38.2,70.9c-0.2-0.5-0.3-1.1-0.3-1.7c0-0.6,0.1-1.2,0.3-1.8c0.2-0.6,0.5-1,0.9-1.4h0.5v0
								c-0.4,0.4-0.7,0.9-0.9,1.4c-0.2,0.5-0.3,1.1-0.3,1.7c0,0.6,0.1,1.1,0.3,1.6c0.2,0.5,0.5,1,0.9,1.4v0.1h-0.5
								C38.7,71.9,38.4,71.4,38.2,70.9z"/>
							<path class="st9" d="M41.1,70.6c0.1,0.1,0.3,0.2,0.5,0.2c0.3,0,0.5-0.1,0.7-0.4s0.2-0.6,0.2-1.2c-0.1,0.2-0.2,0.3-0.4,0.4
								c-0.2,0.1-0.4,0.1-0.6,0.1c-0.2,0-0.5-0.1-0.7-0.2c-0.2-0.1-0.3-0.3-0.5-0.4c-0.1-0.2-0.2-0.4-0.2-0.7c0-0.4,0.1-0.7,0.3-1
								c0.2-0.2,0.6-0.4,1-0.4c0.5,0,0.9,0.2,1.1,0.5c0.2,0.3,0.3,0.8,0.3,1.5c0,0.5,0,0.9-0.1,1.2c-0.1,0.3-0.2,0.5-0.4,0.7
								c-0.2,0.2-0.5,0.2-0.8,0.2c-0.4,0-0.7-0.1-0.9-0.3c-0.2-0.2-0.3-0.5-0.4-0.8h0.5C40.9,70.3,41,70.5,41.1,70.6z M42.2,69.1
								c0.2-0.2,0.2-0.4,0.2-0.6c0-0.3-0.1-0.5-0.2-0.7s-0.4-0.3-0.7-0.3c-0.3,0-0.5,0.1-0.6,0.2c-0.2,0.2-0.2,0.4-0.2,0.6
								c0,0.3,0.1,0.5,0.2,0.6c0.2,0.2,0.4,0.2,0.7,0.2C41.9,69.3,42.1,69.2,42.2,69.1z"/>
							<path class="st9" d="M43.6,67.6v-0.5h1v4h-0.5v-3.5H43.6z"/>
							<path class="st9" d="M45.3,70.3v-0.4l1.9-2.7h0.6v2.6h0.6v0.4h-0.6v0.9h-0.5v-0.9H45.3z M47.4,67.7l-1.5,2.1h1.5V67.7z"/>
							<path class="st9" d="M48.9,72.2L48.9,72.2c0.4-0.4,0.7-0.9,0.9-1.4c0.2-0.5,0.3-1.1,0.3-1.6c0-0.6-0.1-1.2-0.3-1.7
								c-0.2-0.5-0.5-1-0.9-1.4v0h0.5c0.4,0.4,0.7,0.8,0.9,1.4c0.2,0.6,0.3,1.1,0.3,1.8c0,0.6-0.1,1.2-0.3,1.7
								c-0.2,0.5-0.5,1-0.8,1.3H48.9z"/>
							<path class="st9" d="M55.5,67.6h-1.9v1.3c0.1-0.1,0.2-0.2,0.4-0.3c0.2-0.1,0.3-0.1,0.5-0.1c0.3,0,0.6,0.1,0.7,0.2
								c0.2,0.1,0.3,0.3,0.4,0.5c0.1,0.2,0.1,0.4,0.1,0.6c0,0.3,0,0.5-0.1,0.7c-0.1,0.2-0.3,0.4-0.5,0.5c-0.2,0.1-0.5,0.2-0.8,0.2
								c-0.4,0-0.7-0.1-0.9-0.3c-0.2-0.2-0.4-0.5-0.4-0.8h0.5c0,0.2,0.1,0.4,0.3,0.5c0.2,0.1,0.4,0.2,0.6,0.2c0.3,0,0.5-0.1,0.7-0.3
								c0.1-0.2,0.2-0.4,0.2-0.7c0-0.3-0.1-0.5-0.2-0.7c-0.1-0.2-0.4-0.2-0.7-0.2c-0.2,0-0.4,0-0.5,0.1c-0.1,0.1-0.3,0.2-0.3,0.4
								h-0.5v-2.3h2.4V67.6z"/>
							<path class="st9" d="M56.7,67.6c0.2-0.4,0.6-0.5,1.1-0.5c0.5,0,0.9,0.2,1.1,0.5c0.2,0.4,0.3,0.9,0.3,1.5
								c0,0.6-0.1,1.2-0.3,1.5c-0.2,0.4-0.6,0.5-1.1,0.5c-0.5,0-0.9-0.2-1.1-0.5c-0.2-0.4-0.3-0.9-0.3-1.5
								C56.4,68.5,56.5,68,56.7,67.6z M58.7,68.3c0-0.2-0.1-0.4-0.3-0.5c-0.1-0.1-0.3-0.2-0.6-0.2c-0.3,0-0.4,0.1-0.6,0.2
								c-0.1,0.1-0.2,0.3-0.3,0.5c0,0.2-0.1,0.5-0.1,0.8c0,0.3,0,0.6,0.1,0.8c0,0.2,0.1,0.4,0.3,0.5c0.1,0.1,0.3,0.2,0.6,0.2
								c0.2,0,0.4-0.1,0.6-0.2c0.1-0.1,0.2-0.3,0.3-0.5c0-0.2,0.1-0.5,0.1-0.8C58.7,68.8,58.7,68.5,58.7,68.3z"/>
							<path class="st9" d="M60.2,67.6c0.2-0.4,0.6-0.5,1.1-0.5c0.5,0,0.9,0.2,1.1,0.5c0.2,0.4,0.3,0.9,0.3,1.5
								c0,0.6-0.1,1.2-0.3,1.5c-0.2,0.4-0.6,0.5-1.1,0.5c-0.5,0-0.9-0.2-1.1-0.5c-0.2-0.4-0.3-0.9-0.3-1.5
								C59.9,68.5,60,68,60.2,67.6z M62.1,68.3c0-0.2-0.1-0.4-0.3-0.5c-0.1-0.1-0.3-0.2-0.6-0.2c-0.3,0-0.4,0.1-0.6,0.2
								c-0.1,0.1-0.2,0.3-0.3,0.5c0,0.2-0.1,0.5-0.1,0.8c0,0.3,0,0.6,0.1,0.8c0,0.2,0.1,0.4,0.3,0.5c0.1,0.1,0.3,0.2,0.6,0.2
								c0.2,0,0.4-0.1,0.6-0.2c0.1-0.1,0.2-0.3,0.3-0.5c0-0.2,0.1-0.5,0.1-0.8C62.2,68.8,62.2,68.5,62.1,68.3z"/>
							<path class="st9" d="M65.6,68.9v0.4h-2.2v-0.4H65.6z"/>
							<path class="st9" d="M66.3,67.6v-0.5h1v4h-0.5v-3.5H66.3z"/>
							<path class="st9" d="M70.7,67.6l-1.5,3.6h-0.5l1.6-3.6h-2.1v-0.4h2.6V67.6z"/>
							<path class="st9" d="M73.7,67.6l-1.5,3.6h-0.5l1.6-3.6h-2.1v-0.4h2.6V67.6z"/>
							<path class="st9" d="M75.8,67.5c-0.3,0-0.6,0.1-0.7,0.4c-0.2,0.3-0.2,0.7-0.2,1.3c0.1-0.2,0.2-0.3,0.4-0.5
								c0.2-0.1,0.4-0.2,0.7-0.2c0.4,0,0.7,0.1,0.9,0.4c0.2,0.2,0.3,0.6,0.3,1c0,0.3,0,0.5-0.1,0.7c-0.1,0.2-0.2,0.4-0.4,0.5
								c-0.2,0.1-0.4,0.2-0.7,0.2c-0.4,0-0.7-0.1-0.9-0.3c-0.2-0.2-0.4-0.4-0.4-0.7c-0.1-0.3-0.1-0.7-0.1-1.1c0-1.4,0.5-2,1.4-2
								c0.4,0,0.6,0.1,0.9,0.3c0.2,0.2,0.3,0.4,0.4,0.7h-0.5C76.4,67.7,76.2,67.5,75.8,67.5z M75.3,69c-0.1,0.1-0.3,0.2-0.3,0.3
								c-0.1,0.1-0.1,0.3-0.1,0.5c0,0.3,0.1,0.5,0.2,0.7c0.2,0.2,0.4,0.3,0.7,0.3c0.3,0,0.5-0.1,0.6-0.2c0.2-0.2,0.2-0.4,0.2-0.7
								c0-0.3-0.1-0.5-0.2-0.7s-0.4-0.2-0.6-0.2C75.6,68.9,75.5,69,75.3,69z"/>
						</g>
						<text transform="matrix(1 0 0 1 29.2058 71.1904)" class="st10 st11">D:</text>
					</g>
					<g>
						<g>
							<path class="st9" d="M97.5,70.9c-0.2-0.5-0.3-1.1-0.3-1.7c0-0.6,0.1-1.2,0.3-1.8c0.2-0.6,0.5-1,0.9-1.4H99v0
								c-0.4,0.4-0.7,0.9-0.9,1.4c-0.2,0.5-0.3,1.1-0.3,1.7c0,0.6,0.1,1.1,0.3,1.6c0.2,0.5,0.5,1,0.9,1.4v0.1h-0.5
								C98,71.9,97.7,71.5,97.5,70.9z"/>
							<path class="st9" d="M100.4,70.6c0.1,0.1,0.3,0.2,0.5,0.2c0.3,0,0.5-0.1,0.7-0.4c0.1-0.2,0.2-0.6,0.2-1.2
								c-0.1,0.2-0.2,0.3-0.4,0.4c-0.2,0.1-0.4,0.1-0.6,0.1c-0.2,0-0.5-0.1-0.7-0.2c-0.2-0.1-0.3-0.3-0.5-0.4
								c-0.1-0.2-0.2-0.4-0.2-0.7c0-0.4,0.1-0.7,0.3-1c0.2-0.2,0.6-0.4,1-0.4c0.5,0,0.9,0.2,1.1,0.5c0.2,0.3,0.3,0.8,0.3,1.5
								c0,0.5,0,0.9-0.1,1.2c-0.1,0.3-0.2,0.5-0.4,0.7c-0.2,0.2-0.5,0.2-0.8,0.2c-0.4,0-0.7-0.1-0.9-0.3c-0.2-0.2-0.3-0.5-0.4-0.8
								h0.5C100.2,70.4,100.3,70.5,100.4,70.6z M101.5,69.1c0.2-0.2,0.2-0.4,0.2-0.6c0-0.3-0.1-0.5-0.2-0.7
								c-0.2-0.2-0.4-0.3-0.7-0.3c-0.3,0-0.5,0.1-0.6,0.2c-0.2,0.2-0.2,0.4-0.2,0.6c0,0.3,0.1,0.5,0.2,0.6c0.2,0.2,0.4,0.2,0.7,0.2
								C101.2,69.3,101.4,69.3,101.5,69.1z"/>
							<path class="st9" d="M102.8,67.7v-0.5h1v4h-0.5v-3.5H102.8z"/>
							<path class="st9" d="M104.6,70.3V70l1.9-2.7h0.6v2.6h0.6v0.4h-0.6v0.9h-0.5v-0.9H104.6z M106.7,67.8l-1.5,2.1h1.5V67.8z"/>
							<path class="st9" d="M108.2,72.3L108.2,72.3c0.4-0.4,0.7-0.9,0.9-1.4c0.2-0.5,0.3-1.1,0.3-1.6c0-0.6-0.1-1.2-0.3-1.7
								c-0.2-0.5-0.5-1-0.9-1.4v0h0.5c0.4,0.4,0.7,0.8,0.9,1.4c0.2,0.6,0.3,1.1,0.3,1.8c0,0.6-0.1,1.2-0.3,1.7
								c-0.2,0.5-0.5,1-0.8,1.3H108.2z"/>
							<path class="st9" d="M114.7,67.6l-1.5,3.6h-0.5l1.6-3.6h-2.1v-0.4h2.6V67.6z"/>
							<path class="st9" d="M115.6,67.4c0.2-0.2,0.5-0.3,0.9-0.3c0.3,0,0.5,0,0.7,0.1c0.2,0.1,0.3,0.2,0.4,0.4
								c0.1,0.2,0.1,0.3,0.1,0.5c0,0.2-0.1,0.4-0.2,0.6c-0.1,0.2-0.3,0.3-0.5,0.3v0c0.2,0.1,0.4,0.2,0.6,0.3
								c0.1,0.2,0.2,0.4,0.2,0.7c0,0.2,0,0.4-0.1,0.6c-0.1,0.2-0.2,0.3-0.4,0.4c-0.2,0.1-0.4,0.1-0.7,0.1c-0.4,0-0.7-0.1-1-0.3
								c-0.3-0.2-0.4-0.5-0.4-0.9h0.5c0,0.2,0.1,0.4,0.3,0.5c0.2,0.1,0.4,0.2,0.6,0.2c0.3,0,0.5-0.1,0.6-0.2
								c0.1-0.1,0.2-0.3,0.2-0.5c0-0.3-0.1-0.5-0.3-0.6c-0.2-0.1-0.5-0.2-0.8-0.2h-0.1v-0.4h0.1c0.3,0,0.6-0.1,0.8-0.2
								c0.2-0.1,0.3-0.3,0.3-0.5c0-0.2-0.1-0.4-0.2-0.5c-0.1-0.1-0.3-0.2-0.5-0.2c-0.2,0-0.4,0.1-0.6,0.2c-0.1,0.1-0.2,0.3-0.2,0.5
								h-0.5C115.3,67.9,115.4,67.6,115.6,67.4z"/>
							<path class="st9" d="M118.8,68.8c-0.1-0.2-0.2-0.3-0.2-0.6c0-0.2,0.1-0.4,0.1-0.5c0.1-0.2,0.2-0.3,0.4-0.4
								c0.2-0.1,0.4-0.1,0.7-0.1s0.5,0,0.7,0.1c0.2,0.1,0.3,0.2,0.4,0.4s0.2,0.3,0.2,0.5c0,0.2-0.1,0.4-0.2,0.6
								c-0.1,0.2-0.3,0.3-0.5,0.4c0.2,0.1,0.4,0.2,0.5,0.4c0.1,0.2,0.2,0.4,0.2,0.6c0,0.2-0.1,0.4-0.2,0.6c-0.1,0.2-0.3,0.3-0.5,0.4
								c-0.2,0.1-0.5,0.1-0.7,0.1s-0.5,0-0.7-0.1c-0.2-0.1-0.4-0.2-0.5-0.4c-0.1-0.2-0.2-0.4-0.2-0.6c0-0.2,0.1-0.5,0.2-0.6
								s0.3-0.3,0.5-0.4C119.1,69.1,118.9,68.9,118.8,68.8z M119.3,69.6c-0.2,0.1-0.3,0.3-0.3,0.6c0,0.2,0.1,0.4,0.3,0.6
								c0.2,0.1,0.4,0.2,0.7,0.2s0.5-0.1,0.7-0.2c0.2-0.1,0.2-0.3,0.2-0.6c0-0.2-0.1-0.4-0.3-0.6c-0.2-0.1-0.4-0.2-0.7-0.2
								C119.7,69.4,119.4,69.4,119.3,69.6z M120.5,67.8c-0.1-0.1-0.4-0.2-0.6-0.2c-0.3,0-0.5,0.1-0.6,0.2c-0.1,0.1-0.2,0.3-0.2,0.5
								c0,0.2,0.1,0.4,0.2,0.5c0.2,0.1,0.4,0.2,0.6,0.2c0.2,0,0.4-0.1,0.6-0.2c0.2-0.1,0.2-0.3,0.2-0.5
								C120.8,68.1,120.7,67.9,120.5,67.8z"/>
							<path class="st9" d="M124.2,69v0.4H122V69H124.2z"/>
							<path class="st9" d="M126.1,69.9c0.3-0.2,0.5-0.5,0.7-0.8c0.2-0.3,0.3-0.5,0.3-0.8c0-0.2-0.1-0.4-0.2-0.6
								c-0.1-0.1-0.3-0.2-0.6-0.2c-0.3,0-0.4,0.1-0.6,0.2s-0.2,0.4-0.2,0.6H125c0-0.4,0.1-0.7,0.4-1c0.2-0.2,0.5-0.3,0.9-0.3
								c0.4,0,0.7,0.1,0.9,0.3c0.2,0.2,0.3,0.5,0.3,0.9c0,0.3-0.1,0.6-0.3,0.9c-0.2,0.3-0.4,0.5-0.6,0.8c-0.2,0.2-0.5,0.5-0.9,0.8
								h1.9v0.4H125v-0.4C125.5,70.5,125.9,70.1,126.1,69.9z"/>
							<path class="st9" d="M128.5,68.8c-0.1-0.2-0.2-0.3-0.2-0.6c0-0.2,0.1-0.4,0.1-0.5c0.1-0.2,0.2-0.3,0.4-0.4
								c0.2-0.1,0.4-0.1,0.7-0.1c0.3,0,0.5,0,0.7,0.1c0.2,0.1,0.3,0.2,0.4,0.4c0.1,0.2,0.2,0.3,0.2,0.5c0,0.2-0.1,0.4-0.2,0.6
								c-0.1,0.2-0.3,0.3-0.5,0.4c0.2,0.1,0.4,0.2,0.5,0.4s0.2,0.4,0.2,0.6c0,0.2-0.1,0.4-0.2,0.6c-0.1,0.2-0.3,0.3-0.5,0.4
								c-0.2,0.1-0.5,0.1-0.7,0.1c-0.3,0-0.5,0-0.7-0.1c-0.2-0.1-0.4-0.2-0.5-0.4c-0.1-0.2-0.2-0.4-0.2-0.6c0-0.2,0.1-0.5,0.2-0.6
								c0.1-0.2,0.3-0.3,0.5-0.4C128.8,69.1,128.6,68.9,128.5,68.8z M129,69.6c-0.2,0.1-0.3,0.3-0.3,0.6c0,0.2,0.1,0.4,0.3,0.6
								c0.2,0.1,0.4,0.2,0.7,0.2c0.3,0,0.5-0.1,0.7-0.2c0.2-0.1,0.2-0.3,0.2-0.6c0-0.2-0.1-0.4-0.3-0.6c-0.2-0.1-0.4-0.2-0.7-0.2
								C129.4,69.4,129.2,69.4,129,69.6z M130.3,67.8c-0.1-0.1-0.4-0.2-0.6-0.2c-0.3,0-0.5,0.1-0.6,0.2c-0.1,0.1-0.2,0.3-0.2,0.5
								c0,0.2,0.1,0.4,0.2,0.5c0.2,0.1,0.4,0.2,0.6,0.2c0.2,0,0.4-0.1,0.6-0.2c0.2-0.1,0.2-0.3,0.2-0.5
								C130.5,68.1,130.4,67.9,130.3,67.8z"/>
							<path class="st9" d="M133.2,67.6c-0.3,0-0.6,0.1-0.7,0.4c-0.2,0.3-0.2,0.7-0.2,1.3c0.1-0.2,0.2-0.3,0.4-0.5
								c0.2-0.1,0.4-0.2,0.7-0.2c0.4,0,0.7,0.1,0.9,0.4c0.2,0.2,0.3,0.6,0.3,1c0,0.3,0,0.5-0.1,0.7c-0.1,0.2-0.2,0.4-0.4,0.5
								c-0.2,0.1-0.4,0.2-0.7,0.2c-0.4,0-0.7-0.1-0.9-0.3c-0.2-0.2-0.4-0.4-0.4-0.7s-0.1-0.7-0.1-1.1c0-1.4,0.5-2,1.4-2
								c0.4,0,0.6,0.1,0.9,0.3c0.2,0.2,0.3,0.4,0.4,0.7H134C133.9,67.8,133.7,67.6,133.2,67.6z M132.8,69.1
								c-0.1,0.1-0.3,0.2-0.3,0.3c-0.1,0.1-0.1,0.3-0.1,0.5c0,0.3,0.1,0.5,0.2,0.7c0.2,0.2,0.4,0.3,0.7,0.3c0.3,0,0.5-0.1,0.6-0.2
								c0.2-0.2,0.2-0.4,0.2-0.7c0-0.3-0.1-0.5-0.2-0.7c-0.1-0.2-0.4-0.2-0.6-0.2C133.1,69,132.9,69,132.8,69.1z"/>
							<path class="st9" d="M135.6,67.7c0.2-0.4,0.6-0.5,1.1-0.5c0.5,0,0.9,0.2,1.1,0.5c0.2,0.4,0.3,0.9,0.3,1.5
								c0,0.6-0.1,1.2-0.3,1.5c-0.2,0.4-0.6,0.5-1.1,0.5c-0.5,0-0.9-0.2-1.1-0.5c-0.2-0.4-0.3-0.9-0.3-1.5
								C135.3,68.6,135.4,68.1,135.6,67.7z M137.5,68.4c0-0.2-0.1-0.4-0.3-0.5c-0.1-0.1-0.3-0.2-0.6-0.2c-0.3,0-0.4,0.1-0.6,0.2
								c-0.1,0.1-0.2,0.3-0.3,0.5c0,0.2-0.1,0.5-0.1,0.8c0,0.3,0,0.6,0.1,0.8c0,0.2,0.1,0.4,0.3,0.5c0.1,0.1,0.3,0.2,0.6,0.2
								c0.2,0,0.4-0.1,0.6-0.2c0.1-0.1,0.2-0.3,0.3-0.5c0-0.2,0.1-0.5,0.1-0.8C137.6,68.9,137.6,68.6,137.5,68.4z"/>
						</g>
						<text transform="matrix(1 0 0 1 87.9675 71.1904)" class="st10 st11">O:</text>
					</g>
				</g>
			</g>
		</g>
	</g>
</g>
</svg>
