<?xml version="1.0" encoding="utf-8"?>
<!-- Generator: Adobe Illustrator 28.3.0, SVG Export Plug-In . SVG Version: 6.00 Build 0)  -->
<svg version="1.1" id="Layer_1" xmlns="http://www.w3.org/2000/svg" xmlns:xlink="http://www.w3.org/1999/xlink" x="0px" y="0px"
	 viewBox="0 0 252 144" style="enable-background:new 0 0 252 144;" xml:space="preserve">
<style type="text/css">
	.st0{clip-path:url(#SVGID_00000182529594743266275270000004263317841218864268_);}
	.st1{fill:#F9F8F2;}
	.st2{opacity:0.1;}
	.st3{opacity:0.3;fill:url(#SVGID_00000110437671950374096760000007996339093124311689_);}
	.st4{fill:#0764B0;}
	.st5{fill:#0C64AF;}
	.st6{fill:none;stroke:#0C64AF;stroke-width:2;stroke-miterlimit:10;}
	.st7{fill:#202020;}
	.st8{clip-path:url(#SVGID_00000024690405566440748880000018179990706983188380_);}
	.st9{opacity:0.3;fill:url(#SVGID_00000112596403426894724740000005082044875007581063_);}
	.st10{opacity:0.3;fill:url(#SVGID_00000052102080307342884670000005167945421611433111_);}
	.st11{font-family:'Poppins-Regular';}
	.st12{font-size:4.7866px;}
</style>
<g>
	<defs>
		<rect id="SVGID_00000095310401398920955880000005550692208995205520_" width="252" height="144"/>
	</defs>
	<clipPath id="SVGID_00000075859383596618984100000000679139589945639853_">
		<use xlink:href="#SVGID_00000095310401398920955880000005550692208995205520_"  style="overflow:visible;"/>
	</clipPath>
	<g style="clip-path:url(#SVGID_00000075859383596618984100000000679139589945639853_);">
		<rect x="-3.6" y="-5.6" class="st1" width="259.2" height="155.2"/>
		<g class="st2">
			<g>
				
					<linearGradient id="SVGID_00000135656041890792359980000017843041540985304480_" gradientUnits="userSpaceOnUse" x1="126" y1="202.2926" x2="126" y2="179.3544" gradientTransform="matrix(1 0 0 -1 0 324.5995)">
					<stop  offset="0" style="stop-color:#FFFFFF;stop-opacity:0"/>
					<stop  offset="1" style="stop-color:#202020"/>
				</linearGradient>
				
					<rect x="-9.1" y="122.3" style="opacity:0.3;fill:url(#SVGID_00000135656041890792359980000017843041540985304480_);" width="270.2" height="22.9"/>
			</g>
			<g>
				
					<linearGradient id="SVGID_00000169548672589833719940000009600097784175134344_" gradientUnits="userSpaceOnUse" x1="126" y1="197.8938" x2="126" y2="174.9557" gradientTransform="matrix(1 0 0 1 0 -176.2008)">
					<stop  offset="0" style="stop-color:#FFFFFF;stop-opacity:0"/>
					<stop  offset="1" style="stop-color:#202020"/>
				</linearGradient>
				
					<rect x="-9.1" y="-1.2" style="opacity:0.3;fill:url(#SVGID_00000169548672589833719940000009600097784175134344_);" width="270.2" height="22.9"/>
			</g>
		</g>
		<text transform="matrix(1 0 0 1 67.7791 132.7581)" class="st7 st11 st12">Painting With Pride &amp; Passion Since 1906</text>
		<g>
			<g>
				<g>
					<g>
						<path class="st5" d="M133.5,59.3c0.6,0.5,2.4,0.7,4.4,0.5c2.8-0.3,4.5-1.2,4.4-1.9c0-0.1-0.1-0.2-0.2-0.3
							c-0.5-0.4-1.5-0.6-2.8-0.6c-0.5,0-1.1,0-1.7,0.1c-2.8,0.3-4.5,1.2-4.4,1.9C133.3,59.1,133.4,59.2,133.5,59.3z M137.7,57.3
							c2.2-0.2,4,0,4.1,0.6c0.1,0.6-1.6,1.2-3.8,1.5c-2.2,0.2-4,0-4.1-0.6C133.8,58.2,135.5,57.6,137.7,57.3z M144.9,40.5
							c-0.3,0-0.5,0.1-0.6,0.4c-0.2,0.5-0.5,1-0.8,1.4c-0.8-0.7-1.9-1.4-3.6-1.4c-3.6,0-5.8,2.8-5.8,5.4c0,1.6,0.8,2.7,2.2,3.4
							c0.8,0.4,1.3,0.5,1.3,0.6c0,0.1-0.2,0.2-1.4,0.5c-0.9,0.3-1.3,0.5-1.5,0.6c-0.5,0.5-1.2,2.2-1.2,2.8c0,0.4,0.1,0.6,1,0.8
							c0.5,0.2,0.7,0.2,0.7,0.2c0,0.1-0.3,0.2-0.6,0.2c-0.2,0.1-0.3,0.1-0.5,0.1c-1.5-0.1-1.7-0.2-1.7-0.3c0-0.2,0.1-0.9,0.2-1.6
							l1.8-13.1c0.1-0.4,0.4-2.9,0.6-3.3c0.1-0.3,0.2-0.4,0.4-0.5c0.2-0.1,0.2-0.3,0.2-0.4c-0.1-0.2-0.3-0.3-0.4-0.2
							c-2.9,1-3.2,1.4-3.6,1.8c-0.5,0.5-2.5,3.3-3,3.9l-1.8,2.3c-3.4,4.3-8.8,11.6-15.2,11.6c-2.5,0-4.2-1.3-4.2-3
							c0-1.2,0.8-2.1,1.9-2.1c1.8,0,0.6,1.6,2.4,1.6c0.6,0,0.8-0.1,0.8-0.6c0-0.8-0.7-2.2-2.5-2.2c-1.8,0-3.4,1.5-3.4,3.4
							c0,2.4,2.5,3.8,5.4,3.8c0.5,0,0.9-0.1,1.4-0.1c-3,1.6-3.3,3.8-3.3,4.6c0,1.8,1.3,2.8,2.8,2.8c2.1,0,3.2-1.7,3.2-2.3
							c0-0.4-0.5-0.4-0.8-0.4c-1.5,0-1,1.7-2.7,1.7c-0.9,0-1.8-0.6-1.8-1.8c0-3.7,5.5-4.8,7.1-4.8c0.7,0,0.9,0.3,1,1.1l1.9,17
							c0.1,0.5,0.1,1.1,0.5,1.1c0.3,0,2-2.3,2.1-2.4c1.1-1.3,6-9.4,7.1-11.1h0.1l1.5,12.4c0.1,0.5,0.1,1.2,0.5,1.1
							c0.3-0.1,1.9-2.2,2.1-2.4c0,0,0.1-0.1,0.2-0.2c0.4,0.1,1.6,0.5,3.2,0.5c1.5,0,3.5-0.3,5.6-1.5c0.1-0.1,0.2-0.1,0.2-0.2
							c0.1-0.1,0.1-0.2,0.1-0.3L143,61l0,0c0.9-1.5,1.3-2.7,1.3-3.9c0-0.1,0-0.2,0-0.2c0,0,0-0.1,0-0.1c0-2.7-2.3-3-6.7-3.5
							c-2.4-0.3-2.6-0.3-2.6-0.7c0-0.2,0.2-0.9,0.6-1c2.2-0.8,2.9-1,4.8-1.4c3-0.7,4.4-3,4.4-5.3c0-0.9-0.2-1.3-0.4-1.8
							c0.3-0.4,0.7-0.9,1.1-1.9C145.5,40.9,145.3,40.6,144.9,40.5z M125.6,46.8l5.7-7.6c0.2-0.2,0.2-0.3,0.3-0.3
							c0.1,0,0.1,0,0.1,0.1c0,0.1-0.1,0.5-0.1,0.9l-1,7c0,0.2,0,0.3-0.1,0.3c0,0-0.1,0-0.2,0h-4.5c-0.3,0-0.4,0-0.4-0.1
							C125.2,47.3,125.4,47.1,125.6,46.8z M124.1,70.6c-0.1,0.2-0.6,0.9-0.7,0.9c-0.1,0-0.1-0.1-0.1-0.3l-1.7-16.7
							c-0.8,0.1-2.6,0.2-4.5,0.7c2.9-1.6,5.4-4.2,7.2-6.5c0.3-0.4,0.4-0.4,1.4-0.4h4.3c0.2,0,0.3,0,0.3,0.2c0,0.1-0.1,0.6-0.1,1
							l-0.6,4.3c-0.1,0.4-0.2,1.6-0.4,1.7c-0.1,0.1-1.7,0.2-2.2,0.2v0.7c0.5,0,2.4-0.1,3.7-0.1c0.4,0,0.9,0,1.4,0
							C127.2,65.8,126.6,66.7,124.1,70.6z M134.6,70.9C134.6,70.9,134.6,70.9,134.6,70.9l-1.3-10.6c0.9,0.4,2,0.5,3.3,0.5
							c2.2,0,4.5-0.5,5.8-1.3c-0.5,1.3-1.4,3.4-4.5,7.5C137.5,67.7,134.9,70.9,134.6,70.9z M143.2,71.3c-3.6,2-6.9,1.3-8,1l4.6-6.6
							c0.9-1.3,1.7-2.4,2.3-3.4l0.2-0.3L143.2,71.3z M137.6,56.8c2.1-0.2,3.9,0,4.6,0.5c0.2,0.1,0.3,0.3,0.3,0.5
							c0.1,0.9-1.9,1.8-4.6,2.1c-0.6,0.1-1.1,0.1-1.7,0.1c-1.4,0-2.4-0.2-2.9-0.6c-0.2-0.1-0.3-0.3-0.3-0.5
							C133,58.1,134.9,57.2,137.6,56.8z M139.5,49.7c-0.7,0.3-1.4,0.1-2-0.4c-0.6-0.6-0.9-1.5-0.9-2.7c0-2.3,1.4-5.1,3.5-5.1
							c1.6,0,2.1,1.4,2.1,3C142.2,46.9,141.3,49,139.5,49.7z"/>
					</g>
				</g>
			</g>
			<g>
				<g>
					<path class="st5" d="M89.5,92.1c1.2,0.2,1.4,0.4,1.4,1.3v1.5c0,0.8-0.2,0.9-0.4,1.1c-0.3,0.2-0.8,0.2-1.1,0.2
						c-2.5,0-3.4-2.4-3.4-5.1c0-3,1.3-4.5,3.3-4.5c0.6,0,1.1,0.1,1.6,0.2c1,0.3,1.5,1.2,1.7,2.1l0.2,0c-0.1-0.9-0.1-1.7-0.2-2.4
						c-0.4,0-1.5-0.3-3-0.3c-3.1,0-5.8,1.8-5.8,5.3c0,3,1.9,5.1,5.5,5.1c1.2,0,2.7-0.4,3.6-0.5c-0.1-0.4-0.1-0.9-0.1-1.5v-1.4
						c0-0.8,0.2-0.9,1-1.1v-0.2h-4.2V92.1z M73.7,96.2v0.2H78v-0.2c-0.9-0.2-1.1-0.4-1.6-1.8c-1-2.7-2-5.3-3-8.1l-0.4,0.1l-3.2,8.1
						C69.2,95.8,69,96,68,96.2v0.2h3.3v-0.2c-1.3-0.2-1.5-0.4-1.1-1.4c0.2-0.6,0.4-1.2,0.7-1.9h2.8c0.3,0.9,0.6,1.7,0.8,2.2
						C74.8,95.8,74.8,95.9,73.7,96.2z M71.1,92.3c0.4-1.1,0.8-2.2,1.3-3.4l1.2,3.4H71.1z M113,102.4c0.7,0.1,0.9,0.2,1,0.8
						c0,0.2,0,0.5,0,1.3v1.6l-3.3-3.8h-1.6v0.1c0.4,0.1,0.5,0.1,0.7,0.4c0.1,0.1,0.1,0.3,0.1,0.4v2.2c0,0.7,0,1,0,1.3
						c0,0.6-0.1,0.7-0.7,0.8v0.1h2v-0.1c-0.8-0.1-0.8-0.3-0.9-0.8c0-0.3,0-0.5,0-1.3v-2.2l3.8,4.6h0.2v-3.3c0-0.9,0-1.1,0-1.4
						c0-0.6,0.1-0.7,0.7-0.8v-0.1h-2V102.4z M100.9,102.1c-0.2,0.2-0.3,0.2-0.5,0.2H97c-0.2,0-0.4,0-0.5-0.2h-0.1
						c0,0.4-0.1,1-0.1,1.5h0.1c0.1-0.3,0.2-0.6,0.4-0.8c0.1-0.1,0.2-0.2,0.6-0.2h0.8v4.2c0,0.7-0.1,0.8-0.7,0.9v0.1h2.5v-0.1
						c-0.7-0.1-0.7-0.2-0.7-0.9v-4.2h0.7c0.4,0,0.5,0,0.7,0.2c0.2,0.2,0.3,0.5,0.4,0.8l0.1,0c0-0.4-0.1-1-0.1-1.4H100.9z
						 M103.9,102.4c0.6,0.1,0.7,0.2,0.7,0.9v3.3c0,0.8,0,0.8-0.7,1v0.1h2.4v-0.1c-0.6-0.1-0.7-0.2-0.7-1v-3.3c0-0.8,0.1-0.8,0.7-0.9
						v-0.1h-2.4V102.4z M82.3,102.4c0.6,0.1,0.7,0.2,0.7,0.9v3.3c0,0.8,0,0.8-0.7,1v0.1h2.4v-0.1c-0.6-0.1-0.7-0.2-0.7-1v-3.3
						c0-0.8,0.1-0.8,0.7-0.9v-0.1h-2.4V102.4z M71.7,102.6c-0.3-0.2-0.8-0.3-1.4-0.3H68v0.1c0.6,0.1,0.7,0.2,0.7,0.9v3.4
						c0,0.8-0.1,0.8-0.7,0.9v0.1h2.5v-0.1c-0.7-0.1-0.7-0.2-0.7-0.9v-1.3l0.5,0.1c0.1,0,0.1,0,0.2,0c0.8,0,1.9-0.5,1.9-1.7
						C72.3,103.3,72.1,102.9,71.7,102.6z M70.2,105.3c-0.2,0-0.3,0-0.4,0v-2.4c0-0.1,0-0.2,0.1-0.3c0.1,0,0.2-0.1,0.3-0.1
						c0.6,0,1,0.3,1,1.3C71.2,105.1,70.5,105.3,70.2,105.3z M80.9,94.6c-0.6,0-1,0.4-1,1c0,0.6,0.4,1,1,1c0.6,0,1-0.4,1-1
						C81.9,95,81.5,94.6,80.9,94.6z M118.2,86.5h-3.5v0.2c1.5,0.2,1.5,0.5,1.3,1.6c-0.5,1.7-0.9,3.3-1.5,5.3c-0.9-2.3-1.8-4.6-2.7-7
						h-0.4c-0.5,1.4-1.7,4.9-2.4,7c-0.5-1.7-1.2-3.8-1.7-5.5c-0.3-0.9-0.2-1.1,0.9-1.3v-0.2h-4.3v0.2c1,0.2,1.1,0.4,1.6,1.8
						c0.8,2.7,1.7,5.4,2.5,8.2h0.4c0.7-2.2,1.6-4.7,2.5-7.1c0.9,2.4,1.8,4.7,2.7,7.1h0.4c0.9-3,2.1-6.9,2.5-8.1
						c0.5-1.4,0.6-1.6,1.7-1.8V86.5z M78.7,106.6c-0.6-1.5-1.1-3-1.6-4.5l-0.2,0l-1.8,4.5c-0.3,0.8-0.4,0.9-1,1v0.1H76v-0.1
						c-0.7-0.1-0.8-0.2-0.6-0.8c0.1-0.3,0.2-0.7,0.4-1.1h1.5c0.2,0.5,0.3,0.9,0.4,1.2c0.2,0.4,0.1,0.5-0.4,0.7v0.1h2.3v-0.1
						C79.1,107.5,79,107.4,78.7,106.6z M75.8,105.5c0.2-0.6,0.4-1.2,0.7-1.9l0.7,1.9H75.8z M91.4,102.4c0.7,0.1,0.9,0.2,1,0.8
						c0,0.2,0,0.5,0,1.3v1.6l-3.3-3.8h-1.6v0.1c0.4,0.1,0.5,0.1,0.7,0.4c0.1,0.1,0.1,0.3,0.1,0.4v2.2c0,0.7,0,1,0,1.3
						c0,0.6-0.1,0.7-0.7,0.8v0.1h2v-0.1c-0.8-0.1-0.8-0.3-0.9-0.8c0-0.3,0-0.5,0-1.3v-2.2l3.8,4.6h0.2v-3.3c0-0.9,0-1.1,0-1.4
						c0-0.6,0.1-0.7,0.7-0.8v-0.1h-2V102.4z M97.8,95.6c0-0.6-0.4-1-1-1c-0.6,0-1,0.4-1,1c0,0.6,0.4,1,1,1
						C97.4,96.6,97.8,96.2,97.8,95.6z M172.5,94.2c0,1.6-0.1,1.7-1.2,1.9v0.2h4.4v-0.2c-1.2-0.2-1.3-0.4-1.3-1.9l-0.1-5.8
						c0-1.4,0.1-1.5,1.4-1.8v-0.2h-2.9l-3.2,7.1l-3.1-7.1h-3v0.2c1.3,0.1,1.5,0.7,1.4,1.1c-0.4,6.1-0.4,6.9-0.5,7.4
						c-0.1,0.6-0.3,0.8-1.4,1v0.2h3.6v-0.2c-1.2-0.2-1.5-0.4-1.5-1c0-0.5,0-2.3,0.2-7c1.1,2.7,3.1,7.5,3.4,8.3h0.2
						c0.2-0.7,2.5-5.8,3.6-8.5L172.5,94.2z M166.8,106.6c-0.6-1.5-1.1-3-1.6-4.5l-0.2,0l-1.8,4.5c-0.3,0.8-0.4,0.9-1,1v0.1h1.8v-0.1
						c-0.7-0.1-0.8-0.2-0.6-0.8c0.1-0.3,0.2-0.7,0.4-1.1h1.5c0.2,0.5,0.3,0.9,0.4,1.2c0.2,0.4,0.1,0.5-0.4,0.7v0.1h2.3v-0.1
						C167.1,107.5,167.1,107.4,166.8,106.6z M163.9,105.5c0.2-0.6,0.4-1.2,0.7-1.9l0.7,1.9H163.9z M159.8,94.4c-1-2.7-2-5.3-3-8.1
						l-0.4,0.1l-3.2,8.1c-0.5,1.4-0.7,1.6-1.7,1.7v0.2h3.3v-0.2c-1.3-0.2-1.5-0.4-1.1-1.4c0.2-0.6,0.4-1.2,0.7-1.9h2.8
						c0.3,0.9,0.6,1.7,0.8,2.2c0.3,0.8,0.3,1-0.8,1.2v0.2h4.2v-0.2C160.5,96,160.4,95.8,159.8,94.4z M154.6,92.3
						c0.4-1.1,0.8-2.2,1.3-3.4l1.2,3.4H154.6z M159.8,102.6c-0.3-0.2-0.8-0.3-1.4-0.3h-2.2v0.1c0.6,0.1,0.7,0.2,0.7,0.9v3.4
						c0,0.8-0.1,0.8-0.7,0.9v0.1h2.5v-0.1c-0.7-0.1-0.7-0.2-0.7-0.9v-1.3l0.5,0.1c0.1,0,0.1,0,0.2,0c0.8,0,1.9-0.5,1.9-1.7
						C160.4,103.3,160.2,102.9,159.8,102.6z M158.3,105.3c-0.2,0-0.3,0-0.4,0v-2.4c0-0.1,0-0.2,0.1-0.3c0.1,0,0.2-0.1,0.3-0.1
						c0.6,0,1,0.3,1,1.3C159.2,105.1,158.5,105.3,158.3,105.3z M174.1,102.4c0.7,0.1,0.9,0.2,1,0.8c0,0.2,0,0.5,0,1.3v1.6l-3.3-3.8
						h-1.6v0.1c0.4,0.1,0.5,0.1,0.7,0.4c0.1,0.1,0.1,0.3,0.1,0.4v2.2c0,0.7,0,1,0,1.3c0,0.6-0.1,0.7-0.7,0.8v0.1h2v-0.1
						c-0.8-0.1-0.8-0.3-0.9-0.8c0-0.3,0-0.5,0-1.3v-2.2l3.8,4.6h0.2v-3.3c0-0.9,0-1.1,0-1.4c0-0.6,0.1-0.7,0.7-0.8v-0.1h-2V102.4z
						 M182.2,102.4c0.7,0.1,0.7,0.3,0.5,0.6c-0.2,0.5-0.7,1.4-1,2c-0.4-0.7-0.7-1.4-1.1-2.1c-0.2-0.4-0.1-0.4,0.4-0.6v-0.1h-2.3v0.1
						c0.5,0.1,0.6,0.2,0.9,0.8c0.5,0.8,0.8,1.5,1,1.9c0.1,0.2,0.1,0.3,0.1,0.4v1c0,0.9,0,1-0.7,1.1v0.1h2.5v-0.1
						c-0.7-0.1-0.7-0.2-0.7-1.1v-1.1c0-0.2,0-0.3,0.1-0.4c0.3-0.6,0.7-1.3,1-1.9c0.3-0.5,0.4-0.7,1-0.7v-0.1h-1.8V102.4z M184,93.6
						c0-1.6-1.2-2.4-2.5-3.2c-1.3-0.8-1.9-1.2-1.9-2.2c0-1,0.5-1.6,1.4-1.6c1.2,0,1.9,0.8,2.2,2l0.2,0c-0.1-0.7-0.2-1.6-0.3-2.1
						c-0.3,0-1-0.2-1.9-0.2c-2,0-3.3,1.2-3.3,2.8c0,1.6,1.1,2.3,2.5,3.2c1.1,0.7,1.7,1.3,1.7,2.3c0,1-0.5,1.7-1.5,1.7
						c-1.4,0-2.3-1.1-2.6-2.4l-0.2,0c0,0.2,0.2,2.1,0.3,2.3c0.8,0.2,1.6,0.4,2.3,0.4C182.5,96.6,184,95.4,184,93.6z M142.5,95.5
						c-0.4,0.4-0.6,0.5-1.4,0.5c-0.2,0-0.7,0-0.9,0c-0.8,0-1-0.1-1-1.1v-6.6c0-1.3,0.1-1.4,1.3-1.6v-0.2H136v0.2
						c1.2,0.2,1.3,0.3,1.3,1.6v6.2c0,1.3-0.1,1.4-1.4,1.6v0.2h7.2c0.1-0.2,0.5-1.8,0.6-2.5l-0.2-0.1
						C143.2,94.5,142.8,95.2,142.5,95.5z M134.2,93.9l-0.2-0.1c-0.3,0.6-0.6,1.3-0.9,1.6c-0.4,0.4-0.6,0.5-1.4,0.5
						c-0.2,0-0.7,0-0.9,0c-0.8,0-1-0.1-1-1.1v-6.6c0-1.3,0.1-1.4,1.3-1.6v-0.2h-4.4v0.2c1.2,0.2,1.3,0.3,1.3,1.6v6.2
						c0,1.3-0.1,1.4-1.4,1.6v0.2h7.2C133.7,96.2,134.1,94.6,134.2,93.9z M119.9,86.7c1.1,0.2,1.2,0.3,1.2,1.7v6
						c0,1.4-0.1,1.5-1.2,1.7v0.2h4.4v-0.2c-1.1-0.2-1.2-0.3-1.2-1.7v-6c0-1.4,0.1-1.5,1.2-1.7v-0.2h-4.4V86.7z M133.4,107.7
						c-1.3,0-2-1.2-2-2.8c0-1.4,0.5-2.5,1.8-2.5c0.3,0,0.6,0,0.8,0.2c0.5,0.2,0.7,0.5,0.9,1.1l0.2,0c0-0.3-0.1-0.9-0.1-1.3
						c-0.2,0-0.8-0.2-1.5-0.2c-2,0-3.2,1.2-3.2,2.9c0,1.5,0.9,2.9,3.1,2.9c0.6,0,1.2-0.2,1.4-0.2c0.1-0.3,0.3-0.9,0.4-1.3l-0.1-0.1
						C134.7,107.2,134.2,107.7,133.4,107.7z M149.8,96.2c-1.1-0.2-1.2-0.3-1.2-1.7v-6c0-1.4,0.1-1.5,1.2-1.7v-0.2h-4.4v0.2
						c1.1,0.2,1.2,0.3,1.2,1.7v6c0,1.4-0.1,1.5-1.2,1.7v0.2h4.4V96.2z M149.9,106.2l-1.7-3.9h-1.7v0.1c0.7,0.1,0.8,0.4,0.8,0.6
						c-0.2,3.4-0.2,3.8-0.3,4.1c-0.1,0.3-0.2,0.5-0.8,0.6v0.1h2v-0.1c-0.7-0.1-0.8-0.2-0.9-0.6c0-0.3,0-1.3,0.1-3.9
						c0.6,1.5,1.7,4.2,1.9,4.6h0.1c0.1-0.4,1.4-3.2,2-4.7l0,3.5c0,0.9-0.1,0.9-0.7,1.1v0.1h2.4v-0.1c-0.7-0.1-0.7-0.2-0.7-1.1l0-3.2
						c0-0.8,0.1-0.9,0.8-1v-0.1h-1.6L149.9,106.2z M120.8,105.4c0.7,0.1,0.8,0.2,0.8,0.7v0.9c0,0.4-0.1,0.5-0.2,0.6
						c-0.2,0.1-0.5,0.1-0.6,0.1c-1.4,0-1.9-1.3-1.9-2.8c0-1.6,0.7-2.5,1.8-2.5c0.3,0,0.6,0,0.9,0.1c0.6,0.2,0.8,0.7,0.9,1.2l0.1,0
						c-0.1-0.5-0.1-0.9-0.1-1.3c-0.2,0-0.8-0.2-1.7-0.2c-1.7,0-3.2,1-3.2,2.9c0,1.7,1.1,2.8,3,2.8c0.7,0,1.5-0.2,2-0.3
						c0-0.2-0.1-0.5-0.1-0.8V106c0-0.4,0.1-0.5,0.5-0.6v-0.1h-2.3V105.4z M140.9,102.2c-1.8,0-2.8,1.5-2.8,2.9
						c0,1.6,1.2,2.8,2.8,2.8c1.5,0,2.8-1.2,2.8-2.9C143.7,103.3,142.4,102.2,140.9,102.2z M141,107.7c-1.1,0-1.7-1.2-1.7-2.8
						c0-1.7,0.6-2.5,1.5-2.5c1,0,1.7,1.1,1.7,2.8C142.5,106.8,141.9,107.7,141,107.7z"/>
				</g>
			</g>
		</g>
	</g>
</g>
</svg>
