<svg id="building" xmlns="http://www.w3.org/2000/svg" width="81.4" height="81.4" viewBox="0 0 81.4 81.4">
  <g id="Group_759" data-name="Group 759">
    <g id="Group_758" data-name="Group 758">
      <path id="Path_2328" data-name="Path 2328" d="M158.81,477.867H120.824a1.357,1.357,0,0,0-1.357,1.357v2.713a1.357,1.357,0,0,0,2.713,0V480.58h36.63a1.357,1.357,0,0,0,0-2.713Z" transform="translate(-100.474 -401.894)" fill="#0063b0"></path>
      <path id="Path_2329" data-name="Path 2329" d="M187.733,163.1a1.357,1.357,0,0,0,1.357,1.357h5.427a1.357,1.357,0,0,0,1.357-1.357v-8.14a1.357,1.357,0,0,0-1.357-1.357H189.09a1.357,1.357,0,0,0-1.357,1.357v8.14Zm2.713-6.783h2.713v5.427h-2.713Z" transform="translate(-157.886 -129.18)" fill="#0063b0"></path>
      <path id="Path_2330" data-name="Path 2330" d="M17.637,102.4H1.357A1.357,1.357,0,0,0,0,103.757V130.89a1.357,1.357,0,1,0,2.713,0V105.113H17.637a1.357,1.357,0,0,0,0-2.713Z" transform="translate(0 -86.12)" fill="#0063b0"></path>
      <path id="Path_2331" data-name="Path 2331" d="M409.6,367.9a1.357,1.357,0,0,0,1.357,1.357h5.427a1.357,1.357,0,0,0,1.357-1.357v-8.14a1.357,1.357,0,0,0-1.357-1.357h-5.427a1.357,1.357,0,0,0-1.357,1.357Zm2.713-6.783h2.713v5.427h-2.713Z" transform="translate(-344.48 -301.42)" fill="#0063b0"></path>
      <path id="Path_2332" data-name="Path 2332" d="M6.783,307.2C.077,307.2,0,324.66,0,324.837a6.8,6.8,0,0,0,5.427,6.646v6.92a1.357,1.357,0,1,0,2.713,0v-6.92a6.8,6.8,0,0,0,5.427-6.646C13.567,324.66,13.489,307.2,6.783,307.2Zm0,21.707a4.075,4.075,0,0,1-4.07-4.07c0-6.759,1.815-14.923,4.07-14.923s4.07,8.164,4.07,14.923A4.075,4.075,0,0,1,6.783,328.907Z" transform="translate(0 -258.36)" fill="#0063b0"></path>
      <path id="Path_2333" data-name="Path 2333" d="M57.983,256H52.557a1.357,1.357,0,0,0-1.357,1.357v2.713a1.357,1.357,0,0,0,2.713,0v-1.357h2.713V265.5a1.357,1.357,0,0,0,2.713,0v-8.14A1.357,1.357,0,0,0,57.983,256Z" transform="translate(-43.06 -215.3)" fill="#0063b0"></path>
      <path id="Path_2334" data-name="Path 2334" d="M410.957,164.454h5.427a1.357,1.357,0,0,0,1.357-1.357v-8.14a1.357,1.357,0,0,0-1.357-1.357h-5.427a1.357,1.357,0,0,0-1.357,1.357v8.14A1.357,1.357,0,0,0,410.957,164.454Zm1.357-8.14h2.713v5.427h-2.713Z" transform="translate(-344.48 -129.181)" fill="#0063b0"></path>
      <path id="Path_2335" data-name="Path 2335" d="M57.983,153.6H52.557a1.357,1.357,0,0,0-1.357,1.357v8.14a1.357,1.357,0,0,0,1.357,1.357h5.427A1.357,1.357,0,0,0,59.34,163.1v-8.14A1.357,1.357,0,0,0,57.983,153.6Zm-1.357,8.14H53.913v-5.427h2.713v5.427Z" transform="translate(-43.06 -129.18)" fill="#0063b0"></path>
      <path id="Path_2336" data-name="Path 2336" d="M273.067,163.1a1.357,1.357,0,0,0,1.357,1.357h5.427a1.357,1.357,0,0,0,1.357-1.357v-8.14a1.357,1.357,0,0,0-1.357-1.357h-5.427a1.357,1.357,0,0,0-1.357,1.357Zm2.713-6.783h2.713v5.427H275.78Z" transform="translate(-229.654 -129.18)" fill="#0063b0"></path>
      <path id="Path_2337" data-name="Path 2337" d="M410.171,102.4h-16.28a1.357,1.357,0,0,0,0,2.713h14.923V159.63a3.876,3.876,0,0,0-2.054-.189,5.418,5.418,0,0,0-9.459,0,3.99,3.99,0,0,0-.7-.061,4.07,4.07,0,0,0,0,8.14h10.853a4.075,4.075,0,0,0,4.07-4.07V103.757A1.357,1.357,0,0,0,410.171,102.4Zm-2.713,62.407H396.6a1.357,1.357,0,0,1,0-2.713,1.341,1.341,0,0,1,.735.221,1.357,1.357,0,0,0,2.057-.834,2.7,2.7,0,0,1,5.269,0,1.357,1.357,0,0,0,2.057.834,1.383,1.383,0,0,1,2.092,1.135A1.359,1.359,0,0,1,407.457,164.807Z" transform="translate(-330.127 -86.12)" fill="#0063b0"></path>
      <path id="Path_2338" data-name="Path 2338" d="M274.424,62.054h5.427a1.357,1.357,0,0,0,1.357-1.357v-8.14A1.357,1.357,0,0,0,279.85,51.2h-5.427a1.357,1.357,0,0,0-1.357,1.357V60.7A1.357,1.357,0,0,0,274.424,62.054Zm1.357-8.14h2.713v5.427H275.78Z" transform="translate(-229.654 -43.061)" fill="#0063b0"></path>
      <path id="Path_2339" data-name="Path 2339" d="M273.067,265.5a1.357,1.357,0,0,0,1.357,1.357h5.427a1.357,1.357,0,0,0,1.357-1.357v-8.14A1.357,1.357,0,0,0,279.85,256h-5.427a1.357,1.357,0,0,0-1.357,1.357Zm2.713-6.783h2.713v5.427H275.78Z" transform="translate(-229.654 -215.3)" fill="#0063b0"></path>
      <path id="Path_2340" data-name="Path 2340" d="M189.091,62.054h5.427a1.357,1.357,0,0,0,1.357-1.357v-8.14a1.357,1.357,0,0,0-1.357-1.357h-5.427a1.357,1.357,0,0,0-1.357,1.357V60.7A1.357,1.357,0,0,0,189.091,62.054Zm1.357-8.14h2.713v5.427h-2.713Z" transform="translate(-157.887 -43.061)" fill="#0063b0"></path>
      <path id="Path_2341" data-name="Path 2341" d="M247.859,410.083a1.357,1.357,0,1,0,1.927,0A1.427,1.427,0,0,0,247.859,410.083Z" transform="translate(-208.123 -344.57)" fill="#0063b0"></path>
      <path id="Path_2342" data-name="Path 2342" d="M187.733,265.5a1.357,1.357,0,0,0,1.357,1.357h5.427a1.357,1.357,0,0,0,1.357-1.357v-8.14A1.357,1.357,0,0,0,194.516,256H189.09a1.357,1.357,0,0,0-1.357,1.357v8.14Zm2.713-6.783h2.713v5.427h-2.713Z" transform="translate(-157.886 -215.3)" fill="#0063b0"></path>
      <path id="Path_2343" data-name="Path 2343" d="M170.667,359.757a1.357,1.357,0,0,0,1.357,1.357h4.07v12.21a1.357,1.357,0,0,0,2.713,0v-12.21H189.66v12.21a1.357,1.357,0,0,0,2.713,0v-12.21h4.07a1.357,1.357,0,1,0,0-2.713h-24.42A1.357,1.357,0,0,0,170.667,359.757Z" transform="translate(-143.534 -301.42)" fill="#0063b0"></path>
      <path id="Path_2344" data-name="Path 2344" d="M409.6,265.5a1.357,1.357,0,0,0,1.357,1.357h5.427a1.357,1.357,0,0,0,1.357-1.357v-8.14A1.357,1.357,0,0,0,416.383,256h-5.427a1.357,1.357,0,0,0-1.357,1.357Zm2.713-6.783h2.713v5.427h-2.713Z" transform="translate(-344.48 -215.3)" fill="#0063b0"></path>
      <path id="Path_2345" data-name="Path 2345" d="M173.164,0H137.891a1.357,1.357,0,0,0-1.357,1.357V71.9a1.357,1.357,0,0,0,2.713,0V2.713h32.56V71.9a1.357,1.357,0,1,0,2.713,0V1.357A1.357,1.357,0,0,0,173.164,0Z" transform="translate(-114.827)" fill="#0063b0"></path>
    </g>
  </g>
</svg>