<svg id="home" xmlns="http://www.w3.org/2000/svg" width="86.17" height="83.292" viewBox="0 0 86.17 83.292">
  <path id="Path_2346" data-name="Path 2346" d="M97.84,87.984q0-.091,0-.181A5.751,5.751,0,0,0,92.1,82.059V55.492l5.17-3.877a1.436,1.436,0,0,0-.014-2.308L84.918,40.291V24.616a1.436,1.436,0,0,0,1.436-1.436V17.436A1.436,1.436,0,0,0,84.918,16H70.558a1.436,1.436,0,0,0-1.436,1.436V23.18a1.436,1.436,0,0,0,1.436,1.436V29.8L59.916,22.021a1.436,1.436,0,0,0-1.695,0L20.884,49.306a1.436,1.436,0,0,0-.014,2.308l5.17,3.877V82.059A5.751,5.751,0,0,0,20.3,87.8q0,.09,0,.181a5.744,5.744,0,0,0,1.433,11.308H96.407A5.744,5.744,0,0,0,97.84,87.984ZM71.994,18.872H83.482v2.872H71.994ZM73.43,31.8v-7.18h8.616V38.193l-8.752-6.4ZM59.069,24.959,93.993,50.481l-3.344,2.508L59.914,30.635a1.436,1.436,0,0,0-1.69,0L27.489,52.989l-3.344-2.508ZM18.859,93.548a2.876,2.876,0,0,1,2.829-2.872h0c.073.01.147.019.222.024a1.436,1.436,0,0,0,1.44-1.924,2.823,2.823,0,0,1-.186-.972,2.876,2.876,0,0,1,2.872-2.872V96.42H21.731A2.876,2.876,0,0,1,18.859,93.548ZM80.61,96.42H63.377V64.826H80.61Zm2.872,0V63.39a1.436,1.436,0,0,0-1.436-1.436h-20.1a1.436,1.436,0,0,0-1.436,1.436V96.42H28.912V55.505L59.069,33.572,89.226,55.505V96.42Zm12.925,0H92.1V84.931A2.876,2.876,0,0,1,94.971,87.8a2.823,2.823,0,0,1-.186.973,1.436,1.436,0,0,0,1.44,1.924c.075,0,.148-.014.222-.024h0a2.872,2.872,0,0,1-.043,5.744Z" transform="translate(-15.984 -16)" fill="#0063b0"></path>
  <path id="Path_2347" data-name="Path 2347" d="M138.669,272H121.436A1.436,1.436,0,0,0,120,273.436v20.1a1.436,1.436,0,0,0,1.436,1.436h17.233a1.436,1.436,0,0,0,1.436-1.436v-20.1A1.436,1.436,0,0,0,138.669,272Zm-1.436,10.052h-5.744v-7.18h5.744Zm-8.616-7.18v7.18h-5.744v-7.18Zm-5.744,10.052h5.744v7.18h-5.744Zm8.616,7.18v-7.18h5.744v7.18Z" transform="translate(-101.328 -226.046)" fill="#0063b0"></path>
  <circle id="Ellipse_257" data-name="Ellipse 257" cx="1.436" cy="1.436" r="1.436" transform="translate(49.825 63.964) rotate(-67.5)" fill="#0063b0"></circle>
</svg>