<?xml version="1.0" encoding="utf-8"?>

<svg version="1.1" id="Layer_1" xmlns="http://www.w3.org/2000/svg" xmlns:xlink="http://www.w3.org/1999/xlink" x="0px" y="0px" viewBox="0 0 1000 1000" style="enable-background:new 0 0 1000 1000;" xml:space="preserve">

<g>
&#x9;<rect class="st0" fill="none" width="1000" height="1000"></rect>
</g>
<g>
&#x9;<g>
&#x9;&#x9;<g>
&#x9;&#x9;&#x9;<path class="st6" fill="#FFFFFF" d="M680.6,354.4c-2.6-0.3-5.1,1.1-6,3.5c-2.1,5.2-4.3,9.3-7.3,13.1c-7.4-7.1-18-13.3-34.5-13.3&#xA;&#x9;&#x9;&#x9;&#x9;c-34.2,0-55,26.4-55,51.6c0,15.4,7.4,26.1,20.8,32.9c7.4,4.2,12,4.7,12,5.9c0,1.2-2.3,1.5-13.7,5c-8.3,2.7-12.8,4.5-14.3,5.6&#xA;&#x9;&#x9;&#x9;&#x9;c-5.1,4.4-11.4,21.3-11.4,27c0,4.1,1.4,5.6,9.1,7.7c5.1,1.5,6.6,1.8,6.6,2.4c0,0.5-3.1,1.6-5.3,2.4c-1.5,0.5-3,0.7-4.6,0.7&#xA;&#x9;&#x9;&#x9;&#x9;c-14.7-0.6-16.2-1.9-16.2-3.2c0-1.6,0.8-8.5,1.7-15.5l17.3-124.9c0.6-3.5,4.2-28.1,5.3-31.6c0.8-2.7,1.8-4,4.1-5.1&#xA;&#x9;&#x9;&#x9;&#x9;c1.5-0.8,2.2-2.4,1.7-4c-0.6-1.7-2.5-2.7-4.2-2.1c-27.3,9.5-30.6,13-34.3,17.2c-4.5,5.2-24.4,31.4-28.8,37.3l-17.1,22.4&#xA;&#x9;&#x9;&#x9;&#x9;C474.3,430.4,421.9,500,360.9,500c-23.5,0-39.8-12-39.8-28.6c0-11.7,7.9-20.5,18.2-20.5c17.4,0,5.3,15.3,23.2,15.3&#xA;&#x9;&#x9;&#x9;&#x9;c5.9,0,7.8-1.3,7.8-5.7c0-7.4-6.7-21-23.5-21c-17.6,0-32.5,14.5-32.5,32.2c0,22.6,24.4,36.5,51.8,36.5c4.6,0,9.1-0.5,13.5-1.2&#xA;&#x9;&#x9;&#x9;&#x9;c-29,15.6-31.9,36-31.9,43.9c0,17.5,12,26.7,27,26.7c19.6,0,30.5-15.8,30.5-21.8c0-3.5-5.2-3.8-7.6-3.8&#xA;&#x9;&#x9;&#x9;&#x9;c-14.2,0-9.5,15.8-25.9,15.8c-8.2,0-17.4-6-17.4-17.4c0-35.2,52.3-45.8,68.2-45.8c6.5,0,8.7,2.5,9.5,10.4l18.3,162.2&#xA;&#x9;&#x9;&#x9;&#x9;c0.5,4.4,1.1,10.6,4.4,10.6c2.5,0,19.1-21.5,20.5-23.2c10.4-12.3,57.3-89.4,67.9-106.1h0.5l14.5,118.6c0.5,4.4,0.9,11.4,4.4,10.6&#xA;&#x9;&#x9;&#x9;&#x9;c2.4-0.6,18.3-21,19.6-22.6c0.4-0.4,0.9-1.1,1.6-2c3.8,1.4,15.1,5.1,31,5.1c14.7,0,33.3-3.2,53.3-14.3c1-0.5,1.7-1.4,2.2-2.3&#xA;&#x9;&#x9;&#x9;&#x9;c0.5-0.9,0.7-2,0.6-3.1l-8.3-97.8l-0.1,0c8.2-14.2,12.3-25.5,12.6-37.1c0-0.8-0.1-1.5-0.2-2.3c0-0.3,0.1-0.6,0.1-0.9&#xA;&#x9;&#x9;&#x9;&#x9;c0-26.1-21.7-28.5-63.6-33.2c-22.8-2.7-25.1-3.3-25.1-6.2c0-1.5,2.3-8.6,5.4-9.8c21.4-7.7,27.6-9.2,45.6-13.3&#xA;&#x9;&#x9;&#x9;&#x9;c28.8-6.5,41.6-28.5,41.6-50.4c0-8.9-2-12.7-4-16.9c3.3-3.9,7-8.7,10.3-18.5C686.4,358.5,684.1,354.8,680.6,354.4z M495.9,414.9&#xA;&#x9;&#x9;&#x9;&#x9;l54.3-72.3c1.7-2.2,2.2-2.5,2.8-2.5c0.6,0,0.9,0.3,0.9,1.1c0,1.1-0.6,4.3-1.1,8.7l-9.5,67.1c-0.3,1.9-0.3,2.7-0.6,3&#xA;&#x9;&#x9;&#x9;&#x9;c-0.3,0.3-0.8,0.3-2.2,0.3H497c-2.5,0-4.2-0.3-4.2-0.8C492.8,419,494.2,417.1,495.9,414.9z M481.7,642.2&#xA;&#x9;&#x9;&#x9;&#x9;c-1.4,2.2-5.4,8.5-6.8,8.5c-0.5,0-0.8-1.4-0.8-3L458,487.6c-7.8,0.7-24.7,2.4-43.1,6.8c27.5-15.2,51.3-40.4,68.9-62.3&#xA;&#x9;&#x9;&#x9;&#x9;c2.8-3.5,3.9-3.5,13.5-3.5h40.9c1.7,0,3.1,0.3,3.1,1.6c0,1.4-0.6,6-1.1,9.3l-5.6,40.6c-0.6,3.6-2.2,15.5-3.6,16.6&#xA;&#x9;&#x9;&#x9;&#x9;c-1.4,1.1-16.2,2.2-20.7,2.2v6.6c5,0,23-0.5,35-0.5c3.8,0,8.5,0.1,13.2,0.1C511.4,595.6,505.7,604.7,481.7,642.2z M582.3,644.5&#xA;&#x9;&#x9;&#x9;&#x9;c-0.4,0-0.5,0.2-0.5,0.3l-11.8-101.4c8.5,3.5,19.4,5.2,31.3,5.2c20.7,0,42.9-4.7,55.4-12.3c-5.2,12.1-13.2,32.3-43.1,71.9&#xA;&#x9;&#x9;&#x9;&#x9;C609.6,614.7,584.8,644.5,582.3,644.5z M664.5,648.6c-34.8,19.3-65.8,12.7-76.2,9.5l44.2-63.5c9-12.4,16.4-23,22.4-32.2l2-2.8&#xA;&#x9;&#x9;&#x9;&#x9;L664.5,648.6z M611.2,510.5c20.2-2.3,37.5-0.3,44.1,4.9c1.7,1.4,2.7,3,2.9,4.8c0.9,8.7-17.9,17.4-43.8,20.3&#xA;&#x9;&#x9;&#x9;&#x9;c-5.6,0.6-11,0.9-16,0.9c-13,0-23.4-2.1-28.1-5.9c-1.7-1.4-2.7-3-2.9-4.8C566.4,522.1,585.3,513.4,611.2,510.5z M629.3,442.2&#xA;&#x9;&#x9;&#x9;&#x9;c-6.4,2.6-13.8,1.4-18.7-3.5c-5.7-5.7-8.9-14.6-8.9-25.3c0-21.9,13.4-49.2,33-49.2c15.4,0,20.2,13.3,20.2,28.8&#xA;&#x9;&#x9;&#x9;&#x9;C655,415.3,646.2,435.4,629.3,442.2z M569.5,530.6c0.1,1.2,0.8,2.3,2.1,3.3c6.1,4.9,22.8,6.7,42.5,4.5&#xA;&#x9;&#x9;&#x9;&#x9;c26.7-3,42.6-11.6,41.9-17.9c-0.1-1.2-0.8-2.3-2.1-3.3c-4.4-3.5-14.1-5.4-26.5-5.4c-5,0-10.3,0.3-16,0.9&#xA;&#x9;&#x9;&#x9;&#x9;C584.6,515.6,568.8,524.3,569.5,530.6z M611.6,515.2c20.8-2.3,38.2-0.2,38.9,5.3c0.7,5.5-15.5,11.8-36.3,14&#xA;&#x9;&#x9;&#x9;&#x9;c-20.8,2.3-38.2-0.4-38.9-5.8C574.6,523.1,590.9,517.4,611.6,515.2z"></path>
&#x9;&#x9;</g>
&#x9;</g>
</g>
</svg>