<?xml version="1.0" encoding="utf-8"?>
<!-- Generator: Adobe Illustrator 28.3.0, SVG Export Plug-In . SVG Version: 6.00 Build 0)  -->
<svg version="1.1" id="OUTLINE" xmlns="http://www.w3.org/2000/svg" xmlns:xlink="http://www.w3.org/1999/xlink" x="0px" y="0px"
	 viewBox="0 0 238.5 238.5" style="enable-background:new 0 0 238.5 238.5;" xml:space="preserve">
<style type="text/css">
	.st0{fill:#F9F8F2;}
	.st1{fill:#0D8E49;}
</style>
<rect x="-1402.5" y="-607.2" class="st0" width="1688.5" height="1170.6"/>
<g>
	<path class="st1" d="M110.4,85.2H104V71.4c0-6-4.9-10.9-10.9-10.9c-6,0-10.9,4.9-10.9,10.9v13.8h-6.4c-2.5,0-4.5,2-4.5,4.5v9.5
		c0,2.5,2,4.5,4.5,4.5h6.4v48c0,3.7,1.9,7.1,5,9.2c0.4,0.2,0.6,0.7,0.6,1.2v4.4c0,3,2.2,5.4,5.1,5.5c3.2,0.2,5.6-2.4,5.6-5.3v-4.6
		c0-0.5,0.2-0.9,0.6-1.2c3.1-2,5-5.4,5-9.2v-48h6.4c2.5,0,4.5-2,4.5-4.5v-9.5C114.9,87.2,112.9,85.2,110.4,85.2z M84.4,100.3V88.7
		h6.9v11.6H84.4z M94.8,88.7h6.9v11.6h-6.9V88.7z M85.7,71.4c0-4.1,3.3-7.4,7.4-7.4c4.1,0,7.4,3.3,7.4,7.4v13.8H85.7V71.4z
		 M74.7,99.2v-9.5c0-0.6,0.5-1,1-1h5.2v11.6h-5.2C75.2,100.3,74.7,99.8,74.7,99.2z M100.5,151.7c0,2.5-1.3,4.8-3.4,6.2
		c-1.4,0.9-2.2,2.4-2.2,4.1v4.6c0,1.1-0.9,1.9-1.9,1.8c-1,0-1.7-1-1.7-2v-4.4c0-1.7-0.8-3.2-2.2-4.1c-2.1-1.4-3.4-3.7-3.4-6.2v-48
		h14.8V151.7z M111.4,99.2c0,0.6-0.5,1-1,1h-5.2V88.7h5.2c0.6,0,1,0.5,1,1V99.2z"/>
	<path class="st1" d="M145.4,154.2c4.4,0,8-3.6,8-8c0-3.8-5.4-12.6-6.5-14.4c-0.3-0.5-0.9-0.8-1.5-0.8c-0.6,0-1.2,0.3-1.5,0.8
		c-1.1,1.7-6.5,10.6-6.5,14.4C137.4,150.6,141,154.2,145.4,154.2z M145.4,136.2c2.2,3.8,4.5,8.4,4.5,10c0,2.5-2,4.5-4.5,4.5
		c-2.5,0-4.5-2-4.5-4.5C140.9,144.6,143.2,140,145.4,136.2z"/>
	<path class="st1" d="M162.7,103.8c2.5,0,4.5-2,4.5-4.5v-9.5c0-2.5-2-4.5-4.5-4.5h-6.4V71.4c0-6-4.9-10.9-10.9-10.9
		c-6,0-10.9,4.9-10.9,10.9v13.8h-6.4c-2.5,0-4.5,2-4.5,4.5v9.5c0,2.5,2,4.5,4.5,4.5h3.2v3.3c0,2.5-1.2,4.8-3.2,6.2
		c-2.9,2.1-4.6,5.5-4.6,9.1c0,9.1,0,28.9,0,39.4v2.2c0,7.7,6.2,13.9,13.9,13.9h15.9c7.7,0,13.9-6.2,13.9-13.9v-2.2
		c0-10.6,0-30.4,0-39.4c0-3.6-1.7-7-4.6-9.1c-2-1.5-3.2-3.8-3.2-6.2v-3.3H162.7z M163.8,89.7v9.5c0,0.6-0.5,1-1,1
		c-0.2,0-5.3,0-5.2,0V88.7h5.2C163.3,88.7,163.8,89.1,163.8,89.7z M147.1,100.3V88.7h6.9v11.6H147.1z M136.7,100.3V88.7h6.9v11.6
		H136.7z M138,71.4c0-4.1,3.3-7.4,7.4-7.4c4.1,0,7.4,3.3,7.4,7.4v13.8H138V71.4z M127,99.2v-9.5c0-0.6,0.5-1,1-1h5.2v11.6
		c-0.1,0-5.4,0-5.2,0C127.5,100.3,127,99.8,127,99.2z M163.8,160.1H127v-34.9h36.7V160.1z M153.3,174.5h-15.9
		c-5.8,0-10.4-4.7-10.4-10.4v-0.5h36.7v0.5C163.8,169.8,159.1,174.5,153.3,174.5z M160.6,116.1c1.8,1.3,2.9,3.3,3.1,5.5h-36.7
		c0.2-2.2,1.3-4.2,3.1-5.5c2.9-2.1,4.6-5.5,4.6-9.1v-3.3H156v3.3C156,110.6,157.7,114,160.6,116.1z"/>
</g>
</svg>
