<?xml version="1.0" encoding="utf-8"?>
<!-- Generator: Adobe Illustrator 28.3.0, SVG Export Plug-In . SVG Version: 6.00 Build 0)  -->
<svg version="1.1" id="OUTLINE" xmlns="http://www.w3.org/2000/svg" xmlns:xlink="http://www.w3.org/1999/xlink" x="0px" y="0px"
	 viewBox="0 0 238.5 238.5" style="enable-background:new 0 0 238.5 238.5;" xml:space="preserve">
<style type="text/css">
	.st0{fill:#F9F8F2;}
	.st1{fill:#0D8E49;}
</style>
<rect x="-584.9" y="-607.2" class="st0" width="1688.5" height="1170.6"/>
<g>
	<path class="st1" d="M173.5,102.7H65c-2.5,0-4.6,2-4.6,4.6v24c0,2.5,2,4.6,4.6,4.6h108.5c2.5,0,4.6-2,4.6-4.6v-24
		C178,104.7,176,102.7,173.5,102.7z M174.5,131.2c0,0.6-0.5,1.1-1.1,1.1H65c-0.6,0-1.1-0.5-1.1-1.1v-24c0-0.6,0.5-1.1,1.1-1.1h15.2
		v11.5c0,1,0.8,1.8,1.8,1.8c1,0,1.8-0.8,1.8-1.8v-11.5h4.2v7.5c0,1,0.8,1.8,1.8,1.8c1,0,1.8-0.8,1.8-1.8v-7.5h4.2v7.5
		c0,1,0.8,1.8,1.8,1.8c1,0,1.8-0.8,1.8-1.8v-7.5h4.2v11.5c0,1,0.8,1.8,1.8,1.8s1.8-0.8,1.8-1.8v-11.5h4.2v7.5c0,1,0.8,1.8,1.8,1.8
		c1,0,1.8-0.8,1.8-1.8v-7.5h4.2v7.5c0,1,0.8,1.8,1.8,1.8c1,0,1.8-0.8,1.8-1.8v-7.5h4.2v11.5c0,1,0.8,1.8,1.8,1.8
		c1,0,1.8-0.8,1.8-1.8v-11.5h4.2v7.5c0,1,0.8,1.8,1.8,1.8c1,0,1.8-0.8,1.8-1.8v-7.5h4.2v7.5c0,1,0.8,1.8,1.8,1.8
		c1,0,1.8-0.8,1.8-1.8v-7.5h4.2v11.5c0,1,0.8,1.8,1.8,1.8s1.8-0.8,1.8-1.8v-11.5h4.2v7.5c0,1,0.8,1.8,1.8,1.8s1.8-0.8,1.8-1.8v-7.5
		h4.2v7.5c0,1,0.8,1.8,1.8,1.8s1.8-0.8,1.8-1.8v-7.5h4.9c0.6,0,1.1,0.5,1.1,1.1V131.2z"/>
	<path class="st1" d="M71.8,113.9c-2.9,0-5.3,2.4-5.3,5.3s2.4,5.3,5.3,5.3c2.9,0,5.3-2.4,5.3-5.3S74.8,113.9,71.8,113.9z M71.8,121
		c-1,0-1.8-0.8-1.8-1.8s0.8-1.8,1.8-1.8c1,0,1.8,0.8,1.8,1.8S72.8,121,71.8,121z"/>
</g>
</svg>
