<?xml version="1.0" encoding="utf-8"?>
<!-- Generator: Adobe Illustrator 28.3.0, SVG Export Plug-In . SVG Version: 6.00 Build 0)  -->
<svg version="1.1" id="OUTLINE" xmlns="http://www.w3.org/2000/svg" xmlns:xlink="http://www.w3.org/1999/xlink" x="0px" y="0px"
	 viewBox="0 0 238.5 238.5" style="enable-background:new 0 0 238.5 238.5;" xml:space="preserve">
<style type="text/css">
	.st0{fill:#F9F8F2;}
	.st1{fill:#0D8E49;}
</style>
<rect x="-1133" y="-607.2" class="st0" width="1688.5" height="1170.6"/>
<path class="st1" d="M173.4,126.3h-21.9v-0.2c0-1.7-1.4-3.1-3.1-3.1h-4.9c-1.7,0-3.1,1.4-3.1,3.1v0.3c-2.3,0.2-4.4,0.9-6.4,1.9
	v-10.8h4.8c4.4,0,8-3.6,8-8V98c0-13.6-11.1-24.7-24.6-24.7H85.6C72,73.3,60.9,84.4,60.9,98v11.5c0,4.4,3.6,8,8,8h4.8V152
	c0,7.3,5.9,13.2,13.2,13.2h33.8c4.7,0,9-2.5,11.3-6.4c2.5,1.7,5.3,2.7,8.3,3v0.3c0,1.7,1.4,3.1,3.1,3.1h4.9c1.7,0,3.1-1.4,3.1-3.1
	v-0.2h21.9c2.2,0,4.1-1.8,4.1-4.1v-27.4C177.5,128.1,175.7,126.3,173.4,126.3z M120.7,131.4c-2.8,0.4-5-2-5-4.6v-12.9
	c0-4.4-3.6-8-8-7.9c-4.2,0-7.8,3.4-7.8,7.9c0,0.2,0,7.3,0,6.9c0,2.5-2.1,4.4-4.4,4.4c-2.4,0-4.4-2-4.4-4.4c0-4.7,0-15.4,0-20.1h33.4
	c0,2.7,0-9.8,0,26.4C124.5,129.1,123,131.1,120.7,131.4z M87.5,104.8H72.2v-4.1h15.4V104.8z M128,104.8v-4.1h7.5v4.1H128z M69,114
	c-2.5,0-4.5-2-4.5-4.5V98c0-11.7,9.5-21.2,21.1-21.2h36.5c11.7,0,21.1,9.5,21.1,21.2v11.5c0,2.5-2,4.5-4.5,4.5h-4.8v-5.7h3.3
	c1,0,1.8-0.8,1.8-1.8V99c0-1-0.8-1.8-1.8-1.8c-40.9,0-25.9,0-66.9,0c-1,0-1.8,0.8-1.8,1.8v7.6c0,1,0.8,1.8,1.8,1.8h3.3v5.7H69z
	 M120.7,161.7H86.9c-5.3,0-9.7-4.3-9.7-9.7v-43.7h10.3v12.5c0,4.4,3.6,7.9,7.9,7.9c4.2,0,7.9-3.4,7.9-7.9v-6.5
	c0-2.4,1.9-4.6,4.2-4.7c2.6-0.1,4.6,2,4.6,4.4v13.2c0,4.5,3.8,8,8.2,7.9c4.2-0.2,7.6-3.6,7.6-7.9v-18.8h2.4v22.4
	c-1.1,0.9-2.2,2.2-3.1,3.4c-1.5,2.2-3.9,3.5-6.4,3.4l-21.1-0.9c-3-0.1-5.7,1.4-7.1,3.7c-0.6,1-1,2.2-1.1,3.4c0,0,0,0,0,0
	c0,0,0,0,0,0c0,0,0,0,0,0c-0.1,2.1,0.7,4.1,2.2,5.6c1.5,1.5,3.5,2.3,5.6,2.2l21.4-0.9c2.5-0.1,4.9,1.2,6.4,3.4
	c0.6,0.8,1.4,1.8,2,2.4C127.7,159.7,124.3,161.7,120.7,161.7z M130.2,152.1c-2.1-3.1-5.7-5-9.5-4.9l-21.5,0.9c-1.2,0-2.2-0.4-3-1.2
	c-0.8-0.8-1.2-1.9-1.2-3c0.1-2.1,2.2-3.9,4.5-3.8l21.1,0.9c3.7,0.1,7.3-1.7,9.5-4.9c2.1-3.2,5.7-5.6,10.1-6.2v28.4
	C136.1,157.8,132.5,155.5,130.2,152.1z M148,161.7h-4.2c0-54.7,0,4.8,0-35.2h4.2C148,133.5,148,154.7,148,161.7z M173.4,158.4h-21.9
	v-28.6h21.9c0.3,0,0.6,0.3,0.6,0.6v6.7h-5.3c-1,0-1.8,0.8-1.8,1.8c0,1,0.8,1.8,1.8,1.8h5.3v7h-8.2c-1,0-1.8,0.8-1.8,1.8
	c0,1,0.8,1.8,1.8,1.8h8.2v6.7C174,158.1,173.8,158.4,173.4,158.4z"/>
</svg>
