<?xml version="1.0" encoding="utf-8"?>
<!-- Generator: Adobe Illustrator 28.3.0, SVG Export Plug-In . SVG Version: 6.00 Build 0)  -->
<svg version="1.1" id="OUTLINE" xmlns="http://www.w3.org/2000/svg" xmlns:xlink="http://www.w3.org/1999/xlink" x="0px" y="0px"
	 viewBox="0 0 238.5 238.5" style="enable-background:new 0 0 238.5 238.5;" xml:space="preserve">
<style type="text/css">
	.st0{fill:#F9F8F2;}
	.st1{fill:#0D8E49;}
</style>
<rect x="-39.9" y="-325.3" class="st0" width="1688.5" height="1170.6"/>
<g>
	<path class="st1" d="M168.7,110.3H161c-1,0-1.8,0.8-1.8,1.8s0.8,1.8,1.8,1.8h7.7c1,0,1.8-0.8,1.8-1.8S169.6,110.3,168.7,110.3z"/>
	<path class="st1" d="M77.5,110.3h-7.7c-1,0-1.8,0.8-1.8,1.8s0.8,1.8,1.8,1.8h7.7c1,0,1.8-0.8,1.8-1.8S78.4,110.3,77.5,110.3z"/>
	<path class="st1" d="M119.2,72c1,0,1.8-0.8,1.8-1.8v-7.7c0-1-0.8-1.8-1.8-1.8s-1.8,0.8-1.8,1.8v7.7C117.5,71.2,118.3,72,119.2,72z"
		/>
	<path class="st1" d="M150,140.3c-0.7-0.7-1.8-0.7-2.5,0c-0.7,0.7-0.7,1.8,0,2.5l5.4,5.4c0.7,0.7,1.8,0.7,2.5,0
		c0.7-0.7,0.7-1.8,0-2.5L150,140.3z"/>
	<path class="st1" d="M88.5,83.7c0.7,0.7,1.8,0.7,2.5,0c0.7-0.7,0.7-1.8,0-2.5l-5.4-5.4c-0.7-0.7-1.8-0.7-2.5,0
		c-0.7,0.7-0.7,1.8,0,2.5L88.5,83.7z"/>
	<path class="st1" d="M152.9,75.8l-5.4,5.4c-0.7,0.7-0.7,1.8,0,2.5c0.7,0.7,1.8,0.7,2.5,0l5.4-5.4c0.7-0.7,0.7-1.8,0-2.5
		C154.7,75.1,153.6,75.1,152.9,75.8z"/>
	<path class="st1" d="M88.5,140.3l-5.4,5.4c-0.7,0.7-0.7,1.8,0,2.5c0.7,0.7,1.8,0.7,2.5,0l5.4-5.4c0.7-0.7,0.7-1.8,0-2.5
		C90.3,139.6,89.1,139.6,88.5,140.3z"/>
	<path class="st1" d="M115.2,76.7c-16,1.8-29.1,14.6-31.2,30.5c-1.9,14.7,5.1,28.7,17.9,35.8V159c0,3.3,2.2,6,5.2,6.9
		c0.2,6.5,5.5,11.7,12,11.7s11.9-5.2,12-11.7c3-0.9,5.2-3.6,5.2-6.9v-15.9c11.3-6.3,18.3-18.1,18.3-31
		C154.7,91.4,136.9,74.3,115.2,76.7z M133,143.8v7.7h-27.5v-7.7H133z M113.4,117.5h-4.8c-2.6,0-4.8-2.1-4.8-4.8s2.1-4.8,4.8-4.8
		c2.6,0,4.8,2.1,4.8,4.8V117.5z M116.9,121h4.7v19.3h-4.7V121z M119.2,174.1c-4.5,0-8.2-3.5-8.5-8h17.1
		C127.5,170.6,123.7,174.1,119.2,174.1z M129.3,162.7h-20.1c-2,0-3.7-1.7-3.7-3.7v-4H133v4C133,161,131.3,162.7,129.3,162.7z
		 M134.3,140.3h-9.2V121h4.8c4.5,0,8.2-3.7,8.2-8.2s-3.7-8.2-8.2-8.2c-4.5,0-8.2,3.7-8.2,8.2v4.8h-4.7v-4.8c0-4.5-3.7-8.2-8.2-8.2
		c-4.5,0-8.2,3.7-8.2,8.2s3.7,8.2,8.2,8.2h4.8v19.3h-9.2c-11.9-6.3-18.5-19.1-16.7-32.6c1.9-14.3,13.7-25.9,28.1-27.5
		c19.6-2.2,35.7,13.2,35.7,31.8C151.2,123.9,144.7,134.7,134.3,140.3z M125.1,117.5v-4.8c0-2.6,2.1-4.8,4.8-4.8
		c2.6,0,4.8,2.1,4.8,4.8s-2.1,4.8-4.8,4.8H125.1z"/>
</g>
</svg>
