<?xml version="1.0" encoding="utf-8"?>
<!-- Generator: Adobe Illustrator 28.3.0, SVG Export Plug-In . SVG Version: 6.00 Build 0)  -->
<svg version="1.1" id="OUTLINE" xmlns="http://www.w3.org/2000/svg" xmlns:xlink="http://www.w3.org/1999/xlink" x="0px" y="0px"
	 viewBox="0 0 238.5 238.5" style="enable-background:new 0 0 238.5 238.5;" xml:space="preserve">
<style type="text/css">
	.st0{fill:#F9F8F2;}
	.st1{fill:#0D8E49;}
</style>
<rect x="-315.5" y="-46.6" class="st0" width="1688.5" height="1170.6"/>
<path class="st1" d="M159.1,127.8h-9.6l-4.3-32.9c-0.1-0.9-0.9-1.5-1.7-1.5H134c-1.1,0-1.9,0.9-1.7,2l1.2,9.3h-7.8V87.2h9.3
	c1,0,1.8-0.8,1.8-1.8V76c0-1-0.8-1.8-1.8-1.8h-9.3V62.5c0-1-0.8-1.8-1.8-1.8h-9.5c-1,0-1.8,0.8-1.8,1.8v11.7h-9.3
	c-1,0-1.8,0.8-1.8,1.8v9.5c0,1,0.8,1.8,1.8,1.8h9.3v17.4H105l1.2-9.3c0.1-1-0.7-2-1.7-2H95c-0.9,0-1.6,0.7-1.7,1.5L89,127.8h-9.6
	c-1,0-1.8,0.8-1.8,1.7v9.4c0,1,0.8,1.8,1.8,1.8h7.9l-4.5,34.9c-0.1,1,0.7,2,1.7,2H94c0.9,0,1.6-0.7,1.7-1.5l1.6-12.2h15.5v11.9
	c0,1,0.8,1.8,1.8,1.8h9.5c1,0,1.8-0.8,1.8-1.8V164h15.5l1.6,12.2c0.1,0.9,0.9,1.5,1.7,1.5h9.4c1.1,0,1.9-0.9,1.7-2l-4.5-34.9h7.9
	c1,0,1.8-0.8,1.8-1.8v-9.4C160.8,128.6,160,127.8,159.1,127.8z M125.7,140.8h12.5l1.3,10.3h-13.8V140.8z M125.7,117.6h9.5l1.3,10.3
	h-10.8V117.6z M112.7,127.8H102l1.3-10.3h9.5V127.8z M112.7,151H99l1.3-10.3h12.5V151z M95.7,160.5c-0.9,0-1.6,0.7-1.7,1.5
	l-1.6,12.2h-5.9l4.5-34.9c0.1-1-0.7-2-1.7-2h-8.2v-5.9h9.4c0.9,0,1.6-0.7,1.7-1.5l4.3-32.9h5.9l-1.2,9.3c-0.1,1,0.7,2,1.7,2h9.8v5.9
	h-11c-0.9,0-1.6,0.7-1.7,1.5l-1.8,13.8c-0.1,1,0.7,2,1.7,2h12.8v5.9h-14c-0.9,0-1.6,0.7-1.7,1.5l-1.8,13.8c-0.1,1,0.7,2,1.7,2h15.8
	v5.9H95.7z M122.2,174.2h-6c0-27.7,0-62.2,0-88.7c0-1-0.8-1.8-1.8-1.8h-9.3v-6h9.3c1,0,1.8-0.8,1.8-1.8V64.3h6V76
	c0,1,0.8,1.8,1.8,1.8h9.3v6H124c-1,0-1.8,0.8-1.8,1.8C122.2,116,122.2,143.5,122.2,174.2z M157.3,137.3h-8.2c-1.1,0-1.9,0.9-1.7,2
	l4.5,34.9H146l-1.6-12.2c-0.1-0.9-0.9-1.5-1.7-1.5h-17v-5.9h15.8c1.1,0,1.9-0.9,1.7-2l-1.8-13.8c-0.1-0.9-0.9-1.5-1.7-1.5h-14v-5.9
	h12.8c1.1,0,1.9-0.9,1.7-2l-1.8-13.8c-0.1-0.9-0.9-1.5-1.7-1.5h-11v-5.9h9.8c1.1,0,1.9-0.9,1.7-2l-1.2-9.3h5.9l4.3,32.9
	c0.1,0.9,0.9,1.5,1.7,1.5h9.4V137.3z"/>
</svg>
