<?xml version="1.0" encoding="utf-8"?>
<!-- Generator: Adobe Illustrator 28.3.0, SVG Export Plug-In . SVG Version: 6.00 Build 0)  -->
<svg version="1.1" id="OUTLINE" xmlns="http://www.w3.org/2000/svg" xmlns:xlink="http://www.w3.org/1999/xlink" x="0px" y="0px"
	 viewBox="0 0 238.5 238.5" style="enable-background:new 0 0 238.5 238.5;" xml:space="preserve">
<style type="text/css">
	.st0{fill:#F9F8F2;}
	.st1{fill:#0D8E49;}
</style>
<rect x="-315.5" y="-898.2" class="st0" width="1688.5" height="1170.6"/>
<g>
	<path class="st1" d="M169.8,141.3c-9.9,0-36.1,0-46.6,0l37.2-37.2c0,0,0,0,0,0c3.2-3.2,3.2-8.4,0-11.6L146,78.1
		c-3.2-3.2-8.4-3.3-11.6,0c-13.5,13.5-16,16-37.2,37.2c0-0.5,0-46.3,0-46.6c0-4.5-3.7-8.2-8.2-8.2H68.6c-4.5,0-8.2,3.7-8.2,8.2
		c0,38.1,0,63.2,0,101.2c0,4.5,3.7,8.2,8.2,8.2c51.8,0,47.1,0,101.2,0c4.5,0,8.2-3.7,8.2-8.2v-20.3
		C178,144.9,174.3,141.3,169.8,141.3z M84.8,132.6l8.8,8.6H76.2L84.8,132.6z M119,144.8h3.3v29.7H99.7v-29.7H119z M125.8,144.8h22.6
		v29.7h-22.6V144.8z M98.6,141.3l-11.4-11.1l16-16l21,21l-6,6H98.6z M121.7,95.7l21,21l-16,16l-21-21L121.7,95.7z M136.8,80.6
		c1.8-1.8,4.8-1.9,6.7,0L157.9,95c1.8,1.8,1.8,4.8,0,6.7l-12.7,12.7l-21-21L136.8,80.6z M71.2,141.3h-2.6c-1.7,0-3.4,0.6-4.7,1.5
		v-26.6h29.7v2.6C91.5,121,74,138.4,71.2,141.3z M93.7,112.7H63.9V90.1h29.7V112.7z M68.6,63.9H89c2.6,0,4.7,2.1,4.7,4.7v17.9H63.9
		V68.6C63.9,66.1,66.1,63.9,68.6,63.9z M63.9,169.8v-20.3c0-2.6,2.1-4.7,4.7-4.7c6.8,0,20.2,0,27.5,0v29.7H68.6
		C66.1,174.5,63.9,172.4,63.9,169.8z M174.5,169.8c0,2.6-2.1,4.7-4.7,4.7h-17.9v-29.7h17.9c2.6,0,4.7,2.1,4.7,4.7V169.8z"/>
	<path class="st1" d="M78.8,153.5c-3.4,0-6.1,2.7-6.1,6.1c0,3.4,2.7,6.1,6.1,6.1c3.4,0,6.1-2.7,6.1-6.1
		C84.9,156.3,82.2,153.5,78.8,153.5z M78.8,162.2c-1.4,0-2.6-1.2-2.6-2.6c0-1.4,1.2-2.6,2.6-2.6c1.4,0,2.6,1.2,2.6,2.6
		C81.4,161.1,80.2,162.2,78.8,162.2z"/>
</g>
</svg>
