<?xml version="1.0" encoding="utf-8"?>
<!-- Generator: Adobe Illustrator 28.3.0, SVG Export Plug-In . SVG Version: 6.00 Build 0)  -->
<svg version="1.1" id="OUTLINE" xmlns="http://www.w3.org/2000/svg" xmlns:xlink="http://www.w3.org/1999/xlink" x="0px" y="0px"
	 viewBox="0 0 238.5 238.5" style="enable-background:new 0 0 238.5 238.5;" xml:space="preserve">
<style type="text/css">
	.st0{fill:#F9F8F2;}
	.st1{fill:#0D8E49;}
</style>
<rect x="-315.5" y="-325.3" class="st0" width="1688.5" height="1170.6"/>
<path class="st1" d="M139.5,67.9V67c0-3.6-2.9-6.5-6.5-6.5h-27.5c-3.6,0-6.5,2.9-6.5,6.5v0.9c-15,0.9-26.9,13.4-26.9,28.6v9.2
	c0,5,4.1,9.1,9.1,9.1h3c0,9.7,0,39,0,48.9c0,7.9,6.4,14.3,14.3,14.3h41.4c7.9,0,14.3-6.4,14.3-14.3c0-10,0-38.9,0-48.9h3
	c5,0,9.1-4.1,9.1-9.1v-9.2C166.4,81.3,154.5,68.8,139.5,67.9z M105.5,63.9H133c1.7,0,3,1.4,3,3c0,0.2,0,4.7,0,4.6c0,1.7-1.4,3-3,3
	h-27.5c-1.7,0-3-1.4-3-3c0-0.7,0-4.7,0-4.6C102.4,65.3,103.8,63.9,105.5,63.9z M107.6,103.6c-4.9,0-9,4-9,9V128c0,3-2.5,5.5-5.5,5.5
	s-5.5-2.5-5.5-5.5V97.9c0-0.6,0.5-1.1,1.1-1.1h38.7v23.9c0,3-2.5,5.5-5.5,5.5s-5.5-2.5-5.5-5.5v-8
	C116.6,107.6,112.6,103.6,107.6,103.6z M93.2,137c4.9,0,9-4,9-9v-15.4c0-3,2.5-5.5,5.5-5.5s5.5,2.5,5.5,5.5v8c0,4.9,4,9,9,9
	c4.9,0,9-4,9-9V96.7h18.6c0.6,0,1.1,0.5,1.1,1.1c0,5.1,0,48.5,0,53.7h-63v-16.5C89.2,136.2,91.1,137,93.2,137z M150.7,158.9h-63
	v-3.8h63V158.9z M139.9,174.5H98.5c-6,0-10.8-4.9-10.8-10.8v-1.3h63v1.3C150.7,169.7,145.9,174.5,139.9,174.5z M162.9,105.7
	c0,3.1-2.5,5.6-5.6,5.6h-3V97.9c0-2.6-2.1-4.6-4.6-4.6h-20.3H88.9c-2.6,0-4.6,2.1-4.6,4.6v13.4h-3c-3.1,0-5.6-2.5-5.6-5.6v-9.2
	c0-13.3,10.3-24.2,23.4-25.1v0.1c0,3.6,2.9,6.5,6.5,6.5H133c3.6,0,6.5-2.9,6.5-6.5v-0.1c13,0.9,23.4,11.9,23.4,25.1V105.7z"/>
</svg>
