<?xml version="1.0" encoding="utf-8"?>
<!-- Generator: Adobe Illustrator 28.3.0, SVG Export Plug-In . SVG Version: 6.00 Build 0)  -->
<svg version="1.1" id="Layer_1" xmlns="http://www.w3.org/2000/svg" xmlns:xlink="http://www.w3.org/1999/xlink" x="0px" y="0px"
	 viewBox="0 0 1000 1000" style="enable-background:new 0 0 1000 1000;" xml:space="preserve">
<style type="text/css">
	.st0{fill:#40403F;}
	.st1{fill:#0764B0;}
	.st2{fill:#F9F8F2;}
	.st3{fill:#204F26;}
	.st4{fill:#202020;}
</style>
<rect class="st3" width="1000" height="1000"/>
<g>
	<g>
		<g>
			<g>
				<path class="st2" d="M542,428.8c3.6,2.9,13.4,3.9,24.9,2.6c15.7-1.7,25-6.8,24.6-10.5c-0.1-0.7-0.5-1.4-1.2-2
					c-2.6-2.1-8.3-3.2-15.6-3.2c-2.9,0-6.1,0.2-9.4,0.5c-15.7,1.7-25,6.8-24.6,10.5C540.8,427.6,541.2,428.2,542,428.8z
					 M565.5,417.8c12.2-1.3,22.4-0.1,22.8,3.1c0.4,3.2-9.1,6.9-21.3,8.2c-12.2,1.3-22.4-0.2-22.8-3.4
					C543.8,422.5,553.3,419.1,565.5,417.8z M605.9,323.5c-1.5-0.2-3,0.6-3.5,2c-1.2,3-2.5,5.5-4.3,7.7c-4.4-4.2-10.5-7.8-20.2-7.8
					c-20,0-32.2,15.5-32.2,30.3c0,9,4.3,15.3,12.2,19.3c4.3,2.4,7,2.8,7,3.5c0,0.7-1.3,0.9-8,3c-4.9,1.6-7.5,2.6-8.4,3.3
					c-3,2.6-6.7,12.5-6.7,15.8c0,2.4,0.8,3.3,5.3,4.5c3,0.9,3.8,1,3.8,1.4c0,0.3-1.8,0.9-3.1,1.4c-0.9,0.3-1.8,0.4-2.7,0.4
					c-8.6-0.3-9.5-1.1-9.5-1.9c0-1,0.5-5,1-9.1l10.2-73.2c0.3-2.1,2.5-16.5,3.1-18.5c0.5-1.6,1.1-2.3,2.4-3c0.9-0.4,1.3-1.4,1-2.3
					c-0.3-1-1.5-1.6-2.5-1.2c-16,5.6-17.9,7.6-20.1,10.1c-2.6,3-14.3,18.4-16.9,21.9l-10,13.1c-18.9,24.1-49.6,64.9-85.3,64.9
					c-13.8,0-23.3-7-23.3-16.8c0-6.9,4.6-12,10.7-12c10.2,0,3.1,9,13.6,9c3.4,0,4.6-0.8,4.6-3.4c0-4.3-3.9-12.3-13.8-12.3
					c-10.3,0-19,8.5-19,18.9c0,13.3,14.3,21.4,30.4,21.4c2.7,0,5.3-0.3,7.9-0.7c-17,9.1-18.7,21.1-18.7,25.8
					c0,10.2,7,15.7,15.8,15.7c11.5,0,17.9-9.3,17.9-12.8c0-2.1-3-2.2-4.5-2.2c-8.3,0-5.6,9.3-15.2,9.3c-4.8,0-10.2-3.5-10.2-10.2
					c0-20.6,30.7-26.9,40-26.9c3.8,0,5.1,1.4,5.6,6.1l10.7,95.1c0.3,2.6,0.6,6.2,2.6,6.2c1.4,0,11.2-12.6,12-13.6
					c6.1-7.2,33.6-52.4,39.8-62.2h0.3l8.5,69.5c0.3,2.6,0.5,6.7,2.6,6.2c1.4-0.3,10.7-12.3,11.5-13.3c0.2-0.3,0.5-0.7,0.9-1.2
					c2.2,0.8,8.9,3,18.2,3c8.6,0,19.5-1.9,31.2-8.4c0.6-0.3,1-0.8,1.3-1.4c0.3-0.6,0.4-1.2,0.4-1.8l-4.9-57.3l0,0
					c4.8-8.3,7.2-14.9,7.4-21.7c0-0.5-0.1-0.9-0.1-1.4c0-0.2,0-0.4,0-0.5c0-15.3-12.7-16.7-37.3-19.5c-13.4-1.6-14.7-1.9-14.7-3.7
					c0-0.9,1.3-5,3.2-5.7c12.5-4.5,16.2-5.4,26.7-7.8c16.9-3.8,24.4-16.7,24.4-29.5c0-5.2-1.2-7.5-2.3-9.9c1.9-2.3,4.1-5.1,6-10.9
					C609.3,326,608,323.8,605.9,323.5z M497.6,359l31.8-42.4c1-1.3,1.3-1.4,1.6-1.4c0.3,0,0.5,0.2,0.5,0.6c0,0.6-0.3,2.5-0.7,5.1
					l-5.6,39.3c-0.2,1.1-0.2,1.6-0.3,1.8c-0.2,0.2-0.5,0.2-1.3,0.2h-25.4c-1.5,0-2.5-0.2-2.5-0.5C495.8,361.4,496.6,360.3,497.6,359
					z M489.3,492.3c-0.8,1.3-3.2,5-4,5c-0.3,0-0.5-0.8-0.5-1.8l-9.4-93.8c-4.6,0.4-14.5,1.4-25.3,4c16.1-8.9,30.1-23.7,40.4-36.5
					c1.6-2.1,2.3-2.1,7.9-2.1h24c1,0,1.8,0.2,1.8,1c0,0.8-0.3,3.5-0.6,5.4l-3.3,23.8c-0.3,2.1-1.3,9.1-2.1,9.8
					c-0.8,0.6-9.5,1.3-12.1,1.3v3.8c3,0,13.5-0.3,20.5-0.3c2.2,0,5,0,7.7,0.1C506.7,465,503.3,470.3,489.3,492.3z M548.3,493.6
					c-0.3,0-0.3,0.2-0.3,0.2l-6.9-59.4c5,2,11.4,3,18.4,3c12.1,0,25.1-2.8,32.5-7.2c-3.1,7.1-7.7,19-25.3,42.1
					C564.3,476.2,549.7,493.6,548.3,493.6z M596.5,496.1c-20.4,11.3-38.6,7.4-44.7,5.6l25.9-37.2c5.3-7.3,9.6-13.5,13.1-18.9
					l1.2-1.7L596.5,496.1z M565.2,415.1c11.9-1.3,22-0.2,25.8,2.9c1,0.8,1.6,1.8,1.7,2.8c0.5,5.1-10.5,10.2-25.7,11.9
					c-3.3,0.4-6.4,0.5-9.4,0.5c-7.6,0-13.7-1.2-16.5-3.4c-1-0.8-1.6-1.8-1.7-2.8C539,421.9,550,416.8,565.2,415.1z M575.8,375.1
					c-3.8,1.5-8.1,0.8-11-2.1c-3.4-3.4-5.2-8.6-5.2-14.9c0-12.9,7.9-28.9,19.4-28.9c9,0,11.9,7.8,11.9,16.9
					C590.9,359.2,585.7,371.1,575.8,375.1z"/>
			</g>
		</g>
	</g>
	<g>
		<g>
			<path class="st2" d="M342.1,632.1c0-3.3-2.4-5.7-5.6-5.7c-3.1,0-5.5,2.5-5.5,5.7c0,3.3,2.4,5.7,5.5,5.7
				C339.7,637.9,342.1,635.5,342.1,632.1z M376.3,670.4c3.5,0.5,3.8,0.9,3.8,5.3v18.6c0,4.4-0.2,4.7-3.8,5.4v0.8h13.5v-0.8
				c-3.6-0.6-3.8-0.9-3.8-5.4v-18.6c0-4.5,0.4-4.7,3.8-5.3v-0.8h-13.5V670.4z M427.3,670.4c4.1,0.5,5.2,1.2,5.4,4.5
				c0,1.3,0.2,2.6,0.2,7.5v8.7l-18.4-21.5h-9.1v0.8c2.1,0.3,2.9,0.7,4.2,2.3c0.5,0.6,0.8,1.5,0.8,2.5v12.4c0,3.9-0.1,5.8-0.2,7.5
				c-0.2,3.3-0.6,4-4.1,4.6v0.8h11v-0.8c-4.4-0.6-4.7-1.5-4.9-4.7c-0.1-1.6-0.1-2.9-0.1-7.4v-12.1l21.3,25.6h1.2v-18.7
				c0-4.9,0.1-6.1,0.1-7.6c0.1-3.2,0.8-3.7,3.9-4.4v-0.8h-11.1V670.4z M456.2,581.1h-19.4v1.3c8.2,1.3,8.7,2.7,7,8.8
				c-2.7,9.6-5.1,18.4-8.7,29.6c-4.9-12.8-10.1-25.7-15.2-39H418c-2.6,7.6-9.3,27.5-13.4,39.1c-3-9.6-6.6-21.2-9.5-31
				c-1.5-4.8-1.2-6.3,5.3-7.5v-1.3H376v1.3c5.7,1,6.4,2.4,8.8,10c4.7,15.4,9.4,30.4,14,45.8h2.4c4.1-12.5,9.1-26.1,14-39.8
				c5.3,13.6,10.2,26.4,15,39.8h2.4c5.2-17.1,11.9-38.9,14.2-45.5c2.7-8,3.3-9.2,9.5-10.3V581.1z M359.3,668.6c-0.9,0.9-1.7,1-2.9,1
				h-19c-1.3,0-2.1,0-2.9-1h-0.7c-0.1,2.4-0.3,5.6-0.6,8.2h0.8c0.6-1.9,1.3-3.6,2.1-4.5c0.7-0.7,1.2-1.2,3.3-1.2h4.3v23.6
				c0,4.2-0.5,4.3-4,5.1v0.8h14v-0.8c-3.7-0.6-4.2-1-4.2-5.1V671h3.9c2.4,0,3,0.2,3.8,1.1c1.2,1.3,1.5,2.7,2.1,4.5l0.8-0.1
				c-0.2-2.4-0.3-5.8-0.3-8H359.3z M295.7,612.5c6.9,1.1,7.6,2,7.6,7.5v8.7c0,4.3-0.9,5.3-2.1,6.1c-1.6,1-4.6,1.4-6.4,1.4
				c-14.2,0-18.8-13.4-18.8-28.7c0-16.6,7.2-25.4,18.5-25.4c3.3,0,6.2,0.3,9,1.3c5.7,1.9,8.2,6.8,9.4,11.8l1.4-0.3
				c-0.6-5.1-0.8-9.5-0.9-13.3c-2.4-0.2-8.4-1.6-16.8-1.6c-17.5,0-32.6,9.9-32.6,29.7c0,16.8,10.7,28.6,30.6,28.6
				c6.7,0,15.1-2,20.1-2.9c-0.4-2.4-0.6-5.2-0.6-8.3v-8.1c0-4.5,0.9-5.1,5.5-6.3v-1.4h-23.8V612.5z M207,635.5v1.4h23.8v-1.4
				c-5.2-1.1-6.1-2-9.1-10.2c-5.7-15-11.2-29.9-16.6-45.1l-2.3,0.3L185,625.8c-3,7.6-4.1,8.8-9.8,9.7v1.4h18.6v-1.4
				c-7.5-1.4-8.2-2.1-6.2-7.9c1-3.1,2.4-6.9,3.9-10.9h15.7c1.8,4.8,3.3,9.3,4.3,12.1C213,633.2,212.9,634.2,207,635.5z M192.5,613.9
				c2.4-6.3,4.4-12.2,7-19.3l6.6,19.3H192.5z M306.3,670.4c4.1,0.5,5.2,1.2,5.4,4.5c0,1.3,0.2,2.6,0.2,7.5v8.7l-18.4-21.5h-9.1v0.8
				c2.1,0.3,2.9,0.7,4.2,2.3c0.5,0.6,0.8,1.5,0.8,2.5v12.4c0,3.9-0.1,5.8-0.2,7.5c-0.2,3.3-0.6,4-4.1,4.6v0.8h11v-0.8
				c-4.4-0.6-4.7-1.5-4.9-4.7c-0.1-1.6-0.1-2.9-0.1-7.4v-12.1l21.3,25.6h1.2v-18.7c0-4.9,0.1-6.1,0.1-7.6c0.1-3.2,0.8-3.7,3.9-4.4
				v-0.8h-11.1V670.4z M235,694.1c-3.1-8.3-6.2-16.6-9.2-25l-1.3,0.2l-9.8,25.1c-1.7,4.2-2.3,4.8-5.4,5.4v0.8h10.3v-0.8
				c-4.1-0.8-4.5-1.2-3.4-4.4c0.6-1.7,1.3-3.8,2.1-6h8.7c1,2.7,1.8,5.1,2.4,6.7c0.9,2.5,0.8,3-2.5,3.7v0.8h13.1v-0.8
				C237.2,699.1,236.7,698.6,235,694.1z M218.9,687.8c1.3-3.5,2.4-6.7,3.9-10.7l3.7,10.7H218.9z M195.8,671.5
				c-1.8-1.2-4.3-1.9-8.1-1.9h-12.6v0.8c3.4,0.6,3.8,0.9,3.8,5.1v19.1c0,4.2-0.3,4.5-3.8,5.1v0.8H189v-0.8c-3.7-0.5-4.2-0.9-4.2-5.1
				v-7.5l2.8,0.6c0.3,0,0.7,0.1,0.9,0.1c4.7,0,10.7-2.8,10.7-9.6C199.2,675.2,198.1,673,195.8,671.5z M187.4,686.3
				c-1,0-1.9,0-2.5-0.2v-13.5c0-0.8,0-1.2,0.5-1.5c0.3-0.2,1-0.3,1.9-0.3c3.3,0,5.7,1.9,5.7,7.5
				C192.9,685.6,188.8,686.3,187.4,686.3z M247.3,626.4c-3.1,0-5.5,2.5-5.5,5.7c0,3.3,2.4,5.7,5.5,5.7c3.2,0,5.6-2.4,5.6-5.7
				C252.9,628.8,250.5,626.4,247.3,626.4z M255.2,670.4c3.5,0.5,3.8,0.9,3.8,5.3v18.6c0,4.4-0.2,4.7-3.8,5.4v0.8h13.5v-0.8
				c-3.6-0.6-3.8-0.9-3.8-5.4v-18.6c0-4.5,0.4-4.7,3.8-5.3v-0.8h-13.5V670.4z M760.8,624.6c-0.1,9-0.5,9.6-6.7,10.8v1.4h24.6v-1.4
				c-6.9-1.3-7.2-2.2-7.3-10.8l-0.3-32.3c-0.1-8.1,0.5-8.7,7.6-10v-1.4h-16.2l-17.8,39.6l-17.4-39.6h-17v1.4c7.4,0.8,8.2,3.9,8.1,6
				c-2.1,34-2.4,38.6-2.8,41.4c-0.5,3.3-1.7,4.7-7.7,5.6v1.4h20.2v-1.4c-6.6-1-8.5-2-8.7-5.7c-0.1-2.8,0.1-13,1.3-39.2
				c6.3,15.1,17.2,42.3,18.8,46.3h1.3c1.4-3.7,13.8-32.5,20.3-47.7L760.8,624.6z M689.6,625.2c-5.7-15-11.2-29.9-16.6-45.1l-2.3,0.3
				l-17.8,45.3c-3,7.6-4.1,8.8-9.8,9.7v1.4h18.6v-1.4c-7.5-1.4-8.2-2.1-6.2-7.9c1-3.1,2.4-6.9,3.9-10.9h15.7
				c1.8,4.8,3.3,9.3,4.3,12.1c1.5,4.5,1.5,5.4-4.5,6.7v1.4h23.8v-1.4C693.5,634.3,692.6,633.5,689.6,625.2z M660.4,613.9
				c2.4-6.3,4.4-12.2,7-19.3l6.6,19.3H660.4z M728.4,694.1c-3.1-8.3-6.2-16.6-9.2-25l-1.3,0.2l-9.8,25.1c-1.7,4.2-2.3,4.8-5.4,5.4
				v0.8H713v-0.8c-4.1-0.8-4.5-1.2-3.4-4.4c0.6-1.7,1.3-3.8,2.1-6h8.7c1,2.7,1.8,5.1,2.4,6.7c0.9,2.5,0.8,3-2.5,3.7v0.8h13.1v-0.8
				C730.5,699.1,730,698.6,728.4,694.1z M712.2,687.8c1.3-3.5,2.4-6.7,3.9-10.7l3.7,10.7H712.2z M689.2,671.5
				c-1.8-1.2-4.3-1.9-8.1-1.9h-12.6v0.8c3.4,0.6,3.8,0.9,3.8,5.1v19.1c0,4.2-0.3,4.5-3.8,5.1v0.8h13.9v-0.8
				c-3.7-0.5-4.2-0.9-4.2-5.1v-7.5l2.8,0.6c0.3,0,0.7,0.1,0.9,0.1c4.7,0,10.7-2.8,10.7-9.6C692.6,675.2,691.4,673,689.2,671.5z
				 M680.7,686.3c-1,0-1.9,0-2.5-0.2v-13.5c0-0.8,0-1.2,0.5-1.5c0.3-0.2,1-0.3,1.9-0.3c3.3,0,5.7,1.9,5.7,7.5
				C686.3,685.6,682.2,686.3,680.7,686.3z M824.8,621.2c0-9-6.6-13.6-14-18c-7.4-4.4-10.4-6.9-10.4-12.4c0-5.5,2.9-9,8.1-9
				c6.6,0,10.7,4.3,12.5,11.4l1.4-0.3c-0.6-4.1-1.1-8.8-1.5-12c-1.8-0.1-5.7-1.1-10.9-1.1c-11.4,0-18.4,6.9-18.4,15.7
				c0,8.8,6.3,13.1,14,17.8c6.1,3.7,9.3,7.6,9.3,13c0,5.7-2.6,9.8-8.5,9.8c-7.9,0-13-6-14.8-13.5l-1.4,0.3
				c0.1,1.4,1.4,11.5,1.9,13.1c4.7,1.2,8.8,2.1,13,2.1C816.5,638.1,824.8,631.1,824.8,621.2z M814.9,670.4c3.9,0.6,3.8,1.4,2.9,3.5
				c-1.3,2.9-3.7,7.8-5.4,11.1c-2.1-4.1-4.2-7.9-6-11.5c-1-2-0.8-2.4,2.3-3.1v-0.8h-13.1v0.8c2.8,0.5,3.1,1,5.2,4.6
				c2.6,4.6,4.6,8.4,5.8,10.9c0.4,0.9,0.6,1.5,0.6,2.5v5.4c0,5-0.2,5.5-4,6v0.8h14v-0.8c-3.7-0.7-4-0.9-4-6v-6.2
				c0-1,0.2-1.4,0.6-2.2c1.8-3.6,3.7-7.4,5.6-10.8c1.7-2.9,2.1-3.7,5.4-4.1v-0.8h-9.9V670.4z M769.5,670.4c4.1,0.5,5.2,1.2,5.4,4.5
				c0,1.3,0.2,2.6,0.2,7.5v8.7l-18.4-21.5h-9.1v0.8c2.1,0.3,2.9,0.7,4.2,2.3c0.5,0.6,0.8,1.5,0.8,2.5v12.4c0,3.9-0.1,5.8-0.2,7.5
				c-0.2,3.3-0.6,4-4.1,4.6v0.8h11v-0.8c-4.4-0.6-4.7-1.5-4.9-4.7c-0.1-1.6-0.1-2.9-0.1-7.4v-12.1l21.3,25.6h1.2v-18.7
				c0-4.9,0.1-6.1,0.1-7.6c0.1-3.2,0.8-3.7,3.9-4.4v-0.8h-11.1V670.4z M633.7,691.5l-9.6-21.9h-9.4v0.8c4.1,0.4,4.5,2.2,4.5,3.3
				c-1.1,18.8-1.3,21.3-1.6,22.9c-0.3,1.8-0.9,2.6-4.3,3.1v0.8h11.1v-0.8c-3.7-0.6-4.7-1.1-4.8-3.2c0-1.6,0-7.2,0.7-21.7
				c3.5,8.4,9.5,23.4,10.4,25.6h0.7c0.8-2,7.6-18,11.2-26.4l-0.1,19.6c0,5-0.3,5.3-3.7,6v0.8h13.6v-0.8c-3.8-0.7-4-1.2-4-6
				l-0.2-17.8c0-4.5,0.3-4.8,4.2-5.5v-0.8h-9L633.7,691.5z M465.9,582.4c6.3,0.9,6.9,1.6,6.9,9.6v33.7c0,8-0.4,8.6-6.9,9.7v1.4h24.5
				v-1.4c-6.4-1.1-6.9-1.5-6.9-9.8V592c0-8.1,0.7-8.5,6.9-9.6v-1.4h-24.5V582.4z M541.5,700c-7,0-11.3-6.5-11.3-15.7
				c0-7.8,3-14.2,10.2-14.2c1.9,0,3.3,0.2,4.6,0.9c2.7,1.2,3.8,3,4.8,6.4l0.9-0.2c-0.2-1.9-0.6-4.8-0.7-7.3
				c-1.1-0.1-4.6-0.9-8.4-0.9c-11.1,0-18.1,6.8-18.1,16.2c0,8.3,5.2,16,17.5,16c3.2,0,6.9-0.9,8.1-1.1c0.7-1.4,1.8-5.2,2.3-7.2
				l-0.8-0.3C548.5,697.3,545.9,700,541.5,700z M546.1,622.8l-1.3-0.3c-1.5,3.5-3.5,7.3-5.3,9c-2.2,2.1-3.4,2.7-8.1,2.7
				c-1.3,0-3.7,0-5.1,0c-4.3,0-5.7-0.5-5.7-5.9v-36.7c0-7.4,0.6-8,7-9.2v-1.4h-24.8v1.4c6.5,1.1,7.1,1.5,7.1,9.2v34.7
				c0,7.4-0.4,8.1-8,9.2v1.4h40.6C543,635.5,545.3,626.8,546.1,622.8z M470.9,687c3.8,0.6,4.2,1.1,4.2,4.1v4.8
				c0,2.4-0.5,2.9-1.2,3.4c-0.9,0.6-2.6,0.8-3.6,0.8c-7.9,0-10.4-7.4-10.4-15.8c0-9.2,4-14,10.2-14c1.9,0,3.4,0.2,5,0.7
				c3.2,1,4.6,3.7,5.2,6.5l0.8-0.1c-0.3-2.8-0.4-5.3-0.5-7.4c-1.3-0.1-4.6-0.9-9.3-0.9c-9.7,0-18,5.5-18,16.4
				c0,9.3,5.9,15.8,16.9,15.8c3.7,0,8.4-1.1,11.1-1.6c-0.2-1.3-0.3-2.9-0.3-4.6v-4.5c0-2.5,0.5-2.8,3-3.5v-0.8h-13.1V687z
				 M592.5,631.5c-2.2,2.1-3.4,2.7-8.1,2.7c-1.3,0-3.7,0-5.1,0c-4.3,0-5.7-0.5-5.7-5.9v-36.7c0-7.4,0.6-8,7-9.2v-1.4h-24.8v1.4
				c6.5,1.1,7.1,1.5,7.1,9.2v34.7c0,7.4-0.4,8.1-8,9.2v1.4h40.6c0.5-1.3,2.8-10,3.6-14l-1.3-0.3C596.3,626,594.3,629.8,592.5,631.5z
				 M633.2,635.5c-6.4-1.1-6.9-1.5-6.9-9.8V592c0-8.1,0.7-8.5,6.9-9.6v-1.4h-24.5v1.4c6.3,0.9,6.9,1.6,6.9,9.6v33.7
				c0,8-0.4,8.6-6.9,9.7v1.4h24.5V635.5z M583.6,669c-10,0-15.9,8.2-15.9,16.3c0,8.8,6.5,15.9,15.8,15.9c8.6,0,15.6-6.5,15.6-16.4
				C599,675.6,592,669,583.6,669z M584.2,700c-6.2,0-9.8-6.9-9.8-15.8c0-9.4,3.5-14,8.2-14c5.8,0,9.6,5.9,9.6,15.8
				C592.2,695.2,589,700,584.2,700z"/>
		</g>
	</g>
</g>
</svg>
