<?xml version="1.0" encoding="utf-8"?>

<svg version="1.1" id="Layer_1" xmlns="http://www.w3.org/2000/svg" xmlns:xlink="http://www.w3.org/1999/xlink" x="0px" y="0px" viewBox="0 0 1000 1000" style="enable-background:new 0 0 1000 1000;" xml:space="preserve">

<g>
&#x9;<rect class="st0" fill="none" width="1000" height="1000"></rect>
</g>
<g>
&#x9;<g>
&#x9;&#x9;<g>
&#x9;&#x9;&#x9;<g>
&#x9;&#x9;&#x9;&#x9;<path class="st6" fill="#0063B0" d="M247.9,430.1c-1.2-0.2-2.4,0.5-2.9,1.7c-1,2.5-2.1,4.5-3.5,6.3c-3.6-3.4-8.6-6.4-16.5-6.4&#xA;&#x9;&#x9;&#x9;&#x9;&#x9;c-16.4,0-26.4,12.7-26.4,24.8c0,7.4,3.6,12.5,10,15.8c3.6,2,5.7,2.3,5.7,2.8c0,0.6-1.1,0.7-6.6,2.4c-4,1.3-6.2,2.1-6.8,2.7&#xA;&#x9;&#x9;&#x9;&#x9;&#x9;c-2.5,2.1-5.5,10.2-5.5,12.9c0,2,0.7,2.7,4.4,3.7c2.5,0.7,3.1,0.9,3.1,1.1c0,0.2-1.5,0.8-2.5,1.1c-0.7,0.2-1.4,0.3-2.2,0.3&#xA;&#x9;&#x9;&#x9;&#x9;&#x9;c-7-0.3-7.8-0.9-7.8-1.5c0-0.8,0.4-4.1,0.8-7.5l8.3-59.9c0.3-1.7,2-13.5,2.6-15.2c0.4-1.3,0.9-1.9,2-2.5c0.7-0.4,1-1.2,0.8-1.9&#xA;&#x9;&#x9;&#x9;&#x9;&#x9;c-0.3-0.8-1.2-1.3-2-1c-13.1,4.6-14.7,6.2-16.5,8.2c-2.2,2.5-11.7,15-13.8,17.9l-8.2,10.7c-15.4,19.7-40.6,53.1-69.8,53.1&#xA;&#x9;&#x9;&#x9;&#x9;&#x9;c-11.3,0-19.1-5.8-19.1-13.7c0-5.6,3.8-9.8,8.7-9.8c8.3,0,2.5,7.3,11.1,7.3c2.8,0,3.8-0.6,3.8-2.7c0-3.5-3.2-10.1-11.3-10.1&#xA;&#x9;&#x9;&#x9;&#x9;&#x9;c-8.5,0-15.6,6.9-15.6,15.4c0,10.9,11.7,17.5,24.8,17.5c2.2,0,4.3-0.2,6.5-0.6c-13.9,7.5-15.3,17.3-15.3,21.1&#xA;&#x9;&#x9;&#x9;&#x9;&#x9;c0,8.4,5.8,12.8,12.9,12.8c9.4,0,14.7-7.6,14.7-10.5c0-1.7-2.5-1.8-3.7-1.8c-6.8,0-4.6,7.6-12.4,7.6c-3.9,0-8.4-2.9-8.4-8.4&#xA;&#x9;&#x9;&#x9;&#x9;&#x9;c0-16.9,25.1-22,32.7-22c3.1,0,4.2,1.2,4.6,5l8.8,77.8c0.3,2.1,0.5,5.1,2.1,5.1c1.2,0,9.2-10.3,9.8-11.1&#xA;&#x9;&#x9;&#x9;&#x9;&#x9;c5-5.9,27.5-42.9,32.6-50.9h0.3l6.9,56.9c0.3,2.1,0.4,5.5,2.1,5.1c1.1-0.3,8.8-10.1,9.4-10.9c0.2-0.2,0.4-0.5,0.7-1&#xA;&#x9;&#x9;&#x9;&#x9;&#x9;c1.8,0.7,7.2,2.4,14.9,2.4c7.1,0,16-1.5,25.6-6.9c0.5-0.3,0.8-0.6,1.1-1.1c0.2-0.5,0.3-1,0.3-1.5l-4-46.9l0,0&#xA;&#x9;&#x9;&#x9;&#x9;&#x9;c3.9-6.8,5.9-12.2,6.1-17.8c0-0.4,0-0.7-0.1-1.1c0-0.1,0-0.3,0-0.4c0-12.5-10.4-13.7-30.5-15.9c-10.9-1.3-12-1.6-12-3&#xA;&#x9;&#x9;&#x9;&#x9;&#x9;c0-0.7,1.1-4.1,2.6-4.7c10.3-3.7,13.3-4.4,21.9-6.4c13.8-3.1,20-13.7,20-24.2c0-4.3-1-6.1-1.9-8.1c1.6-1.9,3.4-4.2,4.9-8.9&#xA;&#x9;&#x9;&#x9;&#x9;&#x9;C250.7,432.1,249.6,430.4,247.9,430.1z M159.3,459.2l26.1-34.7c0.8-1,1.1-1.2,1.3-1.2c0.3,0,0.4,0.1,0.4,0.5&#xA;&#x9;&#x9;&#x9;&#x9;&#x9;c0,0.5-0.3,2.1-0.5,4.2l-4.6,32.2c-0.1,0.9-0.1,1.3-0.3,1.4c-0.1,0.1-0.4,0.1-1.1,0.1h-20.8c-1.2,0-2-0.1-2-0.4&#xA;&#x9;&#x9;&#x9;&#x9;&#x9;C157.8,461.1,158.5,460.2,159.3,459.2z M152.5,568.2c-0.7,1.1-2.6,4.1-3.3,4.1c-0.3,0-0.4-0.6-0.4-1.4l-7.7-76.8&#xA;&#x9;&#x9;&#x9;&#x9;&#x9;c-3.7,0.3-11.8,1.1-20.7,3.2c13.2-7.3,24.6-19.4,33.1-29.9c1.3-1.7,1.9-1.7,6.5-1.7h19.6c0.8,0,1.5,0.1,1.5,0.8&#xA;&#x9;&#x9;&#x9;&#x9;&#x9;c0,0.7-0.3,2.9-0.5,4.4l-2.7,19.5c-0.3,1.7-1.1,7.5-1.7,8c-0.7,0.5-7.8,1-9.9,1v3.1c2.4,0,11-0.3,16.8-0.3c1.8,0,4.1,0,6.3,0.1&#xA;&#x9;&#x9;&#x9;&#x9;&#x9;C166.7,545.9,164,550.2,152.5,568.2z M200.7,569.3c-0.3,0-0.2,0.2-0.2,0.2l-5.6-48.6c4.1,1.7,9.3,2.5,15,2.5&#xA;&#x9;&#x9;&#x9;&#x9;&#x9;c9.9,0,20.6-2.3,26.6-5.9c-2.5,5.8-6.3,15.5-20.7,34.5C213.8,555,201.9,569.3,200.7,569.3z M240.2,571.3&#xA;&#x9;&#x9;&#x9;&#x9;&#x9;c-16.7,9.3-31.6,6.1-36.5,4.6l21.2-30.4c4.3-6,7.9-11,10.8-15.4l0.9-1.4L240.2,571.3z M214.6,505.1c9.7-1.1,18-0.2,21.1,2.4&#xA;&#x9;&#x9;&#x9;&#x9;&#x9;c0.8,0.7,1.3,1.4,1.4,2.3c0.4,4.2-8.6,8.3-21,9.7c-2.7,0.3-5.3,0.4-7.7,0.4c-6.2,0-11.2-1-13.5-2.8c-0.8-0.7-1.3-1.4-1.4-2.3&#xA;&#x9;&#x9;&#x9;&#x9;&#x9;C193.1,510.6,202.2,506.4,214.6,505.1z M223.3,472.3c-3.1,1.2-6.6,0.7-9-1.7c-2.7-2.7-4.3-7-4.3-12.2c0-10.5,6.4-23.6,15.9-23.6&#xA;&#x9;&#x9;&#x9;&#x9;&#x9;c7.4,0,9.7,6.4,9.7,13.8C235.6,459.3,231.4,469,223.3,472.3z M195.6,516.3c2.9,2.4,10.9,3.2,20.4,2.1&#xA;&#x9;&#x9;&#x9;&#x9;&#x9;c12.8-1.4,20.4-5.6,20.1-8.6c-0.1-0.6-0.4-1.1-1-1.6c-2.1-1.7-6.8-2.6-12.7-2.6c-2.4,0-5,0.1-7.7,0.4&#xA;&#x9;&#x9;&#x9;&#x9;&#x9;c-12.8,1.4-20.4,5.6-20.1,8.6C194.6,515.2,195,515.8,195.6,516.3z M214.8,507.3c10-1.1,18.3-0.1,18.7,2.5&#xA;&#x9;&#x9;&#x9;&#x9;&#x9;c0.3,2.6-7.4,5.6-17.4,6.7c-10,1.1-18.3-0.2-18.7-2.8C197.1,511.1,204.8,508.4,214.8,507.3z"></path>
&#x9;&#x9;&#x9;</g>
&#x9;&#x9;</g>
&#x9;</g>
&#x9;<g>
&#x9;&#x9;<g>
&#x9;&#x9;&#x9;<path class="st2" fill="#0063B0" d="M445.1,491.6c0-3.3-2.4-5.7-5.6-5.7c-3.1,0-5.5,2.5-5.5,5.7c0,3.3,2.4,5.7,5.5,5.7&#xA;&#x9;&#x9;&#x9;&#x9;C442.7,497.3,445.1,494.9,445.1,491.6z M559.2,440.5h-19.4v1.3c8.2,1.3,8.7,2.7,7,8.8c-2.7,9.6-5.1,18.4-8.7,29.6&#xA;&#x9;&#x9;&#x9;&#x9;c-4.9-12.8-10.1-25.7-15.2-39h-2.1c-2.6,7.6-9.3,27.5-13.4,39.1c-3-9.6-6.6-21.2-9.5-31c-1.5-4.8-1.2-6.3,5.3-7.5v-1.3H479v1.3&#xA;&#x9;&#x9;&#x9;&#x9;c5.7,1,6.4,2.4,8.8,10c4.7,15.4,9.4,30.4,14,45.8h2.4c4.1-12.5,9.1-26.1,14-39.8c5.3,13.6,10.2,26.4,15,39.8h2.4&#xA;&#x9;&#x9;&#x9;&#x9;c5.2-17.1,11.9-38.9,14.2-45.5c2.7-8,3.3-9.2,9.5-10.3V440.5z M530.3,529.9c4.1,0.5,5.2,1.2,5.4,4.5c0,1.3,0.2,2.6,0.2,7.5v8.7&#xA;&#x9;&#x9;&#x9;&#x9;l-18.4-21.5h-9.1v0.8c2.1,0.3,2.9,0.7,4.2,2.3c0.5,0.6,0.8,1.5,0.8,2.5v12.4c0,3.9-0.1,5.8-0.2,7.5c-0.2,3.3-0.6,4-4.1,4.6v0.8&#xA;&#x9;&#x9;&#x9;&#x9;h11v-0.8c-4.4-0.6-4.7-1.5-4.9-4.7c-0.1-1.6-0.1-2.9-0.1-7.4V535l21.3,25.6h1.2v-18.7c0-4.9,0.1-6.1,0.1-7.6&#xA;&#x9;&#x9;&#x9;&#x9;c0.1-3.2,0.8-3.7,3.9-4.4v-0.8h-11.1V529.9z M310,494.9v1.4h23.8v-1.4c-5.2-1.1-6.1-2-9.1-10.2c-5.7-15-11.2-29.9-16.6-45.1&#xA;&#x9;&#x9;&#x9;&#x9;l-2.3,0.3l-17.8,45.3c-3,7.6-4.1,8.8-9.8,9.7v1.4h18.6v-1.4c-7.5-1.4-8.2-2.1-6.2-7.9c1-3.1,2.4-6.9,3.9-10.9h15.7&#xA;&#x9;&#x9;&#x9;&#x9;c1.8,4.8,3.3,9.3,4.3,12.1C316,492.7,315.9,493.6,310,494.9z M295.5,473.4c2.4-6.3,4.4-12.2,7-19.3l6.6,19.3H295.5z M479.2,529.9&#xA;&#x9;&#x9;&#x9;&#x9;c3.5,0.5,3.8,0.9,3.8,5.3v18.6c0,4.4-0.2,4.7-3.8,5.4v0.8h13.5v-0.8c-3.6-0.6-3.8-0.9-3.8-5.4v-18.6c0-4.5,0.4-4.7,3.8-5.3v-0.8&#xA;&#x9;&#x9;&#x9;&#x9;h-13.5V529.9z M462.2,528.1c-0.9,0.9-1.7,1-2.9,1h-19c-1.3,0-2.1,0-2.9-1h-0.7c-0.1,2.4-0.3,5.6-0.6,8.2h0.8&#xA;&#x9;&#x9;&#x9;&#x9;c0.6-1.9,1.3-3.6,2.1-4.5c0.7-0.7,1.2-1.2,3.3-1.2h4.3v23.6c0,4.2-0.5,4.3-4,5.1v0.8h14v-0.8c-3.7-0.6-4.2-1-4.2-5.1v-23.6h3.9&#xA;&#x9;&#x9;&#x9;&#x9;c2.4,0,3,0.2,3.8,1.1c1.2,1.3,1.5,2.7,2.1,4.5l0.8-0.1c-0.2-2.4-0.3-5.8-0.3-8H462.2z M350.2,485.8c-3.1,0-5.5,2.5-5.5,5.7&#xA;&#x9;&#x9;&#x9;&#x9;c0,3.3,2.4,5.7,5.5,5.7c3.2,0,5.6-2.4,5.6-5.7C355.8,488.3,353.4,485.8,350.2,485.8z M338,553.5c-3.1-8.3-6.2-16.6-9.2-25&#xA;&#x9;&#x9;&#x9;&#x9;l-1.3,0.2l-9.8,25.1c-1.7,4.2-2.3,4.8-5.4,5.4v0.8h10.3v-0.8c-4.1-0.8-4.5-1.2-3.4-4.4c0.6-1.7,1.3-3.8,2.1-6h8.7&#xA;&#x9;&#x9;&#x9;&#x9;c1,2.7,1.8,5.1,2.4,6.7c0.9,2.5,0.8,3-2.5,3.7v0.8H343v-0.8C340.1,558.6,339.6,558.1,338,553.5z M321.8,547.3&#xA;&#x9;&#x9;&#x9;&#x9;c1.3-3.5,2.4-6.7,3.9-10.7l3.7,10.7H321.8z M298.8,531c-1.8-1.2-4.3-1.9-8.1-1.9h-12.6v0.8c3.4,0.6,3.8,0.9,3.8,5.1v19.1&#xA;&#x9;&#x9;&#x9;&#x9;c0,4.2-0.3,4.5-3.8,5.1v0.8H292v-0.8c-3.7-0.5-4.2-0.9-4.2-5.1v-7.5l2.8,0.6c0.3,0,0.7,0.1,0.9,0.1c4.7,0,10.7-2.8,10.7-9.6&#xA;&#x9;&#x9;&#x9;&#x9;C302.2,534.7,301,532.5,298.8,531z M290.3,545.8c-1,0-1.9,0-2.5-0.2v-13.5c0-0.8,0-1.2,0.5-1.5c0.3-0.2,1-0.3,1.9-0.3&#xA;&#x9;&#x9;&#x9;&#x9;c3.3,0,5.7,1.9,5.7,7.5C295.9,545.1,291.8,545.8,290.3,545.8z M358.2,529.9c3.5,0.5,3.8,0.9,3.8,5.3v18.6c0,4.4-0.2,4.7-3.8,5.4&#xA;&#x9;&#x9;&#x9;&#x9;v0.8h13.5v-0.8c-3.6-0.6-3.8-0.9-3.8-5.4v-18.6c0-4.5,0.4-4.7,3.8-5.3v-0.8h-13.5V529.9z M409.2,529.9c4.1,0.5,5.2,1.2,5.4,4.5&#xA;&#x9;&#x9;&#x9;&#x9;c0,1.3,0.2,2.6,0.2,7.5v8.7l-18.4-21.5h-9.1v0.8c2.1,0.3,2.9,0.7,4.2,2.3c0.5,0.6,0.8,1.5,0.8,2.5v12.4c0,3.9-0.1,5.8-0.2,7.5&#xA;&#x9;&#x9;&#x9;&#x9;c-0.2,3.3-0.6,4-4.1,4.6v0.8h11v-0.8c-4.4-0.6-4.7-1.5-4.9-4.7c-0.1-1.6-0.1-2.9-0.1-7.4V535l21.3,25.6h1.2v-18.7&#xA;&#x9;&#x9;&#x9;&#x9;c0-4.9,0.1-6.1,0.1-7.6c0.1-3.2,0.8-3.7,3.9-4.4v-0.8h-11.1V529.9z M398.6,471.9c6.9,1.1,7.6,2,7.6,7.5v8.7&#xA;&#x9;&#x9;&#x9;&#x9;c0,4.3-0.9,5.3-2.1,6.1c-1.6,1-4.6,1.4-6.4,1.4c-14.2,0-18.8-13.4-18.8-28.7c0-16.6,7.2-25.4,18.5-25.4c3.3,0,6.2,0.3,9,1.3&#xA;&#x9;&#x9;&#x9;&#x9;c5.7,1.9,8.2,6.8,9.4,11.8l1.4-0.3c-0.6-5.1-0.8-9.5-0.9-13.3c-2.4-0.2-8.4-1.6-16.8-1.6c-17.5,0-32.6,9.9-32.6,29.7&#xA;&#x9;&#x9;&#x9;&#x9;c0,16.8,10.7,28.6,30.6,28.6c6.7,0,15.1-2,20.1-2.9c-0.4-2.4-0.6-5.2-0.6-8.3v-8.1c0-4.5,0.9-5.1,5.5-6.3v-1.4h-23.8V471.9z&#xA;&#x9;&#x9;&#x9;&#x9; M863.8,484.1c-0.1,9-0.5,9.6-6.7,10.8v1.4h24.6v-1.4c-6.9-1.3-7.2-2.2-7.3-10.8l-0.3-32.3c-0.1-8.1,0.5-8.7,7.6-10v-1.4h-16.2&#xA;&#x9;&#x9;&#x9;&#x9;l-17.8,39.6l-17.4-39.6h-17v1.4c7.4,0.8,8.2,3.9,8.1,6c-2.1,34-2.4,38.6-2.8,41.4c-0.5,3.3-1.7,4.7-7.7,5.6v1.4H831v-1.4&#xA;&#x9;&#x9;&#x9;&#x9;c-6.6-1-8.5-2-8.7-5.7c-0.1-2.8,0.1-13,1.3-39.2c6.3,15.1,17.2,42.3,18.8,46.3h1.3c1.4-3.7,13.8-32.5,20.3-47.7L863.8,484.1z&#xA;&#x9;&#x9;&#x9;&#x9; M831.3,553.5c-3.1-8.3-6.2-16.6-9.2-25l-1.3,0.2l-9.8,25.1c-1.7,4.2-2.3,4.8-5.4,5.4v0.8h10.3v-0.8c-4.1-0.8-4.5-1.2-3.4-4.4&#xA;&#x9;&#x9;&#x9;&#x9;c0.6-1.7,1.3-3.8,2.1-6h8.7c1,2.7,1.8,5.1,2.4,6.7c0.9,2.5,0.8,3-2.5,3.7v0.8h13.1v-0.8C833.5,558.6,833,558.1,831.3,553.5z&#xA;&#x9;&#x9;&#x9;&#x9; M815.2,547.3c1.3-3.5,2.4-6.7,3.9-10.7l3.7,10.7H815.2z M792.6,484.7c-5.7-15-11.2-29.9-16.6-45.1l-2.3,0.3l-17.8,45.3&#xA;&#x9;&#x9;&#x9;&#x9;c-3,7.6-4.1,8.8-9.8,9.7v1.4h18.6v-1.4c-7.5-1.4-8.2-2.1-6.2-7.9c1-3.1,2.4-6.9,3.9-10.9h15.7c1.8,4.8,3.3,9.3,4.3,12.1&#xA;&#x9;&#x9;&#x9;&#x9;c1.5,4.5,1.5,5.4-4.5,6.7v1.4h23.8v-1.4C796.4,493.8,795.6,493,792.6,484.7z M763.4,473.4c2.4-6.3,4.4-12.2,7-19.3l6.6,19.3&#xA;&#x9;&#x9;&#x9;&#x9;H763.4z M917.9,529.9c3.9,0.6,3.8,1.4,2.9,3.5c-1.3,2.9-3.7,7.8-5.4,11.1c-2.1-4.1-4.2-7.9-6-11.5c-1-2-0.8-2.4,2.3-3.1v-0.8&#xA;&#x9;&#x9;&#x9;&#x9;h-13.1v0.8c2.8,0.5,3.1,1,5.2,4.6c2.6,4.6,4.6,8.4,5.8,10.9c0.4,0.9,0.6,1.5,0.6,2.5v5.4c0,5-0.2,5.5-4,6v0.8h14v-0.8&#xA;&#x9;&#x9;&#x9;&#x9;c-3.7-0.7-4-0.9-4-6v-6.2c0-1,0.2-1.4,0.6-2.2c1.8-3.6,3.7-7.4,5.6-10.8c1.7-2.9,2.1-3.7,5.4-4.1v-0.8h-9.9V529.9z M792.1,531&#xA;&#x9;&#x9;&#x9;&#x9;c-1.8-1.2-4.3-1.9-8.1-1.9h-12.6v0.8c3.4,0.6,3.8,0.9,3.8,5.1v19.1c0,4.2-0.3,4.5-3.8,5.1v0.8h13.9v-0.8&#xA;&#x9;&#x9;&#x9;&#x9;c-3.7-0.5-4.2-0.9-4.2-5.1v-7.5l2.8,0.6c0.3,0,0.7,0.1,0.9,0.1c4.7,0,10.7-2.8,10.7-9.6C795.6,534.7,794.4,532.5,792.1,531z&#xA;&#x9;&#x9;&#x9;&#x9; M783.7,545.8c-1,0-1.9,0-2.5-0.2v-13.5c0-0.8,0-1.2,0.5-1.5c0.3-0.2,1-0.3,1.9-0.3c3.3,0,5.7,1.9,5.7,7.5&#xA;&#x9;&#x9;&#x9;&#x9;C789.2,545.1,785.1,545.8,783.7,545.8z M872.4,529.9c4.1,0.5,5.2,1.2,5.4,4.5c0,1.3,0.2,2.6,0.2,7.5v8.7l-18.4-21.5h-9.1v0.8&#xA;&#x9;&#x9;&#x9;&#x9;c2.1,0.3,2.9,0.7,4.2,2.3c0.5,0.6,0.8,1.5,0.8,2.5v12.4c0,3.9-0.1,5.8-0.2,7.5c-0.2,3.3-0.6,4-4.1,4.6v0.8h11v-0.8&#xA;&#x9;&#x9;&#x9;&#x9;c-4.4-0.6-4.7-1.5-4.9-4.7c-0.1-1.6-0.1-2.9-0.1-7.4V535l21.3,25.6h1.2v-18.7c0-4.9,0.1-6.1,0.1-7.6c0.1-3.2,0.8-3.7,3.9-4.4&#xA;&#x9;&#x9;&#x9;&#x9;v-0.8h-11.1V529.9z M927.8,480.7c0-9-6.6-13.6-14-18c-7.4-4.4-10.4-6.9-10.4-12.4c0-5.5,2.9-9,8.1-9c6.6,0,10.7,4.3,12.5,11.4&#xA;&#x9;&#x9;&#x9;&#x9;l1.4-0.3c-0.6-4.1-1.1-8.8-1.5-12c-1.8-0.1-5.7-1.1-10.9-1.1c-11.4,0-18.4,6.9-18.4,15.7c0,8.8,6.3,13.1,14,17.8&#xA;&#x9;&#x9;&#x9;&#x9;c6.1,3.7,9.3,7.6,9.3,13c0,5.7-2.6,9.8-8.5,9.8c-7.9,0-13-6-14.8-13.5l-1.4,0.3c0.1,1.4,1.4,11.5,1.9,13.1&#xA;&#x9;&#x9;&#x9;&#x9;c4.7,1.2,8.8,2.1,13,2.1C919.4,497.6,927.8,490.6,927.8,480.7z M695.5,491c-2.2,2.1-3.4,2.7-8.1,2.7c-1.3,0-3.7,0-5.1,0&#xA;&#x9;&#x9;&#x9;&#x9;c-4.3,0-5.7-0.5-5.7-5.9v-36.7c0-7.4,0.6-8,7-9.2v-1.4h-24.8v1.4c6.5,1.1,7.1,1.5,7.1,9.2v34.7c0,7.4-0.4,8.1-8,9.2v1.4h40.6&#xA;&#x9;&#x9;&#x9;&#x9;c0.5-1.3,2.8-10,3.6-14l-1.3-0.3C699.3,485.5,697.3,489.3,695.5,491z M644.5,559.5c-7,0-11.3-6.5-11.3-15.7&#xA;&#x9;&#x9;&#x9;&#x9;c0-7.8,3-14.2,10.2-14.2c1.9,0,3.3,0.2,4.6,0.9c2.7,1.2,3.8,3,4.8,6.4l0.9-0.2c-0.2-1.9-0.6-4.8-0.7-7.3&#xA;&#x9;&#x9;&#x9;&#x9;c-1.1-0.1-4.6-0.9-8.4-0.9c-11.1,0-18.1,6.8-18.1,16.2c0,8.3,5.2,16,17.5,16c3.2,0,6.9-0.9,8.1-1.1c0.7-1.4,1.8-5.2,2.3-7.2&#xA;&#x9;&#x9;&#x9;&#x9;l-0.8-0.3C651.4,556.8,648.9,559.5,644.5,559.5z M649,482.3l-1.3-0.3c-1.5,3.5-3.5,7.3-5.3,9c-2.2,2.1-3.4,2.7-8.1,2.7&#xA;&#x9;&#x9;&#x9;&#x9;c-1.3,0-3.7,0-5.1,0c-4.3,0-5.7-0.5-5.7-5.9v-36.7c0-7.4,0.6-8,7-9.2v-1.4h-24.8v1.4c6.5,1.1,7.1,1.5,7.1,9.2v34.7&#xA;&#x9;&#x9;&#x9;&#x9;c0,7.4-0.4,8.1-8,9.2v1.4h40.6C645.9,495,648.2,486.3,649,482.3z M568.9,441.9c6.3,0.9,6.9,1.6,6.9,9.6v33.7c0,8-0.4,8.6-6.9,9.7&#xA;&#x9;&#x9;&#x9;&#x9;v1.4h24.5v-1.4c-6.4-1.1-6.9-1.5-6.9-9.8v-33.6c0-8.1,0.7-8.5,6.9-9.6v-1.4h-24.5V441.9z M736.1,494.9c-6.4-1.1-6.9-1.5-6.9-9.8&#xA;&#x9;&#x9;&#x9;&#x9;v-33.6c0-8.1,0.7-8.5,6.9-9.6v-1.4h-24.5v1.4c6.3,0.9,6.9,1.6,6.9,9.6v33.7c0,8-0.4,8.6-6.9,9.7v1.4h24.5V494.9z M736.6,551&#xA;&#x9;&#x9;&#x9;&#x9;l-9.6-21.9h-9.4v0.8c4.1,0.4,4.5,2.2,4.5,3.3c-1.1,18.8-1.3,21.3-1.6,22.9c-0.3,1.8-0.9,2.6-4.3,3.1v0.8h11.1v-0.8&#xA;&#x9;&#x9;&#x9;&#x9;c-3.7-0.6-4.7-1.1-4.8-3.2c0-1.6,0-7.2,0.7-21.7c3.5,8.4,9.5,23.4,10.4,25.6h0.7c0.8-2,7.6-18,11.2-26.4l-0.1,19.6&#xA;&#x9;&#x9;&#x9;&#x9;c0,5-0.3,5.3-3.7,6v0.8h13.6v-0.8c-3.8-0.7-4-1.2-4-6l-0.2-17.8c0-4.5,0.3-4.8,4.2-5.5v-0.8h-9L736.6,551z M686.5,528.4&#xA;&#x9;&#x9;&#x9;&#x9;c-10,0-15.9,8.2-15.9,16.3c0,8.8,6.5,15.9,15.8,15.9c8.6,0,15.6-6.5,15.6-16.4C701.9,535,694.9,528.4,686.5,528.4z M687.2,559.5&#xA;&#x9;&#x9;&#x9;&#x9;c-6.2,0-9.8-6.9-9.8-15.8c0-9.4,3.5-14,8.2-14c5.8,0,9.6,5.9,9.6,15.8C695.2,554.7,691.9,559.5,687.2,559.5z M573.8,546.5&#xA;&#x9;&#x9;&#x9;&#x9;c3.8,0.6,4.2,1.1,4.2,4.1v4.8c0,2.4-0.5,2.9-1.2,3.4c-0.9,0.6-2.6,0.8-3.6,0.8c-7.9,0-10.4-7.4-10.4-15.8c0-9.2,4-14,10.2-14&#xA;&#x9;&#x9;&#x9;&#x9;c1.9,0,3.4,0.2,5,0.7c3.2,1,4.6,3.7,5.2,6.5l0.8-0.1c-0.3-2.8-0.4-5.3-0.5-7.4c-1.3-0.1-4.6-0.9-9.3-0.9c-9.7,0-18,5.5-18,16.4&#xA;&#x9;&#x9;&#x9;&#x9;c0,9.3,5.9,15.8,16.9,15.8c3.7,0,8.4-1.1,11.1-1.6c-0.2-1.3-0.3-2.9-0.3-4.6V550c0-2.5,0.5-2.8,3-3.5v-0.8h-13.1V546.5z"></path>
&#x9;&#x9;</g>
&#x9;</g>
</g>
</svg>