<svg id="layers" xmlns="http://www.w3.org/2000/svg" width="87.431" height="76.01" viewBox="0 0 87.431 76.01">
  <ellipse id="Ellipse_258" data-name="Ellipse 258" cx="1.289" cy="1.289" rx="1.289" ry="1.289" transform="translate(42.427 50.383)" fill="#0063b0"/>
  <ellipse id="Ellipse_259" data-name="Ellipse 259" cx="1.289" cy="1.289" rx="1.289" ry="1.289" transform="translate(42.427 43.558)" fill="#0063b0"/>
  <ellipse id="Ellipse_260" data-name="Ellipse 260" cx="1.289" cy="1.289" rx="1.289" ry="1.289" transform="translate(42.427 36.732)" fill="#0063b0"/>
  <ellipse id="Ellipse_261" data-name="Ellipse 261" cx="1.289" cy="1.289" rx="1.289" ry="1.289" transform="translate(27.018 43.558)" fill="#0063b0"/>
  <ellipse id="Ellipse_262" data-name="Ellipse 262" cx="1.289" cy="1.289" rx="1.289" ry="1.289" transform="translate(27.018 36.732)" fill="#0063b0"/>
  <ellipse id="Ellipse_263" data-name="Ellipse 263" cx="1.289" cy="1.289" rx="1.289" ry="1.289" transform="translate(34.722 46.428)" fill="#0063b0"/>
  <ellipse id="Ellipse_264" data-name="Ellipse 264" cx="1.289" cy="1.289" rx="1.289" ry="1.289" transform="translate(34.722 39.603)" fill="#0063b0"/>
  <ellipse id="Ellipse_265" data-name="Ellipse 265" cx="1.289" cy="1.289" rx="1.289" ry="1.289" transform="translate(34.722 32.777)" fill="#0063b0"/>
  <ellipse id="Ellipse_266" data-name="Ellipse 266" cx="1.289" cy="1.289" rx="1.289" ry="1.289" transform="translate(11.609 36.732)" fill="#0063b0"/>
  <ellipse id="Ellipse_267" data-name="Ellipse 267" cx="1.289" cy="1.289" rx="1.289" ry="1.289" transform="translate(19.314 39.603)" fill="#0063b0"/>
  <ellipse id="Ellipse_268" data-name="Ellipse 268" cx="1.289" cy="1.289" rx="1.289" ry="1.289" transform="translate(19.314 32.777)" fill="#0063b0"/>
  <ellipse id="Ellipse_269" data-name="Ellipse 269" cx="1.289" cy="1.289" rx="1.289" ry="1.289" transform="translate(57.835 43.558)" fill="#0063b0"/>
  <ellipse id="Ellipse_270" data-name="Ellipse 270" cx="1.289" cy="1.289" rx="1.289" ry="1.289" transform="translate(57.835 36.732)" fill="#0063b0"/>
  <ellipse id="Ellipse_271" data-name="Ellipse 271" cx="1.289" cy="1.289" rx="1.289" ry="1.289" transform="translate(50.131 46.428)" fill="#0063b0"/>
  <ellipse id="Ellipse_272" data-name="Ellipse 272" cx="1.289" cy="1.289" rx="1.289" ry="1.289" transform="translate(50.131 39.603)" fill="#0063b0"/>
  <ellipse id="Ellipse_273" data-name="Ellipse 273" cx="1.289" cy="1.289" rx="1.289" ry="1.289" transform="translate(50.131 32.777)" fill="#0063b0"/>
  <ellipse id="Ellipse_274" data-name="Ellipse 274" cx="1.289" cy="1.289" rx="1.289" ry="1.289" transform="translate(73.244 36.732)" fill="#0063b0"/>
  <ellipse id="Ellipse_275" data-name="Ellipse 275" cx="1.289" cy="1.289" rx="1.289" ry="1.289" transform="translate(65.54 39.603)" fill="#0063b0"/>
  <ellipse id="Ellipse_276" data-name="Ellipse 276" cx="1.289" cy="1.289" rx="1.289" ry="1.289" transform="translate(65.54 32.777)" fill="#0063b0"/>
  <path id="Path_2348" data-name="Path 2348" d="M2.337,56.161l21.975,8.853h0a1.282,1.282,0,0,0,.489.1H62.63a1.28,1.28,0,0,0,.489-.1h0l21.975-8.853a3.737,3.737,0,0,0,0-6.929L47.952,34.268a11.282,11.282,0,0,0-8.472,0L2.337,49.232a3.737,3.737,0,0,0,0,6.929ZM31.409,62.55l9.029-3.637a8.732,8.732,0,0,1,6.558,0l9.029,3.637ZM3.294,51.608,40.437,36.644a8.732,8.732,0,0,1,6.557,0L84.138,51.608h0a1.174,1.174,0,0,1,0,2.177L62.63,62.45,47.952,56.536a11.284,11.284,0,0,0-8.472,0L24.8,62.45,3.294,53.785a1.174,1.174,0,0,1,0-2.177Z" transform="translate(0 -33.442)" fill="#0063b0"/>
  <path id="Path_2349" data-name="Path 2349" d="M85.094,211.875l-11.963-4.82a1.281,1.281,0,0,0-.957,2.376l11.963,4.82a1.173,1.173,0,0,1,0,2.177L46.994,231.392a8.732,8.732,0,0,1-6.558,0L3.293,216.428a1.173,1.173,0,0,1,0-2.177l11.923-4.8a1.281,1.281,0,0,0-.957-2.376l-11.923,4.8a3.737,3.737,0,0,0,0,6.929l37.143,14.964a11.283,11.283,0,0,0,8.472,0L85.094,218.8A3.737,3.737,0,0,0,85.094,211.875Z" transform="translate(0 -177.331)" fill="#0063b0"/>
  <path id="Path_2350" data-name="Path 2350" d="M85.094,321.764l-11.909-4.8a1.281,1.281,0,0,0-.957,2.376l11.909,4.8a1.174,1.174,0,0,1,0,2.177L46.994,341.281a8.731,8.731,0,0,1-6.557,0L3.293,326.317a1.174,1.174,0,0,1,0-2.177l11.91-4.8a1.281,1.281,0,0,0-.957-2.376l-11.91,4.8a3.737,3.737,0,0,0,0,6.929l37.143,14.964a11.283,11.283,0,0,0,8.472,0l37.143-14.964a3.737,3.737,0,0,0,0-6.929Z" transform="translate(0.001 -268.473)" fill="#0063b0"/>
</svg>
