<?xml version="1.0" encoding="utf-8"?>
<!-- Generator: Adobe Illustrator 28.3.0, SVG Export Plug-In . SVG Version: 6.00 Build 0)  -->
<svg version="1.1" id="OUTLINE" xmlns="http://www.w3.org/2000/svg" xmlns:xlink="http://www.w3.org/1999/xlink" x="0px" y="0px"
	 viewBox="0 0 238.5 238.5" style="enable-background:new 0 0 238.5 238.5;" xml:space="preserve">
<style type="text/css">
	.st0{fill:#F9F8F2;}
	.st1{fill:#0063B0;}
</style>
<rect x="-869.8" y="-898.2" class="st0" width="1688.5" height="1170.6"/>
<g>
	<path class="st1" d="M78.6,107c-6,0-10.8,4.8-10.8,10.8c0,6,4.8,10.8,10.8,10.8s10.8-4.8,10.8-10.8C89.4,111.8,84.6,107,78.6,107z
		 M78.6,125.1c-4,0-7.3-3.3-7.3-7.3c0-4,3.3-7.3,7.3-7.3s7.3,3.3,7.3,7.3C85.9,121.8,82.6,125.1,78.6,125.1z"/>
	<path class="st1" d="M105.7,107c-6,0-10.8,4.8-10.8,10.8c0,6,4.8,10.8,10.8,10.8s10.8-4.8,10.8-10.8
		C116.5,111.8,111.6,107,105.7,107z M105.7,125.1c-4,0-7.3-3.3-7.3-7.3c0-4,3.3-7.3,7.3-7.3c4,0,7.3,3.3,7.3,7.3
		C113,121.8,109.7,125.1,105.7,125.1z"/>
	<path class="st1" d="M132.8,107c-6,0-10.8,4.8-10.8,10.8c0,6,4.8,10.8,10.8,10.8c6,0,10.8-4.8,10.8-10.8
		C143.6,111.8,138.7,107,132.8,107z M132.8,125.1c-4,0-7.3-3.3-7.3-7.3c0-4,3.3-7.3,7.3-7.3c4,0,7.3,3.3,7.3,7.3
		C140.1,121.8,136.8,125.1,132.8,125.1z"/>
	<path class="st1" d="M159.8,107c-6,0-10.8,4.8-10.8,10.8c0,6,4.8,10.8,10.8,10.8c6,0,10.8-4.8,10.8-10.8
		C170.6,111.8,165.8,107,159.8,107z M159.8,125.1c-4,0-7.3-3.3-7.3-7.3c0-4,3.3-7.3,7.3-7.3c4,0,7.3,3.3,7.3,7.3
		C167.1,121.8,163.9,125.1,159.8,125.1z"/>
	<path class="st1" d="M78.6,134.1c-6,0-10.8,4.8-10.8,10.8c0,6,4.8,10.8,10.8,10.8s10.8-4.8,10.8-10.8
		C89.4,138.9,84.6,134.1,78.6,134.1z M78.6,152.2c-4,0-7.3-3.3-7.3-7.3c0-4,3.3-7.3,7.3-7.3s7.3,3.3,7.3,7.3
		C85.9,148.9,82.6,152.2,78.6,152.2z"/>
	<path class="st1" d="M105.7,134.1c-6,0-10.8,4.8-10.8,10.8c0,6,4.8,10.8,10.8,10.8s10.8-4.8,10.8-10.8
		C116.5,138.9,111.6,134.1,105.7,134.1z M105.7,152.2c-4,0-7.3-3.3-7.3-7.3c0-4,3.3-7.3,7.3-7.3c4,0,7.3,3.3,7.3,7.3
		C113,148.9,109.7,152.2,105.7,152.2z"/>
	<path class="st1" d="M132.8,134.1c-6,0-10.8,4.8-10.8,10.8c0,6,4.8,10.8,10.8,10.8c6,0,10.8-4.8,10.8-10.8
		C143.6,138.9,138.7,134.1,132.8,134.1z M132.8,152.2c-4,0-7.3-3.3-7.3-7.3c0-4,3.3-7.3,7.3-7.3c4,0,7.3,3.3,7.3,7.3
		C140.1,148.9,136.8,152.2,132.8,152.2z"/>
	<path class="st1" d="M159.8,134.1c-6,0-10.8,4.8-10.8,10.8c0,6,4.8,10.8,10.8,10.8c6,0,10.8-4.8,10.8-10.8
		C170.6,138.9,165.8,134.1,159.8,134.1z M159.8,152.2c-4,0-7.3-3.3-7.3-7.3c0-4,3.3-7.3,7.3-7.3c4,0,7.3,3.3,7.3,7.3
		C167.1,148.9,163.9,152.2,159.8,152.2z"/>
	<path class="st1" d="M171.2,99.1H67.3c-3.7,0-6.7,3-6.7,6.7v51.1c0,3.7,3,6.7,6.7,6.7h103.9c3.7,0,6.7-3,6.7-6.7v-51.1
		C177.9,102.1,174.9,99.1,171.2,99.1z M174.4,156.9c0,1.8-1.4,3.2-3.2,3.2H67.3c-1.8,0-3.2-1.4-3.2-3.2v-51.1c0-1.8,1.4-3.2,3.2-3.2
		h103.9c1.8,0,3.2,1.4,3.2,3.2V156.9z"/>
	<path class="st1" d="M67.4,91.4h86.5c1.8,1.8,4.2,2.8,6.8,2.8c4.1,0,17.2-3.5,17.2-9.6c0-6.1-13.1-9.6-17.2-9.6c-2.6,0-5,1-6.8,2.8
		H67.4c-3.9,0-6.8,3.1-6.8,6.8C60.6,88.3,63.6,91.4,67.4,91.4z M131.9,87.9v-6.6h6.2v6.6H131.9z M160.7,78.4
		c4.7,0,13.7,3.7,13.7,6.1c0,2.5-9,6.1-13.7,6.1c-1.8,0-3.5-0.8-4.7-2.2c-1.9-2.3-1.9-5.6,0-7.9C157.1,79.2,158.8,78.4,160.7,78.4z
		 M151.6,87.9h-10v-6.6h10C151.5,82.1,150.4,83.3,151.6,87.9z M67.4,81.2h61v6.6h-61c-1.8,0-3.3-1.5-3.3-3.3
		C64.1,82.7,65.5,81.2,67.4,81.2z"/>
</g>
</svg>
