<?xml version="1.0" encoding="utf-8"?>
<!-- Generator: Adobe Illustrator 28.3.0, SVG Export Plug-In . SVG Version: 6.00 Build 0)  -->
<svg version="1.1" id="OUTLINE" xmlns="http://www.w3.org/2000/svg" xmlns:xlink="http://www.w3.org/1999/xlink" x="0px" y="0px"
	 viewBox="0 0 238.5 238.5" style="enable-background:new 0 0 238.5 238.5;" xml:space="preserve">
<style type="text/css">
	.st0{fill:#F9F8F2;}
	.st1{fill:#0063B0;}
</style>
<rect x="-584.9" y="-325.3" class="st0" width="1688.5" height="1170.6"/>
<g>
	<path class="st1" d="M170.6,110.3H163c-1,0-1.8,0.8-1.8,1.8c0,1,0.8,1.8,1.8,1.8h7.6c1,0,1.8-0.8,1.8-1.8
		C172.4,111.1,171.6,110.3,170.6,110.3z"/>
	<path class="st1" d="M121.5,72.3c1,0,1.8-0.8,1.8-1.8v-7.6c0-1-0.8-1.8-1.8-1.8s-1.8,0.8-1.8,1.8v7.6
		C119.8,71.5,120.5,72.3,121.5,72.3z"/>
	<path class="st1" d="M152.1,140.2c-0.7-0.7-1.8-0.7-2.5,0c-0.7,0.7-0.7,1.8,0,2.5l5.4,5.4c0.7,0.7,1.8,0.7,2.5,0
		c0.7-0.7,0.7-1.8,0-2.5L152.1,140.2z"/>
	<path class="st1" d="M155,76.1l-5.4,5.4c-0.7,0.7-0.7,1.8,0,2.5c0.7,0.7,1.8,0.7,2.5,0l5.4-5.4c0.7-0.7,0.7-1.8,0-2.5
		C156.8,75.4,155.7,75.4,155,76.1z"/>
	<path class="st1" d="M156.8,112.1c0-19.5-15.8-35.3-35.3-35.3c-1,0-1.8,0.8-1.8,1.8c0,25.9,0,75.4,0,97c0,1,0.8,1.8,1.8,1.8
		c6.5,0,11.8-5.2,12-11.7c3-0.9,5.2-3.6,5.2-6.9c0-5.8,0-10,0-15.8C149.9,136.7,156.8,125,156.8,112.1z M123.3,143.6h11.9v7.6h-11.9
		V143.6z M153.3,112.1c0,11.8-6.5,22.5-16.9,28.1H130v-18h5.7c4,0,7.2-3.2,7.2-7.2v-1.9c0-4-3.2-7.2-7.2-7.2h-1.9
		c-4,0-7.2,3.2-7.2,7.2c0,6.4,0,20.8,0,27.2h-3.3V80.3C140,81.2,153.3,95.1,153.3,112.1z M130,118.6v-5.7c0-2.1,1.7-3.7,3.7-3.7h1.9
		c2.1,0,3.7,1.7,3.7,3.7v1.9c0,2.1-1.7,3.7-3.7,3.7H130z M123.3,173.6v-7.7h6.7C129.7,169.7,126.9,172.8,123.3,173.6z M131.5,162.4
		h-8.2v-7.6h11.9v4C135.2,160.7,133.5,162.4,131.5,162.4z"/>
	<path class="st1" d="M100.3,76.8c-7.1,0-12.9,5.8-12.9,12.9c0,0.4,0,0.7,0.1,1.1c-7.8,1.5-13.7,8.4-13.7,16.6
		c0,1.7,0.2,3.3,0.7,4.9c-5.1,3-8.4,8.6-8.4,14.6c0,6,3.3,11.6,8.5,14.6c-0.5,1.7-0.8,3.4-0.8,5.2c0,8.1,5.9,15.1,13.7,16.6
		c0,0.4-0.1,0.8-0.1,1.1c0,7.1,5.8,12.9,12.9,12.9c7.1,0,12.9-5.8,12.9-12.9V89.7C113.2,82.6,107.4,76.8,100.3,76.8z M109.7,164.3
		c0,5.2-4.2,9.4-9.4,9.4c-5.2,0-9.4-4.2-9.4-9.4c0-0.7,0.1-1.4,0.3-2.1c0.3-0.8,2.5-6,7-6.9c0.9-0.2,1.5-1.1,1.3-2.1
		c-0.2-0.9-1.1-1.5-2.1-1.3c-5.1,1.1-7.9,5.7-9,8c-6.3-1.1-11.1-6.6-11.1-13.2c0-4.8,2.6-9.9,7.5-10.7c1-0.2,1.6-1.1,1.4-2
		c-0.2-1-1.1-1.6-2-1.4c-4.5,0.8-7,3.8-8.2,5.8c-3.9-2.4-6.4-6.7-6.4-11.4c0-4.6,2.4-8.9,6.2-11.3c3.1,5.6,8.7,9.2,15.5,8.3
		c1-0.1,1.6-1,1.5-2c-0.1-1-1-1.6-2-1.5c-8.1,1.2-13.6-6.2-13.6-13c0-6.5,4.8-12.1,11.1-13.2c2.2,4.7,6.6,7,12.2,5.2
		c0.9-0.3,1.4-1.3,1.1-2.2c-0.3-0.9-1.3-1.4-2.2-1.1c-5.2,1.7-8.6-2-8.6-6.4c0-5.2,4.2-9.4,9.4-9.4c5.2,0,9.4,4.2,9.4,9.4V164.3z"/>
</g>
</svg>
