<?xml version="1.0" encoding="utf-8"?>
<!-- Generator: Adobe Illustrator 28.3.0, SVG Export Plug-In . SVG Version: 6.00 Build 0)  -->
<svg version="1.1" id="OUTLINE" xmlns="http://www.w3.org/2000/svg" xmlns:xlink="http://www.w3.org/1999/xlink" x="0px" y="0px"
	 viewBox="0 0 238.5 238.5" style="enable-background:new 0 0 238.5 238.5;" xml:space="preserve">
<style type="text/css">
	.st0{fill:#F9F8F2;}
	.st1{fill:#0063B0;}
</style>
<rect x="-869.8" y="-46.6" class="st0" width="1688.5" height="1170.6"/>
<path class="st1" d="M176,77.6h-5.1v-6.2c0-6.1-4.9-11-11-11c-14,0-58.5,0-73.4,0c-6.1,0-11,4.9-11,11v6.2h-8.8c-3.3,0-6,2.7-6,6
	v21.5c0,2.9,2,5.3,4.8,5.9l53.9,10.7c1.2,0.2,2,1.3,2,2.5v9.6h-5.9c-1,0-1.8,0.8-1.8,1.8v33.2c0,5.2,4.2,9.4,9.4,9.4
	c5.2,0,9.4-4.2,9.4-9.4v-33.2c0-1-0.8-1.8-1.8-1.8h-5.9v-9.6c0-2.9-2-5.3-4.8-5.9l-53.9-10.7c-1.2-0.2-2-1.3-2-2.5V83.6
	c0-1.4,1.1-2.5,2.5-2.5h8.8v6.2c0,6.1,4.9,11,11,11h73.4c6.1,0,11-4.9,11-11v-6.2h5.1c1,0,1.8-0.8,1.8-1.8S177,77.6,176,77.6z
	 M129.1,168.6c0,3.3-2.7,5.9-5.9,5.9c-3.3,0-5.9-2.7-5.9-5.9v-31.4h11.8V168.6z M154.1,63.9v15.6c0,1.7-1.4,3.1-3.1,3.1
	c-1.7,0-3.1-1.4-3.1-3.1v-5.4c0-3.7-3-6.6-6.6-6.6c-3.7,0-6.6,3-6.6,6.6v10.4c0,1.7-1.4,3.1-3.1,3.1c-1.7,0-3.1-1.4-3.1-3.1V63.9
	H154.1z M167.4,87.3c0,4.1-3.4,7.5-7.5,7.5H86.5c-4.1,0-7.5-3.4-7.5-7.5V71.4c0-4.1,3.4-7.5,7.5-7.5h38.3v20.6c0,3.7,3,6.6,6.6,6.6
	s6.6-3,6.6-6.6V74.1c0-1.7,1.4-3.1,3.1-3.1c1.7,0,3.1,1.4,3.1,3.1v5.4c0,3.7,3,6.6,6.6,6.6c3.7,0,6.6-3,6.6-6.6V63.9h2.3
	c4.1,0,7.5,3.4,7.5,7.5V87.3z"/>
</svg>
