<?xml version="1.0" encoding="utf-8"?>
<!-- Generator: Adobe Illustrator 28.3.0, SVG Export Plug-In . SVG Version: 6.00 Build 0)  -->
<svg version="1.1" id="OUTLINE" xmlns="http://www.w3.org/2000/svg" xmlns:xlink="http://www.w3.org/1999/xlink" x="0px" y="0px"
	 viewBox="0 0 238.5 238.5" style="enable-background:new 0 0 238.5 238.5;" xml:space="preserve">
<style type="text/css">
	.st0{fill:#F9F8F2;}
	.st1{fill:#0063B0;}
</style>
<rect x="-39.9" y="-607.2" class="st0" width="1688.5" height="1170.6"/>
<g>
	<path class="st1" d="M165.9,84.1h-28.7v-6.3c0-3.4-2.7-6.1-6.1-6.1h-23.8c-3.4,0-6.1,2.7-6.1,6.1v6.3H89.4v-4.5
		c0-2.2-1.8-4.1-4.1-4.1h-8.5c-2.2,0-4.1,1.8-4.1,4.1v4.5h-0.2c-6.5,0-11.8,5.3-11.8,11.8V155c0,6.5,5.3,11.8,11.8,11.8h93.4
		c6.5,0,11.8-5.3,11.8-11.8V95.9C177.7,89.4,172.4,84.1,165.9,84.1z M131.1,123.7c-0.2-2.8-0.7-5.5-1.6-8.1h44.7v8.1H131.1z
		 M64.2,123.7v-8.1h9.3c-0.9,2.6-1.5,5.3-1.6,8.1H64.2z M101.5,99.3c14.4,0,26.1,11.7,26.1,26.1s-11.7,26.1-26.1,26.1
		c-14.4,0-26.1-11.7-26.1-26.1S87.1,99.3,101.5,99.3z M104.7,77.8c0-1.4,1.2-2.6,2.6-2.6h23.8c1.4,0,2.6,1.2,2.6,2.6v6.3h-29.1V77.8
		z M76.2,79.6c0-0.3,0.2-0.6,0.6-0.6h8.5c0.3,0,0.6,0.2,0.6,0.6v4.5h-9.6V79.6z M72.5,87.6c2.9,0,84.1,0,93.4,0
		c4.6,0,8.3,3.7,8.3,8.3v16.2H128c-4.9-9.7-14.9-16.3-26.5-16.3c-11.6,0-21.6,6.6-26.5,16.3H64.2V95.9C64.2,91.3,68,87.6,72.5,87.6z
		 M165.9,163.3H72.5c-4.6,0-8.3-3.7-8.3-8.3v-27.8h7.7c0.9,15.5,13.8,27.9,29.6,27.9c15.8,0,28.7-12.4,29.6-27.9h43.1V155
		C174.2,159.5,170.5,163.3,165.9,163.3z"/>
	<path class="st1" d="M101.5,143.8c10.1,0,18.3-8.2,18.3-18.3s-8.2-18.3-18.3-18.3s-18.3,8.2-18.3,18.3S91.4,143.8,101.5,143.8z
		 M101.5,110.6c8.2,0,14.8,6.7,14.8,14.8c0,8.2-6.7,14.8-14.8,14.8c-8.2,0-14.8-6.7-14.8-14.8C86.7,117.2,93.3,110.6,101.5,110.6z"
		/>
	<path class="st1" d="M145.4,99.3h13.3c1,0,1.8-0.8,1.8-1.8c0-1-0.8-1.8-1.8-1.8h-13.3c-1,0-1.8,0.8-1.8,1.8
		C143.6,98.5,144.4,99.3,145.4,99.3z"/>
	<path class="st1" d="M161.9,140.3h-23c-2.3,0-4.2,1.9-4.2,4.2v6.3c0,2.3,1.9,4.2,4.2,4.2h23c2.3,0,4.2-1.9,4.2-4.2v-6.3
		C166.1,142.2,164.2,140.3,161.9,140.3z M162.6,150.8c0,0.4-0.3,0.7-0.7,0.7h-23c-0.4,0-0.7-0.3-0.7-0.7v-6.3c0-0.4,0.3-0.7,0.7-0.7
		h23c0.4,0,0.7,0.3,0.7,0.7V150.8z"/>
</g>
</svg>
