<?xml version="1.0" encoding="utf-8"?>
<!-- Generator: Adobe Illustrator 28.3.0, SVG Export Plug-In . SVG Version: 6.00 Build 0)  -->
<svg version="1.1" id="OUTLINE" xmlns="http://www.w3.org/2000/svg" xmlns:xlink="http://www.w3.org/1999/xlink" x="0px" y="0px"
	 viewBox="0 0 238.5 238.5" style="enable-background:new 0 0 238.5 238.5;" xml:space="preserve">
<style type="text/css">
	.st0{fill:#F9F8F2;}
	.st1{fill:#0063B0;}
</style>
<rect x="-584.9" y="-46.6" class="st0" width="1688.5" height="1170.6"/>
<path class="st1" d="M177.7,90.9l-3.3-25.3c-0.1-0.8-0.8-1.4-1.5-1.5l-25.3-3.3c-2.9-0.4-5.9,0.6-8,2.7l-11,11
	c-0.3,0.3-0.4,0.6-0.5,1l-2.6,17.3l-4.6-7.6c-0.6-1-1.9-1.1-2.7-0.3l-33.5,33.5c-2.1,2.1-3.1,5.1-2.7,8l3.2,24.5L74,162l-1.7-14.8
	c-0.1-1-1-1.6-1.9-1.5c-1,0.1-1.6,1-1.5,1.9l2.1,17.6l-9.7,9.7c-0.7,0.7-0.7,1.8,0,2.5c0.7,0.7,1.8,0.7,2.5,0l9.7-9.7l17.6,2.1
	c1,0.1,1.8-0.6,1.9-1.5c0.1-1-0.6-1.8-1.5-1.9l-14.8-1.7l11.1-11.1l24.5,3.2c2.9,0.4,5.9-0.6,8-2.7l13.1-13.1c0.8-0.8,0.7-2-0.2-2.7
	l-7.9-5.7l17.9-2c0.4,0,0.8-0.2,1-0.5L175,98.9C177.1,96.8,178.1,93.8,177.7,90.9z M85.3,126c-0.2-1.9,0.4-3.8,1.7-5.1L119,88.9
	l6,9.8c0.9,1.4,3,1,3.2-0.7l3.2-21.5L142,65.9c1.3-1.3,3.2-2,5.1-1.7l21.8,2.8l-20.6,20.6l-1.6-13.6c-0.1-1-1-1.6-1.9-1.5
	c-1,0.1-1.6,1-1.5,1.9l1.9,16.3l-32.8,32.8l-1.2-10.6c-0.1-1-1-1.6-1.9-1.5c-1,0.1-1.6,1-1.5,1.9l1.6,13.3l-21,21L85.3,126z
	 M172.5,96.5L142,127l-21.8,2.4c-0.7,0.1-1.3,0.6-1.5,1.3c-0.2,0.7,0.1,1.4,0.7,1.9l9.9,7.2l-11.7,11.7c-1.3,1.3-3.2,2-5.1,1.7
	l-21.8-2.8l37.1-37.1l17.6,2.1c1,0.1,1.8-0.6,1.9-1.5c0.1-1-0.6-1.8-1.5-1.9L131,110l16.7-16.7l17.6,2.1c1,0.1,1.8-0.6,1.9-1.5
	c0.1-1-0.6-1.8-1.5-1.9l-14.8-1.7l20.6-20.6l2.8,21.8C174.5,93.2,173.8,95.1,172.5,96.5z"/>
</svg>
