<?xml version="1.0" encoding="utf-8"?>
<!-- Generator: Adobe Illustrator 28.3.0, SVG Export Plug-In . SVG Version: 6.00 Build 0)  -->
<svg version="1.1" id="OUTLINE" xmlns="http://www.w3.org/2000/svg" xmlns:xlink="http://www.w3.org/1999/xlink" x="0px" y="0px"
	 viewBox="0 0 238.5 238.5" style="enable-background:new 0 0 238.5 238.5;" xml:space="preserve">
<style type="text/css">
	.st0{fill:#F9F8F2;}
	.st1{fill:#0063B0;}
</style>
<rect x="-315.5" y="-607.2" class="st0" width="1688.5" height="1170.6"/>
<path class="st1" d="M177.2,174.9c0,0-10.9-28.7-14.5-38.2c-0.1-0.3-0.3-0.5-0.4-0.6C156.4,130.2,90,63.8,90,63.8
	c-3.6-3.6-9.4-3.6-13,0L63.8,77c-3.6,3.6-3.6,9.4,0,13c0,0,68.7,68.7,72.3,72.3c0.3,0.3,0.3,0.3,0.6,0.4
	c2.4,0.9,38.2,14.5,38.2,14.5c0.7,0.2,1.4,0.1,1.9-0.4C177.3,176.3,177.4,175.6,177.2,174.9z M139.4,160l1.9-9.1l7.4-0.7
	c0.8-0.1,1.5-0.7,1.6-1.6l0.7-7.4l9.1-1.9l7.1,18.8c-3.7,2-6.8,5-8.9,8.9L139.4,160z M91.7,84.6l55.8,55.8l-0.6,6.4l-6.5,0.6
	L84.7,91.7L91.7,84.6z M82.2,94.1l55.7,55.7l-1.6,7.7L77.5,98.8L82.2,94.1z M149.9,137.9L94.1,82.2l4.6-4.6l58.8,58.8L149.9,137.9z
	 M66.3,79.5l13.2-13.2c2.2-2.2,5.8-2.2,8.1,0l8.7,8.7L75.1,96.3l-8.7-8.7C64.1,85.3,64.1,81.7,66.3,79.5z M161.5,168.3
	c1.6-2.9,4-5.2,6.9-6.9l4.2,11.1L161.5,168.3z"/>
</svg>
