<?xml version="1.0" encoding="utf-8"?>
<!-- Generator: Adobe Illustrator 28.3.0, SVG Export Plug-In . SVG Version: 6.00 Build 0)  -->
<svg version="1.1" id="OUTLINE" xmlns="http://www.w3.org/2000/svg" xmlns:xlink="http://www.w3.org/1999/xlink" x="0px" y="0px"
	 viewBox="0 0 238.5 238.5" style="enable-background:new 0 0 238.5 238.5;" xml:space="preserve">
<style type="text/css">
	.st0{fill:#F9F8F2;}
	.st1{fill:#0063B0;}
</style>
<rect x="-39.9" y="-46.6" class="st0" width="1688.5" height="1170.6"/>
<path class="st1" d="M176.5,174c-6.7-6.7-6.3-11-5.9-15.2c0.3-3.3,0.7-6.8-2.9-10.4c-4.3-4.2-10.7-5.1-15.8-2.5
	c-2.7-12.8-27.1-38.8-36.4-48c-15.3-15.3-46-42.4-53-35.4c-7,7,20.1,37.7,35.4,53c9.2,9.2,35.5,33.9,48.1,36.3
	c-2.6,5.1-1.8,11.6,2.5,15.8c9,9,26.1,9.3,26.8,9.3c0,0,0,0,0,0c0.7,0,1.3-0.4,1.6-1.1C177.2,175.3,177,174.5,176.5,174z
	 M119.5,130.7l11.2-11.2c1.9,2.2,3.4,4.1,5.4,6.6l-10,10C123.6,134.1,121.8,132.7,119.5,130.7z M138.2,128.8
	c10.6,14.1,10.8,19.1,10.3,19.6c-0.6,0.6-5.5,0.3-19.6-10.3L138.2,128.8z M72.5,80.7c-7.8-11.1-8-15.2-7.4-15.7
	c0.5-0.5,4.6-0.3,15.7,7.4c9.5,6.6,21,16.6,32.4,28c5.5,5.5,10.6,11,15.3,16.4l-11.6,11.6c-5.4-4.7-10.9-9.9-16.4-15.3
	C89,101.7,79.1,90.2,72.5,80.7z M150.9,165.2c-3.9-3.9-3.9-10.4,0-14.3c3.9-3.9,10.3-3.9,14.3,0c2.4,2.4,2.2,4.4,1.9,7.5
	c-0.4,3.9-0.9,8.5,4,14.7C165.7,172.6,156.4,170.7,150.9,165.2z"/>
</svg>
