<?xml version="1.0" encoding="utf-8"?>
<!-- Generator: Adobe Illustrator 28.3.0, SVG Export Plug-In . SVG Version: 6.00 Build 0)  -->
<svg version="1.1" id="OUTLINE" xmlns="http://www.w3.org/2000/svg" xmlns:xlink="http://www.w3.org/1999/xlink" x="0px" y="0px"
	 viewBox="0 0 238.5 238.5" style="enable-background:new 0 0 238.5 238.5;" xml:space="preserve">
<style type="text/css">
	.st0{fill:#F9F8F2;}
	.st1{fill:#0063B0;}
</style>
<rect x="-1402.5" y="-46.6" class="st0" width="1688.5" height="1170.6"/>
<path class="st1" d="M172.2,156.4h-2.9l-6.3-43.6c-0.4-2.8-2.8-4.8-5.6-4.8h-15.7l-3.4-23.4h0.1c5.8,0,10.6-4.7,10.6-10.6
	c0-5.8-4.7-10.6-10.6-10.6H100c-5.8,0-10.6,4.7-10.6,10.6c0,5.8,4.7,10.6,10.6,10.6h0.1L96.7,108H81c-2.8,0-5.2,2.1-5.6,4.8
	l-6.3,43.6h-2.9c-3.1,0-5.7,2.5-5.7,5.7v7.1c0,3.1,2.5,5.7,5.7,5.7h21c3.1,0,5.7-2.5,5.7-5.7v-9.3h9.4v10.7c0,2.3,1.9,4.2,4.2,4.2
	h25.4c2.3,0,4.2-1.9,4.2-4.2v-10.7h9.4v9.3c0,3.1,2.5,5.7,5.7,5.7h21c3.1,0,5.7-2.5,5.7-5.7v-7.1C177.9,159,175.4,156.4,172.2,156.4
	z M157.4,111.5c1.1,0,2,0.8,2.1,1.8l6.2,43.1h-17l-6.6-44.9H157.4z M103.5,81.8c-0.3-0.4-0.8-0.6-1.3-0.6H100
	c-3.9,0-7.1-3.2-7.1-7.1c0-3.9,3.2-7.1,7.1-7.1h38.5c3.9,0,7.1,3.2,7.1,7.1c0,3.9-3.2,7.1-7.1,7.1h-2.2c-0.5,0-1,0.2-1.3,0.6
	c-0.3,0.4-0.5,0.9-0.4,1.4l3.6,24.9h-38l3.6-24.9C103.9,82.7,103.8,82.2,103.5,81.8z M78.9,113.4c0.2-1.1,1.1-1.8,2.1-1.8h15.2
	l-6.6,44.9h-17L78.9,113.4z M89.4,169.2c0,1.2-1,2.2-2.2,2.2h-21c-1.2,0-2.2-1-2.2-2.2v-7.1c0-1.2,1-2.2,2.2-2.2c8.3,0,9,0,23.2,0
	V169.2z M132.7,170.7c0,0.4-0.3,0.7-0.7,0.7h-25.4c-0.4,0-0.7-0.3-0.7-0.7v-10.7h26.9V170.7z M93.2,156.4l6.6-44.9h39l6.6,44.9
	C133.3,156.4,104.3,156.4,93.2,156.4z M174.4,169.2c0,1.2-1,2.2-2.2,2.2h-21c-1.2,0-2.2-1-2.2-2.2v-9.3c14.2,0,14.9,0,23.2,0
	c1.2,0,2.2,1,2.2,2.2V169.2z"/>
</svg>
