<?xml version="1.0" encoding="utf-8"?>
<!-- Generator: Adobe Illustrator 28.3.0, SVG Export Plug-In . SVG Version: 6.00 Build 0)  -->
<svg version="1.1" id="OUTLINE" xmlns="http://www.w3.org/2000/svg" xmlns:xlink="http://www.w3.org/1999/xlink" x="0px" y="0px"
	 viewBox="0 0 238.5 238.5" style="enable-background:new 0 0 238.5 238.5;" xml:space="preserve">
<style type="text/css">
	.st0{fill:#F9F8F2;}
	.st1{fill:#0063B0;}
</style>
<rect x="-1133" y="-46.6" class="st0" width="1688.5" height="1170.6"/>
<g>
	<path class="st1" d="M93,60.4H64.5c-2.3,0-4.1,1.8-4.1,4.1V93c0,2.3,1.8,4.1,4.1,4.1H93c2.3,0,4.1-1.8,4.1-4.1V64.5
		C97.1,62.3,95.3,60.4,93,60.4z M93.6,93c0,0.3-0.3,0.6-0.6,0.6H64.5c-0.3,0-0.6-0.3-0.6-0.6V64.5c0-0.3,0.3-0.6,0.6-0.6H93
		c0.3,0,0.6,0.3,0.6,0.6V93z"/>
	<path class="st1" d="M133.4,60.4H105c-2.3,0-4.1,1.8-4.1,4.1V93c0,2.3,1.8,4.1,4.1,4.1h28.4c2.3,0,4.1-1.8,4.1-4.1V64.5
		C137.6,62.3,135.7,60.4,133.4,60.4z M134.1,93c0,0.3-0.3,0.6-0.6,0.6H105c-0.3,0-0.6-0.3-0.6-0.6V64.5c0-0.3,0.3-0.6,0.6-0.6h28.4
		c0.3,0,0.6,0.3,0.6,0.6V93z"/>
	<path class="st1" d="M93,100.9H64.5c-2.3,0-4.1,1.8-4.1,4.1v28.4c0,2.3,1.8,4.1,4.1,4.1H93c2.3,0,4.1-1.8,4.1-4.1V105
		C97.1,102.7,95.3,100.9,93,100.9z M93.6,133.4c0,0.3-0.3,0.6-0.6,0.6H64.5c-0.3,0-0.6-0.3-0.6-0.6V105c0-0.3,0.3-0.6,0.6-0.6H93
		c0.3,0,0.6,0.3,0.6,0.6V133.4z"/>
	<path class="st1" d="M93,141.4H64.5c-2.3,0-4.1,1.8-4.1,4.1v28.4c0,2.3,1.8,4.1,4.1,4.1H93c2.3,0,4.1-1.8,4.1-4.1v-28.4
		C97.1,143.2,95.3,141.4,93,141.4z M93.6,173.9c0,0.3-0.3,0.6-0.6,0.6H64.5c-0.3,0-0.6-0.3-0.6-0.6v-28.4c0-0.3,0.3-0.6,0.6-0.6H93
		c0.3,0,0.6,0.3,0.6,0.6V173.9z"/>
	<path class="st1" d="M133.4,100.9H105c-2.3,0-4.1,1.8-4.1,4.1v28.4c0,2.3,1.8,4.1,4.1,4.1h28.4c2.3,0,4.1-1.8,4.1-4.1V105
		C137.6,102.7,135.7,100.9,133.4,100.9z M134.1,133.4c0,0.3-0.3,0.6-0.6,0.6H105c-0.3,0-0.6-0.3-0.6-0.6V105c0-0.3,0.3-0.6,0.6-0.6
		h28.4c0.3,0,0.6,0.3,0.6,0.6V133.4z"/>
	<path class="st1" d="M133.4,141.4H105c-2.3,0-4.1,1.8-4.1,4.1v28.4c0,2.3,1.8,4.1,4.1,4.1h28.4c2.3,0,4.1-1.8,4.1-4.1v-28.4
		C137.6,143.2,135.7,141.4,133.4,141.4z M134.1,173.9c0,0.3-0.3,0.6-0.6,0.6H105c-0.3,0-0.6-0.3-0.6-0.6v-28.4
		c0-0.3,0.3-0.6,0.6-0.6h28.4c0.3,0,0.6,0.3,0.6,0.6V173.9z"/>
	<path class="st1" d="M173.9,100.9h-28.4c-2.3,0-4.1,1.8-4.1,4.1v28.4c0,2.3,1.8,4.1,4.1,4.1h28.4c2.3,0,4.1-1.8,4.1-4.1V105
		C178,102.7,176.2,100.9,173.9,100.9z M174.5,133.4c0,0.3-0.3,0.6-0.6,0.6h-28.4c-0.3,0-0.6-0.3-0.6-0.6V105c0-0.3,0.3-0.6,0.6-0.6
		h28.4c0.3,0,0.6,0.3,0.6,0.6V133.4z"/>
	<path class="st1" d="M173.9,141.4h-28.4c-2.3,0-4.1,1.8-4.1,4.1v28.4c0,2.3,1.8,4.1,4.1,4.1h28.4c2.3,0,4.1-1.8,4.1-4.1v-28.4
		C178,143.2,176.2,141.4,173.9,141.4z M174.5,173.9c0,0.3-0.3,0.6-0.6,0.6h-28.4c-0.3,0-0.6-0.3-0.6-0.6v-28.4
		c0-0.3,0.3-0.6,0.6-0.6h28.4c0.3,0,0.6,0.3,0.6,0.6V173.9z"/>
	<path class="st1" d="M173.9,60.4h-28.4c-2.3,0-4.1,1.8-4.1,4.1V93c0,2.3,1.8,4.1,4.1,4.1h28.4c2.3,0,4.1-1.8,4.1-4.1V64.5
		C178,62.3,176.2,60.4,173.9,60.4z M174.5,93c0,0.3-0.3,0.6-0.6,0.6h-28.4c-0.3,0-0.6-0.3-0.6-0.6V64.5c0-0.3,0.3-0.6,0.6-0.6h28.4
		c0.3,0,0.6,0.3,0.6,0.6V93z"/>
</g>
</svg>
