<?xml version="1.0" encoding="utf-8"?>
<!-- Generator: Adobe Illustrator 28.3.0, SVG Export Plug-In . SVG Version: 6.00 Build 0)  -->
<svg version="1.1" id="OUTLINE" xmlns="http://www.w3.org/2000/svg" xmlns:xlink="http://www.w3.org/1999/xlink" x="0px" y="0px"
	 viewBox="0 0 238.5 238.5" style="enable-background:new 0 0 238.5 238.5;" xml:space="preserve">
<style type="text/css">
	.st0{fill:#F9F8F2;}
	.st1{fill:#0D8E49;}
</style>
<rect x="-1133" y="-898.2" class="st0" width="1688.5" height="1170.6"/>
<g>
	<path class="st1" d="M102.2,91.9v-10h5.1c1,0,1.8-0.8,1.8-1.8V63.7c0-1-0.8-1.8-1.8-1.8H67.8c-1,0-1.8,0.8-1.8,1.8v16.4
		c0,1,0.8,1.8,1.8,1.8h5.1v10c-7.3,1.3-12.5,7.7-12.5,14.9c0,22.3,0,40.9,0,63.1c0,3.6,3,6.6,6.6,6.6h41.1c3.6,0,6.6-3,6.6-6.6
		c0-22.2,0-40.9,0-63.1C114.7,99.6,109.6,93.2,102.2,91.9z M89.3,78.3V65.4h6.6v12.9H89.3z M79.2,78.3V65.4h6.6v12.9H79.2z
		 M105.6,78.3c-0.3,0-6.3,0-6.2,0V65.4h6.2V78.3z M69.6,65.4h6.2v12.9c-0.2,0-6.3,0-6.2,0V65.4z M98.7,81.8v9.8H76.4v-9.8H98.7z
		 M111.2,154.8H63.9v-41.6h47.3V154.8z M108.1,173H67c-1.7,0-3.1-1.4-3.1-3.1v-11.6h47.3v11.6C111.2,171.6,109.8,173,108.1,173z
		 M111.2,109.8H63.9v-3c0-6.4,5.2-11.7,11.7-11.7h24c6.5,0,11.7,5.4,11.7,11.7V109.8z"/>
	<path class="st1" d="M87.6,150.5c6.9,0,12.5-5.6,12.5-12.5c0-6.4-10-18.4-11.1-19.7c-0.7-0.8-2-0.8-2.7,0
		c-1.1,1.3-11.1,13.3-11.1,19.7C75.1,144.9,80.7,150.5,87.6,150.5z M87.6,122.2c3.9,4.9,9,12.4,9,15.8c0,5-4,9-9,9c-5,0-9-4-9-9
		C78.6,134.6,83.7,127.1,87.6,122.2z"/>
	<path class="st1" d="M165.5,91.9v-10h5.1c1,0,1.8-0.8,1.8-1.8V63.7c0-1-0.8-1.8-1.8-1.8h-39.5c-1,0-1.8,0.8-1.8,1.8v16.4
		c0,1,0.8,1.8,1.8,1.8h5.1v10c-7.3,1.3-12.5,7.8-12.5,14.9c0,22.3,0,40.9,0,63.1c0,3.6,3,6.6,6.6,6.6h41.1c3.6,0,6.6-3,6.6-6.6
		c0-27.3,0-41.8,0-63.1C178,99.6,172.8,93.2,165.5,91.9z M152.6,78.3V65.4h6.6v12.9H152.6z M142.5,78.3V65.4h6.6v12.9H142.5z
		 M168.9,78.3c-0.3,0-6.3,0-6.2,0V65.4h6.2V78.3z M132.8,65.4h6.2v12.9c-0.2,0-6.3,0-6.2,0V65.4z M162,81.8v9.8h-22.3v-9.8H162z
		 M138.9,95.1h24c6.5,0,11.7,5.3,11.7,11.7v3h-47.3v-3C127.2,100.4,132.4,95.1,138.9,95.1z M174.5,154.8h-47.3v-41.6h47.3V154.8z
		 M171.4,173h-41.1c-1.7,0-3.1-1.4-3.1-3.1v-11.6h47.3v11.6C174.5,171.6,173.1,173,171.4,173z"/>
	<path class="st1" d="M150.9,150.5c6.9,0,12.5-5.6,12.5-12.5c0-6.4-10-18.4-11.1-19.7c-0.7-0.8-2-0.8-2.7,0
		c-1.1,1.3-11.1,13.3-11.1,19.7C138.4,144.9,144,150.5,150.9,150.5z M150.9,122.2c3.9,4.9,9,12.4,9,15.8c0,5-4,9-9,9c-5,0-9-4-9-9
		C141.9,134.6,146.9,127.1,150.9,122.2z"/>
</g>
</svg>
