<?xml version="1.0" encoding="utf-8"?>
<!-- Generator: Adobe Illustrator 28.3.0, SVG Export Plug-In . SVG Version: 6.00 Build 0)  -->
<svg version="1.1" id="OUTLINE" xmlns="http://www.w3.org/2000/svg" xmlns:xlink="http://www.w3.org/1999/xlink" x="0px" y="0px"
	 viewBox="0 0 238.5 238.5" style="enable-background:new 0 0 238.5 238.5;" xml:space="preserve">
<style type="text/css">
	.st0{fill:#F9F8F2;}
	.st1{fill:#0D8E49;}
</style>
<rect x="-869.8" y="-607.2" class="st0" width="1688.5" height="1170.6"/>
<g>
	<path class="st1" d="M79,100h52.2c1,0,1.8-0.8,1.8-1.8s-0.8-1.8-1.8-1.8H79c-1,0-1.8,0.8-1.8,1.8S78,100,79,100z"/>
	<path class="st1" d="M79,113.3h52.2c1,0,1.8-0.8,1.8-1.8s-0.8-1.8-1.8-1.8H79c-1,0-1.8,0.8-1.8,1.8S78,113.3,79,113.3z"/>
	<path class="st1" d="M79,126.6h52.2c1,0,1.8-0.8,1.8-1.8s-0.8-1.8-1.8-1.8H79c-1,0-1.8,0.8-1.8,1.8S78,126.6,79,126.6z"/>
	<path class="st1" d="M125.1,138.2c0-1-0.8-1.8-1.8-1.8H79c-1,0-1.8,0.8-1.8,1.8c0,1,0.8,1.8,1.8,1.8h44.4
		C124.3,140,125.1,139.2,125.1,138.2z"/>
	<path class="st1" d="M176.3,104.2l-4.6-3.5c-2.2-1.7-5.4-1.3-7.1,1c-5.4,7.1-9.1,11.9-14.7,19.3V84.8c0-0.5-0.2-0.9-0.5-1.3
		L126.8,61c-0.1-0.1-0.2-0.2-0.3-0.2c0,0-0.1,0-0.1,0c-0.1,0-0.1-0.1-0.2-0.1c-0.1,0-0.1,0-0.2-0.1c0,0-0.1,0-0.1,0
		c-0.1,0-0.2,0-0.4,0H66.7c-3.6,0-6.5,2.9-6.5,6.5v104.7c0,3.6,2.9,6.5,6.5,6.5h76.8c3.6,0,6.5-2.9,6.5-6.5V147
		c26.4-34.6,21.3-27.9,27.3-35.7C178.9,109.1,178.5,105.9,176.3,104.2z M146.8,145.4C146.8,145.4,146.8,145.4,146.8,145.4l-2.3,3
		l-7-5.4c8.4-10.9,16.2-21.2,23.8-31.2l7,5.4L146.8,145.4z M141.6,150.6l-7.8,4.4l2.2-8.7L141.6,150.6z M127.3,66.4l16.6,16.6h-13.7
		c-1.6,0-3-1.3-3-3V66.4z M146.4,151.6v19.9c0,1.6-1.3,3-3,3H66.7c-1.6,0-3-1.3-3-3V66.9c0-1.6,1.3-3,3-3h57.1v16.1
		c0,3.6,2.9,6.5,6.5,6.5h16.2v39l-12.8,16.7c-0.1,0.1-0.2,0.3-0.3,0.6c-0.4,1.7-3.5,13.9-3.5,13.9h-19.3c-1,0-1.8,0.8-1.8,1.8
		c0,1,0.8,1.8,1.8,1.8h20.7c0.3,0,0.6-0.1,0.9-0.2c0,0,12.9-7.3,13.7-7.7c0.1-0.1,0.3-0.2,0.5-0.5L146.4,151.6z M174.4,109.2
		C174.4,109.2,174.4,109.2,174.4,109.2l-4,5.2l-7-5.4l4-5.2c0.5-0.7,1.5-0.8,2.2-0.3l4.6,3.5C174.8,107.5,174.9,108.5,174.4,109.2z"
		/>
</g>
</svg>
