<?xml version="1.0" encoding="utf-8"?>
<!-- Generator: Adobe Illustrator 28.3.0, SVG Export Plug-In . SVG Version: 6.00 Build 0)  -->
<svg version="1.1" id="OUTLINE" xmlns="http://www.w3.org/2000/svg" xmlns:xlink="http://www.w3.org/1999/xlink" x="0px" y="0px"
	 viewBox="0 0 238.5 238.5" style="enable-background:new 0 0 238.5 238.5;" xml:space="preserve">
<style type="text/css">
	.st0{fill:#F9F8F2;}
	.st1{fill:#0D8E49;}
</style>
<rect x="-39.9" y="-898.2" class="st0" width="1688.5" height="1170.6"/>
<g>
	<path class="st1" d="M91.6,142.9c-5.6-3.9-13.3-2.6-17.3,3.1c-3.9,5.6-2.5,13.3,3.1,17.3c5.6,3.9,13.3,2.6,17.3-3.1
		C98.6,154.5,97.2,146.8,91.6,142.9z M91.8,158.1c-2.8,4-8.4,5-12.4,2.2c-4-2.8-5-8.4-2.2-12.4c2.8-4,8.4-5,12.4-2.2
		C93.6,148.5,94.6,154.1,91.8,158.1z"/>
	<path class="st1" d="M146.8,142.9c-5.6,3.9-7,11.7-3.1,17.3c3.9,5.6,11.7,7,17.3,3.1c5.6-3.9,7-11.7,3.1-17.3
		C160.2,140.3,152.5,138.9,146.8,142.9z M159,160.3c-4,2.8-9.6,1.8-12.4-2.2c-2.8-4-1.8-9.6,2.2-12.4c4-2.8,9.6-1.8,12.4,2.2
		C164.1,152,163.1,157.5,159,160.3z"/>
	<path class="st1" d="M174.8,139.1c-5.4-8.1-15.4-12.2-25.6-10.6c-1.4,0.2-2.8,0.6-4.2,1.1c-4.3,1.5-8.9,0.6-12-2.3l26.2-37.6
		c6.5-9.4,4.2-22.3-5.1-28.9c-0.4-0.3-0.9-0.4-1.3-0.3c-0.5,0.1-0.9,0.3-1.1,0.7l-32.5,46.6L86.7,61.2c-0.6-0.8-1.6-1-2.4-0.4
		c-9.4,6.5-11.7,19.5-5.2,28.9l26.2,37.6c-3.1,2.9-7.7,3.9-12,2.3c-1.3-0.5-2.7-0.8-4.2-1.1C79,126.9,69,131,63.6,139.1
		c-7.8,11.7-4.5,27.5,7.4,35.1c11.3,7.2,26.7,3.8,34.5-7.4c1.4-2-5.1,7.3,13.7-19.7l13.7,19.7c7.8,11.2,23.3,14.6,34.5,7.4
		C179.4,166.6,182.6,150.7,174.8,139.1z M153.5,64.7c6.6,5.7,8,15.6,2.9,22.9c-2.7,3.8,8.1-11.6-29.4,42.2l-0.3-3.9
		c-0.4-4.3-4.5-7.1-8.6-6l-3.8,1C115.2,119.8,152.7,66,153.5,64.7z M84.9,64.7l32.2,46.2l-9.4,13.5L82,87.6
		C76.9,80.3,78.3,70.4,84.9,64.7z M102.6,164.8c-6.8,9.7-20.1,12.6-29.7,6.4c-10.3-6.6-13-20.2-6.4-30.2c4.6-6.9,13.3-10.5,22.1-9.1
		c1.3,0.2,2.5,0.5,3.6,0.9c6.2,2.2,12.7,0.4,16.7-4.3c0.7-0.8,1.2-1.6,1.6-2.1c0.1-0.1,0.6-1,1.9-1.3l6.7-1.8c2-0.5,4,0.9,4.2,2.9
		l0.6,6.9c0.1,0.7-0.1,1.5-0.5,2.1L102.6,164.8z M165.6,171.2C165.6,171.2,165.6,171.2,165.6,171.2c-9.6,6.2-23,3.3-29.7-6.4
		l-14.5-20.7l9.7-13.9c4,3.6,9.8,4.6,15.2,2.7c1.2-0.4,2.4-0.7,3.6-0.9c8.8-1.4,17.4,2.1,22.1,9.1
		C178.6,151.1,175.8,164.7,165.6,171.2z"/>
</g>
</svg>
