<?xml version="1.0" encoding="utf-8"?>
<!-- Generator: Adobe Illustrator 28.3.0, SVG Export Plug-In . SVG Version: 6.00 Build 0)  -->
<svg version="1.1" id="OUTLINE" xmlns="http://www.w3.org/2000/svg" xmlns:xlink="http://www.w3.org/1999/xlink" x="0px" y="0px"
	 viewBox="0 0 238.5 238.5" style="enable-background:new 0 0 238.5 238.5;" xml:space="preserve">
<style type="text/css">
	.st0{fill:#F9F8F2;}
	.st1{fill:#0D8E49;}
</style>
<rect x="-869.8" y="-325.3" class="st0" width="1688.5" height="1170.6"/>
<path class="st1" d="M177.2,77.9l-62.5-18.5c-0.9-0.3-1.9,0.3-2.2,1.2L107.1,79l-45.7,7c-1,0.1-1.6,1-1.5,2l13.1,85.2
	c0.1,1,1.1,1.6,2,1.5l15.2-2.3v5c0,1,0.8,1.8,1.8,1.8h65.2c1,0,1.8-0.8,1.8-1.8v-31.5l19.5-65.8C178.7,79.1,178.2,78.2,177.2,77.9z
	 M76.3,171L63.7,89.2l60.9-9.4l1.5,9.5H92c-1,0-1.8,0.8-1.8,1.8v77.7L76.3,171z M155.4,175.6H93.8c0-21.1,0-45.6,0-82.7
	c14.6,0,31.7,0,44.6,0v15.4c0,1,0.8,1.8,1.8,1.8h15.4C155.4,117,155.4,168.8,155.4,175.6z M153,106.5h-11.1V95.4L153,106.5z
	 M158.9,133.5v-25.3c0-0.4-0.2-0.9-0.5-1.2c-4.3-4.3-17.1-17.1-17.1-17.1c-0.3-0.3-0.8-0.5-1.2-0.5h-10.4l-1.8-11.8
	c-0.1-1-1-1.6-2-1.5l-14.9,2.3l4.5-15.2l59.1,17.5L158.9,133.5z"/>
</svg>
