<?xml version="1.0" encoding="utf-8"?>
<!-- Generator: Adobe Illustrator 28.3.0, SVG Export Plug-In . SVG Version: 6.00 Build 0)  -->
<svg version="1.1" id="OUTLINE" xmlns="http://www.w3.org/2000/svg" xmlns:xlink="http://www.w3.org/1999/xlink" x="0px" y="0px"
	 viewBox="0 0 238.5 238.5" style="enable-background:new 0 0 238.5 238.5;" xml:space="preserve">
<style type="text/css">
	.st0{fill:#F9F8F2;}
	.st1{fill:#0D8E49;}
</style>
<rect x="-1402.5" y="-898.2" class="st0" width="1688.5" height="1170.6"/>
<g>
	<path class="st1" d="M149.2,85.4H89.3c-2.1,0-3.9,1.7-3.9,3.9v59.9c0,2.1,1.7,3.9,3.9,3.9h59.9c2.1,0,3.9-1.7,3.9-3.9V89.3
		C153,87.1,151.3,85.4,149.2,85.4z M149.5,149.2c0,0.2-0.2,0.4-0.4,0.4H89.3c-0.2,0-0.4-0.2-0.4-0.4V89.3c0-0.2,0.2-0.4,0.4-0.4
		h59.9c0.2,0,0.4,0.2,0.4,0.4V149.2z"/>
	<path class="st1" d="M172.9,83.9c2.8,0,5.1-2.3,5.1-5.1V65.6c0-2.8-2.3-5.1-5.1-5.1h-13.2c-2.8,0-5.1,2.3-5.1,5.1v4.9H83.9v-4.9
		c0-2.8-2.3-5.1-5.1-5.1H65.6c-2.8,0-5.1,2.3-5.1,5.1v13.2c0,2.8,2.3,5.1,5.1,5.1h4.9v70.6h-4.9c-2.8,0-5.1,2.3-5.1,5.1v13.2
		c0,2.8,2.3,5.1,5.1,5.1h13.2c2.8,0,5.1-2.3,5.1-5.1V168h70.6v4.9c0,2.8,2.3,5.1,5.1,5.1h13.2c2.8,0,5.1-2.3,5.1-5.1v-13.2
		c0-2.8-2.3-5.1-5.1-5.1H168V83.9H172.9z M159.7,63.9h13.2c0.9,0,1.6,0.7,1.6,1.6v13.2c0,0.9-0.7,1.6-1.6,1.6c-12,0-11.4,0-13.2,0
		c-0.9,0-1.6-0.7-1.6-1.6c0-1.4,0,2.9,0-13.2C158,64.7,158.7,63.9,159.7,63.9z M63.9,78.8V65.6c0-0.9,0.7-1.6,1.6-1.6h13.2
		c0.9,0,1.6,0.7,1.6,1.6c0,12,0,11.4,0,13.2c0,0.9-0.7,1.6-1.6,1.6c-1.3,0,2.9,0-13.2,0C64.7,80.4,63.9,79.7,63.9,78.8z M78.8,174.5
		H65.6c-0.9,0-1.6-0.7-1.6-1.6v-13.2c0-0.9,0.7-1.6,1.6-1.6c12,0,11.4,0,13.2,0c0.9,0,1.6,0.7,1.6,1.6v6.6c0,0,0,0,0,0s0,0,0,0v6.6
		C80.4,173.8,79.7,174.5,78.8,174.5z M174.5,159.7v13.2c0,0.9-0.7,1.6-1.6,1.6h-13.2c-0.9,0-1.6-0.7-1.6-1.6c0-12,0-11.4,0-13.2
		c0-0.9,0.7-1.6,1.6-1.6c1.3,0-2.9,0,13.2,0C173.8,158,174.5,158.7,174.5,159.7z M164.5,154.5h-4.9c-2.8,0-5.1,2.3-5.1,5.1v4.9H83.9
		v-4.9c0-2.8-2.3-5.1-5.1-5.1h-4.9V83.9h4.9c2.8,0,5.1-2.3,5.1-5.1v-4.9h70.6v4.9c0,2.8,2.3,5.1,5.1,5.1h4.9V154.5z"/>
	<path class="st1" d="M106.2,93.3h-8.9c-2.1,0-3.9,1.7-3.9,3.9v8.9c0,1,0.8,1.8,1.8,1.8c1,0,1.8-0.8,1.8-1.8v-8.9
		c0-0.2,0.2-0.4,0.4-0.4h8.9c1,0,1.8-0.8,1.8-1.8C108,94.1,107.2,93.3,106.2,93.3z"/>
</g>
</svg>
