<?xml version="1.0" encoding="utf-8"?>
<!-- Generator: Adobe Illustrator 28.3.0, SVG Export Plug-In . SVG Version: 6.00 Build 0)  -->
<svg version="1.1" id="OUTLINE" xmlns="http://www.w3.org/2000/svg" xmlns:xlink="http://www.w3.org/1999/xlink" x="0px" y="0px"
	 viewBox="0 0 238.5 238.5" style="enable-background:new 0 0 238.5 238.5;" xml:space="preserve">
<style type="text/css">
	.st0{fill:#F9F8F2;}
	.st1{fill:#0D8E49;}
</style>
<rect x="-1402.5" y="-325.3" class="st0" width="1688.5" height="1170.6"/>
<g>
	<path class="st1" d="M162.7,64.8c-4.7-4.7-12.3-4.7-17,0l-11,11l-1.1-1.1c-2.6-2.6-6.9-2.6-9.5,0c-2.6,2.6-2.6,6.9,0,9.5l1.1,1.1
		c-6.7,6.7-27.5,27.5-35.3,35.3c-2.9,2.9-4.1,7-3.3,11c0.1,0.5-0.1,1.2-0.5,1.6l-6.9,6.9c-2.3,2.3-2.4,5.8-0.4,8.1
		c2.3,2.5,6.1,2.5,8.4,0.2l7.1-7.1c0.4-0.4,1.1-0.6,1.6-0.5c4,0.9,8.1-0.4,11-3.3c6-6,30.6-30.6,35.3-35.3l1.1,1.1
		c2.6,2.6,6.9,2.6,9.5,0c2.6-2.6,2.6-6.9,0-9.5l-1.1-1.1l11-11C167.4,77.1,167.4,69.5,162.7,64.8z M104.5,135.1
		c-2.1,2.1-5,2.9-7.8,2.3c-1.7-0.4-3.5,0.2-4.8,1.5l-7.1,7.1c-0.9,0.9-2.4,0.9-3.3-0.1c-0.8-0.9-0.7-2.4,0.2-3.3l6.9-6.9
		c1.3-1.3,1.8-3.1,1.5-4.8c-0.6-2.9,0.3-5.8,2.3-7.8l16-16h24.2L104.5,135.1z M136.1,103.5h-24.2l15.7-15.7l12.1,12.1L136.1,103.5z
		 M150.4,100.9c-1.3,1.3-3.3,1.3-4.5,0l-19.3-19.3c-1.3-1.3-1.3-3.3,0-4.5c1.3-1.3,3.3-1.3,4.5,0c6.9,6.9,12.4,12.4,19.3,19.3
		c0,0,0,0,0,0C151.6,97.6,151.6,99.7,150.4,100.9z M149.2,90.3l-12.1-12.1l11-11c3.3-3.3,8.7-3.3,12.1,0c3.3,3.3,3.3,8.7,0,12.1
		L149.2,90.3z"/>
	<path class="st1" d="M80.8,154.9c-0.5,0-1,0.2-1.3,0.6c-1.2,1.4-7.3,8.8-7.3,13c0,4.7,3.9,8.6,8.6,8.6c4.7,0,8.6-3.9,8.6-8.6
		c0-4.2-6.1-11.6-7.3-13C81.8,155.2,81.3,154.9,80.8,154.9z M80.8,173.7c-2.8,0-5.1-2.3-5.1-5.1c0-1.8,2.7-6,5.1-9.1
		c2.4,3.2,5.1,7.3,5.1,9.1C85.9,171.4,83.6,173.7,80.8,173.7z"/>
</g>
</svg>
