<?xml version="1.0" encoding="utf-8"?>
<!-- Generator: Adobe Illustrator 28.3.0, SVG Export Plug-In . SVG Version: 6.00 Build 0)  -->
<svg version="1.1" id="OUTLINE" xmlns="http://www.w3.org/2000/svg" xmlns:xlink="http://www.w3.org/1999/xlink" x="0px" y="0px"
	 viewBox="0 0 238.5 238.5" style="enable-background:new 0 0 238.5 238.5;" xml:space="preserve">
<style type="text/css">
	.st0{fill:#F9F8F2;}
	.st1{fill:#0D8E49;}
</style>
<rect x="-1133" y="-325.3" class="st0" width="1688.5" height="1170.6"/>
<g>
	<path class="st1" d="M135.1,105.4c0-2.8-1.9-5.2-4.5-5.8v-0.7c0-7.9-6.5-14.4-14.4-14.4h-2v-4.7h2.8c1,0,1.8-0.8,1.8-1.8
		c0-1-0.8-1.8-1.8-1.8h-2.8v-6.4c0-1-0.8-1.8-1.8-1.8h-6.9c-4.4,0-7.9,3.5-7.9,7.9v8.4h-2c-7.9,0-14.4,6.5-14.4,14.4v0.8
		c-2.5,0.8-4.3,3.1-4.3,5.8c0,2.8,1.9,5.2,4.5,5.8v54.9c-2.6,0.7-4.5,3-4.5,5.8c0,3.3,2.7,6,6,6H129c3.3,0,6-2.7,6-6
		c0-2.8-1.9-5.2-4.5-5.8v-54.9C133.1,110.6,135.1,108.2,135.1,105.4z M101,76c0-2.4,2-4.4,4.4-4.4h5.2v12.8H101V76z M84.6,98.9
		c0-6,4.9-10.9,10.9-10.9c4.3,0,13.2,0,20.6,0c6,0,10.9,4.9,10.9,10.9v0.5H84.6V98.9z M80.3,105.4c0-1.4,1.1-2.5,2.5-2.5
		c18.4,0,29.5,0,46.2,0c1.4,0,2.5,1.1,2.5,2.5c0,1.4-1.1,2.5-2.5,2.5c-12.9,0-29.5,0-46.2,0C81.4,107.9,80.3,106.8,80.3,105.4z
		 M127,165.9H84.8v-54.5H127V165.9z M131.6,172c0,1.4-1.1,2.5-2.5,2.5H82.8c-1.4,0-2.5-1.1-2.5-2.5c0-1.4,1.1-2.5,2.5-2.5
		c8,0,38.2,0,46.2,0C130.4,169.4,131.6,170.6,131.6,172z"/>
	<path class="st1" d="M161.6,78c0-4.3-3-7.8-7.1-8.7c0,0,0-0.1,0-0.1c0-4.9-4-8.8-8.8-8.8c-4.9,0-8.8,4-8.8,8.8v3l-14.6,4.1
		c-0.8,0.2-1.3,0.9-1.3,1.7c0,0.8,0.5,1.5,1.3,1.7l14.6,4.1v3c0,4.9,4,8.8,8.8,8.8c4.9,0,8.8-4,8.8-8.8c0,0,0-0.1,0-0.1
		C158.6,85.9,161.6,82.3,161.6,78z M152.7,83.4c-1.2,0-2,1.1-1.7,2.2c0.1,0.4,0.2,0.9,0.2,1.3c0,2.9-2.4,5.3-5.3,5.3
		c-2.9,0-5.3-2.4-5.3-5.3v-4.3c0-0.8-0.5-1.5-1.3-1.7l-9.8-2.8l9.8-2.8c0.8-0.2,1.3-0.9,1.3-1.7v-4.3c0-2.9,2.4-5.3,5.3-5.3
		c3.4,0,6,3.2,5.2,6.6c-0.3,1.1,0.5,2.2,1.9,2.2c2.9,0,5.3,2.4,5.3,5.3C158.1,81,155.6,83.5,152.7,83.4z"/>
	<path class="st1" d="M105.9,152.8c7.8,0,14.1-6.3,14.1-14.1s-6.3-14.1-14.1-14.1c-7.8,0-14.1,6.3-14.1,14.1S98.2,152.8,105.9,152.8
		z M105.9,128.1c5.8,0,10.6,4.8,10.6,10.6s-4.8,10.6-10.6,10.6c-5.8,0-10.6-4.8-10.6-10.6S100.1,128.1,105.9,128.1z"/>
</g>
</svg>
