<?xml version="1.0" encoding="utf-8"?>
<!-- Generator: Adobe Illustrator 28.3.0, SVG Export Plug-In . SVG Version: 6.00 Build 0)  -->
<svg version="1.1" id="OUTLINE" xmlns="http://www.w3.org/2000/svg" xmlns:xlink="http://www.w3.org/1999/xlink" x="0px" y="0px"
	 viewBox="0 0 238.5 238.5" style="enable-background:new 0 0 238.5 238.5;" xml:space="preserve">
<style type="text/css">
	.st0{fill:#F9F8F2;}
	.st1{fill:#0D8E49;}
</style>
<rect x="-584.9" y="-898.2" class="st0" width="1688.5" height="1170.6"/>
<g>
	<path class="st1" d="M175.8,85l-4.6-3.3c-1.8-1.3-4.4-0.9-5.8,0.9c-4.2,5.7-6.2,8.4-9.8,13.4c0,0-58.3,0-77.7,0
		c-0.5,0-1,0.2-1.2,0.5c-3.8,3.8-11.4,11.4-15.2,15.2c-0.3,0.3-0.5,0.7-0.5,1.2c0,12.9,0,51.8,0,51.8c0,2.9,2.4,5.2,5.3,5.2H159
		c2.9,0,5.3-2.4,5.3-5.2v-57c5.3-7.2,3.4-4.6,12.4-16.9C178,89,177.6,86.4,175.8,85z M146.5,126.1l-5.6-4.1L161.4,94L167,98
		C163.9,102.2,147.6,124.5,146.5,126.1z M139.5,125.4l4.2,3.1l-5.9,3.6L139.5,125.4z M76.2,102v7.5c0,1-0.8,1.8-1.8,1.8H67L76.2,102
		z M160.8,164.7c0,1-0.8,1.8-1.8,1.8H66.3c-1,0-1.8-0.8-1.8-1.8v-50h9.9c2.9,0,5.3-2.4,5.3-5.3v-9.9H153l-16,21.9c0,0,0,0,0,0
		c-0.2,0.2-0.2,0.4-0.3,0.7l-3,12h-46c-1,0-1.8,0.8-1.8,1.8c0,1,0.8,1.8,1.8,1.8c0,0,35.4,0,47.3,0c0.3,0,0.6,0,1-0.3
		c2.9-1.8,11.8-7.3,11.8-7.3c0,0,0,0,0,0c0.2-0.1,0.3-0.2,0.5-0.4c0,0,0,0,0,0l12.5-17.1V164.7z M173.8,88.7l-4.8,6.5l-5.6-4.1
		l4.8-6.5c0.2-0.3,0.6-0.4,0.9-0.1l4.6,3.3C174,88,174,88.4,173.8,88.7z"/>
	<path class="st1" d="M95.7,125.9h22.1c1,0,1.8-0.8,1.8-1.8c0-1-0.8-1.8-1.8-1.8H95.7c-1,0-1.8,0.8-1.8,1.8
		C93.9,125.1,94.7,125.9,95.7,125.9z"/>
	<path class="st1" d="M95.7,115.7h33.2c1,0,1.8-0.8,1.8-1.8c0-1-0.8-1.8-1.8-1.8H95.7c-1,0-1.8,0.8-1.8,1.8
		C93.9,114.9,94.7,115.7,95.7,115.7z"/>
	<path class="st1" d="M70.6,90.1h76.7c2.2,0,4-1.8,4-4V72.5c0-2.2-1.8-4-4-4H70.6c-2.2,0-4,1.8-4,4v13.5
		C66.5,88.3,68.3,90.1,70.6,90.1z M70,72.5c0-0.3,0.2-0.5,0.5-0.5h5.4v4.2c0,1,0.8,1.8,1.8,1.8c1,0,1.8-0.8,1.8-1.8V72h6.8v4.2
		c0,1,0.8,1.8,1.8,1.8c1,0,1.8-0.8,1.8-1.8V72h6.8v4.2c0,1,0.8,1.8,1.8,1.8c1,0,1.8-0.8,1.8-1.8V72h6.8v4.2c0,1,0.8,1.8,1.8,1.8
		c1,0,1.8-0.8,1.8-1.8V72h6.8v4.2c0,1,0.8,1.8,1.8,1.8c1,0,1.8-0.8,1.8-1.8V72h6.8v4.2c0,1,0.8,1.8,1.8,1.8c1,0,1.8-0.8,1.8-1.8V72
		h6.8v4.2c0,1,0.8,1.8,1.8,1.8s1.8-0.8,1.8-1.8V72h6.2c0.3,0,0.5,0.2,0.5,0.5v13.5c0,0.3-0.2,0.5-0.5,0.5H70.6
		c-0.3,0-0.5-0.2-0.5-0.5V72.5z"/>
</g>
</svg>
