<?xml version="1.0" encoding="UTF-8"?>
<svg xmlns="http://www.w3.org/2000/svg" xmlns:xlink="http://www.w3.org/1999/xlink" width="1000pt" height="1000pt" viewBox="0 0 1000 1000">
<path fill-rule="nonzero" fill="#0063b0" fill-opacity="1" d="M 565.453125 417.824219 C 577.628906 416.5 587.839844 417.699219 588.261719 420.910156 C 588.683594 424.125 579.160156 427.804688 566.984375 429.128906 C 554.808594 430.453125 544.597656 428.921875 544.175781 425.707031 C 543.75 422.492188 553.28125 419.148438 565.453125 417.824219 M 541.96875 428.820312 C 545.554688 431.703125 555.335938 432.734375 566.890625 431.445312 C 582.570312 429.699219 591.859375 424.628906 591.46875 420.929688 C 591.394531 420.234375 590.976562 419.574219 590.226562 418.972656 C 587.664062 416.910156 581.945312 415.796875 574.675781 415.796875 C 571.765625 415.796875 568.605469 415.976562 565.304688 416.34375 C 549.621094 418.089844 540.335938 423.164062 540.726562 426.859375 C 540.800781 427.558594 541.21875 428.214844 541.96875 428.820312 M 575.808594 375.0625 C 572.039062 376.585938 567.703125 375.867188 564.828125 372.988281 C 561.472656 369.632812 559.609375 364.40625 559.609375 358.128906 C 559.609375 345.265625 567.460938 329.277344 578.984375 329.277344 C 588.007812 329.277344 590.851562 337.085938 590.851562 346.136719 C 590.851562 359.242188 585.699219 371.066406 575.808594 375.0625 M 565.164062 415.109375 C 577.03125 413.785156 587.175781 414.921875 591.003906 418.003906 C 592.023438 418.820312 592.59375 419.761719 592.703125 420.800781 C 593.238281 425.882812 582.203125 430.992188 567.027344 432.683594 C 563.742188 433.046875 560.585938 433.226562 557.664062 433.226562 C 550.027344 433.226562 543.960938 432.015625 541.191406 429.789062 C 540.171875 428.96875 539.601562 428.027344 539.492188 426.992188 C 538.957031 421.910156 549.992188 416.800781 565.164062 415.109375 M 596.464844 496.054688 C 576.050781 507.367188 557.882812 503.484375 551.816406 501.644531 L 577.742188 464.441406 C 583 457.152344 587.363281 450.988281 590.890625 445.574219 L 592.046875 443.914062 Z M 548.269531 493.621094 C 547.9375 493.621094 547.988281 493.808594 547.988281 493.808594 L 541.097656 434.367188 C 546.109375 436.390625 552.457031 437.398438 559.453125 437.398438 C 571.597656 437.398438 584.59375 434.621094 591.925781 430.171875 C 588.859375 437.253906 584.214844 449.128906 566.652344 472.316406 C 564.253906 476.152344 549.699219 493.621094 548.269531 493.621094 M 489.277344 492.296875 C 488.480469 493.582031 486.089844 497.25 485.285156 497.25 C 484.964844 497.25 484.804688 496.457031 484.804688 495.496094 L 475.375 401.667969 C 470.804688 402.070312 460.914062 403.0625 450.089844 405.636719 C 466.234375 396.738281 480.148438 381.976562 490.507812 369.09375 C 492.152344 367.023438 492.8125 367.023438 498.394531 367.023438 L 522.351562 367.023438 C 523.335938 367.023438 524.152344 367.179688 524.152344 367.980469 C 524.152344 368.777344 523.820312 371.496094 523.503906 373.40625 L 520.214844 397.222656 C 519.886719 399.308594 518.902344 406.339844 518.078125 406.984375 C 517.261719 407.625 508.570312 408.253906 505.9375 408.253906 L 505.9375 412.101562 C 508.890625 412.101562 519.402344 411.777344 526.460938 411.777344 C 528.703125 411.777344 531.464844 411.8125 534.210938 411.863281 C 506.699219 464.980469 503.320312 470.285156 489.277344 492.296875 M 497.566406 359.027344 L 529.414062 316.667969 C 530.390625 315.386719 530.722656 315.226562 531.046875 315.226562 C 531.375 315.226562 531.546875 315.386719 531.546875 315.875 C 531.546875 316.503906 531.214844 318.421875 530.886719 320.980469 L 525.304688 360.300781 C 525.140625 361.429688 525.140625 361.90625 524.972656 362.0625 C 524.808594 362.230469 524.484375 362.230469 523.65625 362.230469 L 498.226562 362.230469 C 496.75 362.230469 495.757812 362.0625 495.757812 361.742188 C 495.757812 361.429688 496.585938 360.300781 497.566406 359.027344 M 605.859375 323.546875 C 604.351562 323.34375 602.882812 324.171875 602.3125 325.578125 C 601.085938 328.605469 599.777344 331.046875 598.035156 333.265625 C 593.683594 329.097656 587.511719 325.449219 577.8125 325.449219 C 557.769531 325.449219 545.570312 340.921875 545.570312 355.699219 C 545.570312 364.730469 549.917969 370.988281 557.769531 374.980469 C 562.113281 377.417969 564.785156 377.761719 564.785156 378.457031 C 564.785156 379.15625 563.445312 379.332031 556.765625 381.410156 C 551.90625 382.980469 549.246094 384.023438 548.410156 384.71875 C 545.398438 387.320312 541.726562 397.222656 541.726562 400.53125 C 541.726562 402.960938 542.566406 403.832031 547.074219 405.046875 C 550.085938 405.925781 550.917969 406.09375 550.917969 406.441406 C 550.917969 406.722656 549.113281 407.382812 547.804688 407.824219 C 546.945312 408.113281 546.035156 408.242188 545.132812 408.207031 C 536.539062 407.871094 535.648438 407.097656 535.648438 406.339844 C 535.648438 405.378906 536.136719 401.382812 536.628906 397.222656 L 546.800781 324.015625 C 547.132812 321.945312 549.261719 307.5625 549.925781 305.480469 C 550.417969 303.90625 551.007812 303.160156 552.335938 302.46875 C 553.1875 302.03125 553.621094 301.058594 553.320312 300.148438 C 552.988281 299.121094 551.871094 298.574219 550.851562 298.929688 C 534.835938 304.503906 532.941406 306.527344 530.722656 308.996094 C 528.09375 312.03125 516.441406 327.375 513.816406 330.886719 L 503.800781 344.003906 C 484.9375 368.136719 454.242188 408.898438 418.464844 408.898438 C 404.679688 408.898438 395.160156 401.867188 395.160156 392.121094 C 395.160156 385.242188 399.765625 380.121094 405.835938 380.121094 C 416.007812 380.121094 408.949219 389.074219 419.453125 389.074219 C 422.898438 389.074219 424.050781 388.285156 424.050781 385.722656 C 424.050781 381.40625 420.117188 373.40625 410.265625 373.40625 C 399.921875 373.40625 391.226562 381.886719 391.226562 392.273438 C 391.226562 405.542969 405.503906 413.695312 421.585938 413.695312 C 424.257812 413.695312 426.898438 413.40625 429.5 412.988281 C 412.488281 422.113281 410.796875 434.078125 410.796875 438.75 C 410.796875 448.984375 417.824219 454.417969 426.613281 454.417969 C 438.128906 454.417969 444.519531 445.144531 444.519531 441.632812 C 444.519531 439.550781 441.492188 439.382812 440.046875 439.382812 C 431.734375 439.382812 434.453125 448.660156 424.859375 448.660156 C 420.0625 448.660156 414.632812 445.144531 414.632812 438.433594 C 414.632812 417.808594 445.320312 411.574219 454.59375 411.574219 C 458.433594 411.574219 459.710938 413.011719 460.191406 417.648438 L 470.898438 512.761719 C 471.21875 515.320312 471.539062 518.992188 473.457031 518.992188 C 474.898438 518.992188 484.648438 506.363281 485.445312 505.40625 C 491.519531 498.210938 519.011719 452.980469 525.246094 443.226562 L 525.566406 443.226562 L 534.039062 512.761719 C 534.355469 515.320312 534.558594 519.464844 536.597656 518.992188 C 538 518.664062 547.300781 506.683594 548.113281 505.726562 C 548.324219 505.472656 548.636719 505.0625 549.023438 504.546875 C 551.226562 505.367188 557.878906 507.519531 567.175781 507.519531 C 575.816406 507.519531 586.722656 505.65625 598.414062 499.121094 C 598.976562 498.808594 599.433594 498.328125 599.734375 497.757812 C 600.023438 497.203125 600.152344 496.578125 600.097656 495.953125 L 595.238281 438.605469 L 595.203125 438.59375 C 600.023438 430.246094 602.398438 423.648438 602.609375 416.851562 C 602.625 416.398438 602.554688 415.941406 602.507812 415.484375 C 602.511719 415.308594 602.550781 415.132812 602.550781 414.957031 C 602.550781 399.660156 589.847656 398.273438 565.285156 395.492188 C 551.90625 393.929688 550.582031 393.578125 550.582031 391.835938 C 550.582031 390.972656 551.90625 386.800781 553.757812 386.105469 C 566.292969 381.582031 569.964844 380.726562 580.492188 378.285156 C 597.367188 374.464844 604.890625 361.605469 604.890625 348.738281 C 604.890625 343.523438 603.71875 341.269531 602.550781 338.832031 C 604.496094 336.523438 606.671875 333.726562 608.597656 327.957031 C 609.265625 325.953125 607.953125 323.828125 605.859375 323.546875 "/>
<path fill-rule="nonzero" fill="#0063b0" fill-opacity="1" d="M 592.542969 631.507812 C 590.3125 633.566406 589.113281 634.253906 584.476562 634.253906 L 579.332031 634.253906 C 575.039062 634.253906 573.582031 633.738281 573.582031 628.335938 L 573.582031 591.613281 C 573.582031 584.234375 574.183594 583.632812 580.617188 582.433594 L 580.617188 581.058594 L 555.820312 581.058594 L 555.820312 582.433594 C 562.34375 583.546875 562.945312 583.976562 562.945312 591.613281 L 562.945312 626.273438 C 562.945312 633.652344 562.515625 634.339844 554.964844 635.457031 L 554.964844 636.828125 L 595.546875 636.828125 C 596.0625 635.542969 598.378906 626.789062 599.148438 622.84375 L 597.863281 622.5 C 596.320312 626.015625 594.34375 629.792969 592.542969 631.507812 M 584.230469 699.992188 C 578.0625 699.992188 574.457031 693.066406 574.457031 684.191406 C 574.457031 674.800781 577.96875 670.148438 582.617188 670.148438 C 588.453125 670.148438 592.203125 676.082031 592.203125 685.996094 C 592.203125 695.199219 588.976562 699.992188 584.230469 699.992188 M 583.566406 668.964844 C 573.554688 668.964844 567.671875 677.171875 567.671875 685.285156 C 567.671875 694.0625 574.21875 701.179688 583.425781 701.179688 C 592.011719 701.179688 598.988281 694.679688 598.988281 684.761719 C 598.988281 675.558594 591.964844 668.964844 583.566406 668.964844 M 633.191406 635.457031 C 626.757812 634.339844 626.242188 633.910156 626.242188 625.675781 L 626.242188 592.042969 C 626.242188 583.976562 626.929688 583.546875 633.191406 582.433594 L 633.191406 581.058594 L 608.738281 581.058594 L 608.738281 582.433594 C 615.003906 583.375 615.601562 584.0625 615.601562 592.042969 L 615.601562 625.761719 C 615.601562 633.738281 615.175781 634.339844 608.738281 635.457031 L 608.738281 636.828125 L 633.191406 636.828125 Z M 470.863281 686.992188 C 474.660156 687.609375 475.085938 688.085938 475.085938 691.121094 L 475.085938 695.914062 C 475.085938 698.285156 474.613281 698.851562 473.898438 699.28125 C 473 699.851562 471.335938 700.039062 470.339844 700.039062 C 462.464844 700.039062 459.953125 692.636719 459.953125 684.191406 C 459.953125 675.039062 463.9375 670.148438 470.199219 670.148438 C 472.050781 670.148438 473.617188 670.339844 475.179688 670.859375 C 478.359375 671.90625 479.734375 674.609375 480.351562 677.359375 L 481.113281 677.21875 C 480.777344 674.421875 480.683594 671.953125 480.589844 669.863281 C 479.261719 669.769531 475.9375 668.964844 471.289062 668.964844 C 461.613281 668.964844 453.261719 674.421875 453.261719 685.378906 C 453.261719 694.679688 459.191406 701.179688 470.199219 701.179688 C 473.898438 701.179688 478.550781 700.085938 481.300781 699.566406 C 481.0625 698.238281 480.96875 696.671875 480.96875 694.964844 L 480.96875 690.503906 C 480.96875 687.988281 481.492188 687.65625 484.003906 686.992188 L 484.003906 686.234375 L 470.863281 686.234375 Z M 465.902344 582.433594 C 472.164062 583.375 472.765625 584.0625 472.765625 592.042969 L 472.765625 625.761719 C 472.765625 633.738281 472.335938 634.339844 465.902344 635.457031 L 465.902344 636.828125 L 490.351562 636.828125 L 490.351562 635.457031 C 483.917969 634.339844 483.40625 633.910156 483.40625 625.675781 L 483.40625 592.042969 C 483.40625 583.976562 484.089844 583.546875 490.351562 582.433594 L 490.351562 581.058594 L 465.902344 581.058594 Z M 633.679688 691.546875 L 624.050781 669.628906 L 614.65625 669.628906 L 614.65625 670.386719 C 618.738281 670.8125 619.164062 672.570312 619.117188 673.707031 C 617.976562 692.496094 617.789062 695.058594 617.550781 696.625 C 617.265625 698.425781 616.601562 699.234375 613.28125 699.707031 L 613.28125 700.464844 L 624.429688 700.464844 L 624.429688 699.707031 C 620.777344 699.136719 619.730469 698.617188 619.636719 696.527344 C 619.589844 694.964844 619.683594 689.316406 620.347656 674.847656 C 623.8125 683.195312 629.886719 698.238281 630.738281 700.464844 L 631.453125 700.464844 C 632.210938 698.425781 639.089844 682.484375 642.695312 674.089844 L 642.550781 693.730469 C 642.503906 698.710938 642.265625 699.042969 638.851562 699.707031 L 638.851562 700.464844 L 652.46875 700.464844 L 652.46875 699.707031 C 648.671875 698.996094 648.484375 698.472656 648.433594 693.730469 L 648.246094 675.890625 C 648.199219 671.429688 648.53125 671.097656 652.46875 670.386719 L 652.46875 669.628906 L 643.5 669.628906 Z M 541.503906 699.992188 C 534.484375 699.992188 530.214844 693.445312 530.214844 684.289062 C 530.214844 676.460938 533.25 670.101562 540.367188 670.101562 C 542.3125 670.101562 543.6875 670.339844 544.96875 670.957031 C 547.625 672.191406 548.8125 673.992188 549.761719 677.359375 L 550.613281 677.171875 C 550.378906 675.226562 550.046875 672.332031 549.949219 669.914062 C 548.8125 669.816406 545.347656 668.964844 541.550781 668.964844 C 530.402344 668.964844 523.476562 675.796875 523.476562 685.191406 C 523.476562 693.539062 528.695312 701.179688 540.984375 701.179688 C 544.160156 701.179688 547.863281 700.324219 549.046875 700.085938 C 549.710938 698.664062 550.851562 694.867188 551.324219 692.875 L 550.566406 692.589844 C 548.480469 697.335938 545.917969 699.992188 541.503906 699.992188 M 546.058594 622.84375 L 544.773438 622.5 C 543.226562 626.015625 541.253906 629.792969 539.453125 631.507812 C 537.222656 633.566406 536.019531 634.253906 531.386719 634.253906 L 526.242188 634.253906 C 521.949219 634.253906 520.492188 633.738281 520.492188 628.335938 L 520.492188 591.613281 C 520.492188 584.234375 521.09375 583.632812 527.527344 582.433594 L 527.527344 581.058594 L 502.730469 581.058594 L 502.730469 582.433594 C 509.253906 583.546875 509.851562 583.976562 509.851562 591.613281 L 509.851562 626.273438 C 509.851562 633.652344 509.425781 634.339844 501.875 635.457031 L 501.875 636.828125 L 542.457031 636.828125 C 542.972656 635.542969 545.289062 626.789062 546.058594 622.84375 M 769.480469 670.386719 C 773.605469 670.910156 774.699219 671.574219 774.839844 674.894531 C 774.886719 676.222656 775.03125 677.457031 775.03125 682.390625 L 775.03125 691.121094 L 756.621094 669.628906 L 747.558594 669.628906 L 747.558594 670.386719 C 749.648438 670.71875 750.5 671.050781 751.734375 672.710938 C 752.210938 673.328125 752.496094 674.230469 752.496094 675.226562 L 752.496094 687.65625 C 752.496094 691.59375 752.351562 693.445312 752.257812 695.152344 C 752.066406 698.472656 751.6875 699.183594 748.128906 699.707031 L 748.128906 700.464844 L 759.089844 700.464844 L 759.089844 699.707031 C 754.675781 699.089844 754.390625 698.238281 754.203125 695.011719 C 754.105469 693.445312 754.058594 692.070312 754.058594 687.65625 L 754.058594 675.511719 L 775.363281 701.132812 L 776.546875 701.132812 L 776.546875 682.390625 C 776.546875 677.457031 776.644531 676.269531 776.691406 674.800781 C 776.785156 671.574219 777.496094 671.050781 780.628906 670.386719 L 780.628906 669.628906 L 769.480469 669.628906 Z M 824.804688 621.210938 C 824.804688 612.203125 818.199219 607.570312 810.820312 603.195312 C 803.441406 598.820312 800.4375 596.246094 800.4375 590.839844 C 800.4375 585.347656 803.355469 581.832031 808.503906 581.832031 C 815.109375 581.832031 819.230469 586.121094 821.03125 593.242188 L 822.402344 592.984375 C 821.804688 588.867188 821.289062 584.148438 820.945312 580.972656 C 819.144531 580.886719 815.28125 579.859375 810.046875 579.859375 C 798.636719 579.859375 791.6875 586.722656 791.6875 595.558594 C 791.6875 604.308594 797.953125 608.6875 805.671875 613.40625 C 811.765625 617.09375 814.9375 620.957031 814.9375 626.359375 C 814.9375 632.109375 812.367188 636.140625 806.445312 636.140625 C 798.550781 636.140625 793.488281 630.136719 791.601562 622.671875 L 790.230469 622.929688 C 790.316406 624.300781 791.601562 634.425781 792.117188 636.054688 C 796.835938 637.257812 800.867188 638.113281 805.074219 638.113281 C 816.484375 638.113281 824.804688 631.078125 824.804688 621.210938 M 680.738281 686.328125 C 679.695312 686.328125 678.792969 686.28125 678.222656 686.089844 L 678.222656 672.570312 C 678.222656 671.808594 678.269531 671.335938 678.699219 671.050781 C 678.984375 670.859375 679.695312 670.71875 680.546875 670.71875 C 683.871094 670.71875 686.289062 672.570312 686.289062 678.214844 C 686.289062 685.617188 682.160156 686.328125 680.738281 686.328125 M 689.183594 671.527344 C 687.425781 670.339844 684.867188 669.628906 681.117188 669.628906 L 668.546875 669.628906 L 668.546875 670.386719 C 671.914062 670.957031 672.339844 671.242188 672.339844 675.511719 L 672.339844 694.632812 C 672.339844 698.851562 672.054688 699.136719 668.546875 699.707031 L 668.546875 700.464844 L 682.398438 700.464844 L 682.398438 699.707031 C 678.699219 699.183594 678.222656 698.851562 678.222656 694.632812 L 678.222656 687.085938 L 681.070312 687.703125 C 681.355469 687.75 681.734375 687.800781 681.925781 687.800781 C 686.667969 687.800781 692.597656 684.953125 692.597656 678.167969 C 692.597656 675.226562 691.414062 673.042969 689.183594 671.527344 M 814.9375 670.386719 C 818.828125 670.957031 818.78125 671.808594 817.878906 673.851562 C 816.550781 676.792969 814.179688 681.679688 812.519531 685 C 810.429688 680.921875 808.34375 677.125 806.492188 673.472656 C 805.496094 671.476562 805.734375 671.050781 808.816406 670.386719 L 808.816406 669.628906 L 795.722656 669.628906 L 795.722656 670.386719 C 798.476562 670.859375 798.855469 671.382812 800.894531 674.988281 C 803.503906 679.589844 805.542969 683.433594 806.730469 685.855469 C 807.15625 686.707031 807.300781 687.324219 807.300781 688.320312 L 807.300781 693.683594 C 807.300781 698.710938 807.0625 699.183594 803.265625 699.707031 L 803.265625 700.464844 L 817.261719 700.464844 L 817.261719 699.707031 C 813.5625 699.042969 813.230469 698.851562 813.230469 693.683594 L 813.230469 687.46875 C 813.230469 686.421875 813.417969 686.042969 813.800781 685.285156 C 815.601562 681.726562 817.5 677.929688 819.445312 674.46875 C 821.105469 671.527344 821.582031 670.8125 824.804688 670.386719 L 824.804688 669.628906 L 814.9375 669.628906 Z M 660.449219 613.917969 C 662.851562 607.570312 664.824219 601.734375 667.484375 594.613281 L 674.089844 613.917969 Z M 689.621094 625.246094 C 683.957031 610.230469 678.378906 595.300781 672.972656 580.113281 L 670.660156 580.457031 L 652.898438 625.761719 C 649.894531 633.394531 648.78125 634.511719 643.117188 635.457031 L 643.117188 636.828125 L 661.734375 636.828125 L 661.734375 635.457031 C 654.269531 634.082031 653.585938 633.308594 655.558594 627.5625 C 656.585938 624.472656 657.960938 620.613281 659.417969 616.664062 L 675.121094 616.664062 C 676.921875 621.46875 678.378906 625.929688 679.410156 628.761719 C 680.953125 633.222656 680.867188 634.167969 674.949219 635.457031 L 674.949219 636.828125 L 698.714844 636.828125 L 698.714844 635.457031 C 693.480469 634.339844 692.621094 633.480469 689.621094 625.246094 M 760.828125 624.644531 C 760.742188 633.652344 760.3125 634.253906 754.136719 635.457031 L 754.136719 636.828125 L 778.761719 636.828125 L 778.761719 635.457031 C 771.898438 634.167969 771.554688 633.222656 771.46875 624.644531 L 771.125 592.382812 C 771.039062 584.320312 771.640625 583.71875 778.761719 582.433594 L 778.761719 581.058594 L 762.546875 581.058594 L 744.785156 620.699219 L 727.367188 581.058594 L 710.378906 581.058594 L 710.378906 582.433594 C 717.757812 583.203125 718.53125 586.378906 718.445312 588.4375 C 716.386719 622.414062 716.042969 627.046875 715.613281 629.878906 C 715.097656 633.136719 713.898438 634.597656 707.890625 635.457031 L 707.890625 636.828125 L 728.054688 636.828125 L 728.054688 635.457031 C 721.449219 634.425781 719.558594 633.480469 719.386719 629.707031 C 719.304688 626.875 719.472656 616.664062 720.675781 590.496094 C 726.9375 605.597656 737.921875 632.796875 739.464844 636.828125 L 740.753906 636.828125 C 742.125 633.136719 754.566406 604.308594 761.085938 589.125 Z M 712.246094 687.800781 C 713.574219 684.289062 714.664062 681.0625 716.136719 677.125 L 719.789062 687.800781 Z M 728.375 694.0625 C 725.246094 685.757812 722.160156 677.503906 719.171875 669.105469 L 717.890625 669.296875 L 708.070312 694.347656 C 706.410156 698.570312 705.792969 699.183594 702.660156 699.707031 L 702.660156 700.464844 L 712.957031 700.464844 L 712.957031 699.707031 C 708.828125 698.949219 708.449219 698.519531 709.539062 695.34375 C 710.109375 693.636719 710.867188 691.5 711.675781 689.316406 L 720.355469 689.316406 C 721.351562 691.972656 722.160156 694.441406 722.730469 696.007812 C 723.582031 698.472656 723.535156 698.996094 720.261719 699.707031 L 720.261719 700.464844 L 733.40625 700.464844 L 733.40625 699.707031 C 730.511719 699.089844 730.035156 698.617188 728.375 694.0625 M 218.894531 687.800781 C 220.222656 684.289062 221.3125 681.0625 222.785156 677.125 L 226.4375 687.800781 Z M 235.023438 694.0625 C 231.894531 685.757812 228.808594 677.503906 225.820312 669.105469 L 224.539062 669.296875 L 214.71875 694.347656 C 213.058594 698.570312 212.441406 699.183594 209.308594 699.707031 L 209.308594 700.464844 L 219.605469 700.464844 L 219.605469 699.707031 C 215.476562 698.949219 215.097656 698.519531 216.1875 695.34375 C 216.757812 693.636719 217.515625 691.5 218.324219 689.316406 L 227.007812 689.316406 C 228.003906 691.972656 228.808594 694.441406 229.378906 696.007812 C 230.230469 698.472656 230.183594 698.996094 226.910156 699.707031 L 226.910156 700.464844 L 240.054688 700.464844 L 240.054688 699.707031 C 237.160156 699.089844 236.683594 698.617188 235.023438 694.0625 M 295.695312 612.460938 C 302.558594 613.578125 303.328125 614.433594 303.328125 619.925781 L 303.328125 628.589844 C 303.328125 632.882812 302.472656 633.910156 301.183594 634.683594 C 299.554688 635.710938 296.550781 636.054688 294.75 636.054688 C 280.507812 636.054688 275.960938 622.671875 275.960938 607.398438 C 275.960938 590.839844 283.167969 582.003906 294.492188 582.003906 C 297.839844 582.003906 300.671875 582.347656 303.5 583.289062 C 309.25 585.175781 311.738281 590.066406 312.851562 595.042969 L 314.226562 594.785156 C 313.625 589.722656 313.453125 585.261719 313.28125 581.488281 C 310.878906 581.316406 304.875 579.859375 296.464844 579.859375 C 278.964844 579.859375 263.863281 589.722656 263.863281 609.542969 C 263.863281 626.359375 274.585938 638.113281 294.492188 638.113281 C 301.183594 638.113281 309.59375 636.140625 314.570312 635.195312 C 314.140625 632.796875 313.96875 629.964844 313.96875 626.875 L 313.96875 618.808594 C 313.96875 614.261719 314.914062 613.664062 319.460938 612.460938 L 319.460938 611.089844 L 295.695312 611.089844 Z M 306.253906 670.386719 C 310.382812 670.910156 311.472656 671.574219 311.613281 674.894531 C 311.664062 676.222656 311.804688 677.457031 311.804688 682.390625 L 311.804688 691.121094 L 293.394531 669.628906 L 284.335938 669.628906 L 284.335938 670.386719 C 286.421875 670.71875 287.277344 671.050781 288.507812 672.710938 C 288.984375 673.328125 289.269531 674.230469 289.269531 675.226562 L 289.269531 687.65625 C 289.269531 691.59375 289.125 693.445312 289.03125 695.152344 C 288.84375 698.472656 288.460938 699.183594 284.90625 699.707031 L 284.90625 700.464844 L 295.863281 700.464844 L 295.863281 699.707031 C 291.453125 699.089844 291.167969 698.238281 290.976562 695.011719 C 290.882812 693.445312 290.835938 692.070312 290.835938 687.65625 L 290.835938 675.511719 L 312.136719 701.132812 L 313.324219 701.132812 L 313.324219 682.390625 C 313.324219 677.457031 313.417969 676.269531 313.464844 674.800781 C 313.558594 671.574219 314.269531 671.050781 317.402344 670.386719 L 317.402344 669.628906 L 306.253906 669.628906 Z M 255.214844 670.386719 C 258.679688 670.910156 259.011719 671.289062 259.011719 675.703125 L 259.011719 694.347656 C 259.011719 698.757812 258.773438 699.089844 255.214844 699.707031 L 255.214844 700.464844 L 268.738281 700.464844 L 268.738281 699.707031 C 265.179688 699.089844 264.894531 698.851562 264.894531 694.300781 L 264.894531 675.703125 C 264.894531 671.242188 265.273438 671.003906 268.738281 670.386719 L 268.738281 669.628906 L 255.214844 669.628906 Z M 192.527344 613.917969 C 194.925781 607.570312 196.902344 601.734375 199.558594 594.613281 L 206.167969 613.917969 Z M 207.027344 635.457031 L 207.027344 636.828125 L 230.789062 636.828125 L 230.789062 635.457031 C 225.558594 634.339844 224.699219 633.480469 221.695312 625.246094 C 216.035156 610.230469 210.457031 595.300781 205.050781 580.113281 L 202.734375 580.457031 L 184.972656 625.761719 C 181.972656 633.394531 180.855469 634.511719 175.195312 635.457031 L 175.195312 636.828125 L 193.8125 636.828125 L 193.8125 635.457031 C 186.347656 634.082031 185.660156 633.308594 187.632812 627.5625 C 188.664062 624.472656 190.039062 620.613281 191.496094 616.664062 L 207.195312 616.664062 C 209 621.46875 210.457031 625.929688 211.488281 628.761719 C 213.03125 633.222656 212.945312 634.167969 207.027344 635.457031 M 187.386719 686.328125 C 186.34375 686.328125 185.441406 686.28125 184.871094 686.089844 L 184.871094 672.570312 C 184.871094 671.808594 184.917969 671.335938 185.347656 671.050781 C 185.632812 670.859375 186.34375 670.71875 187.199219 670.71875 C 190.519531 670.71875 192.9375 672.570312 192.9375 678.214844 C 192.9375 685.617188 188.808594 686.328125 187.386719 686.328125 M 195.832031 671.527344 C 194.078125 670.339844 191.515625 669.628906 187.765625 669.628906 L 175.195312 669.628906 L 175.195312 670.386719 C 178.5625 670.957031 178.988281 671.242188 178.988281 675.511719 L 178.988281 694.632812 C 178.988281 698.851562 178.703125 699.136719 175.195312 699.707031 L 175.195312 700.464844 L 189.046875 700.464844 L 189.046875 699.707031 C 185.347656 699.183594 184.871094 698.851562 184.871094 694.632812 L 184.871094 687.085938 L 187.71875 687.703125 C 188.003906 687.75 188.382812 687.800781 188.574219 687.800781 C 193.316406 687.800781 199.25 684.953125 199.25 678.167969 C 199.25 675.226562 198.0625 673.042969 195.832031 671.527344 M 247.289062 626.359375 C 244.199219 626.359375 241.796875 628.847656 241.796875 632.109375 C 241.796875 635.457031 244.199219 637.855469 247.289062 637.855469 C 250.460938 637.855469 252.863281 635.457031 252.863281 632.109375 C 252.863281 628.847656 250.460938 626.359375 247.289062 626.359375 M 342.132812 632.109375 C 342.132812 628.847656 339.730469 626.359375 336.558594 626.359375 C 333.46875 626.359375 331.066406 628.847656 331.066406 632.109375 C 331.066406 635.457031 333.46875 637.855469 336.558594 637.855469 C 339.730469 637.855469 342.132812 635.457031 342.132812 632.109375 M 376.265625 670.386719 C 379.730469 670.910156 380.0625 671.289062 380.0625 675.703125 L 380.0625 694.347656 C 380.0625 698.757812 379.828125 699.089844 376.265625 699.707031 L 376.265625 700.464844 L 389.789062 700.464844 L 389.789062 699.707031 C 386.230469 699.089844 385.945312 698.851562 385.945312 694.300781 L 385.945312 675.703125 C 385.945312 671.242188 386.324219 671.003906 389.789062 670.386719 L 389.789062 669.628906 L 376.265625 669.628906 Z M 427.304688 670.386719 C 431.433594 670.910156 432.527344 671.574219 432.667969 674.894531 C 432.714844 676.222656 432.855469 677.457031 432.855469 682.390625 L 432.855469 691.121094 L 414.449219 669.628906 L 405.386719 669.628906 L 405.386719 670.386719 C 407.476562 670.71875 408.328125 671.050781 409.5625 672.710938 C 410.039062 673.328125 410.324219 674.230469 410.324219 675.226562 L 410.324219 687.65625 C 410.324219 691.59375 410.179688 693.445312 410.085938 695.152344 C 409.894531 698.472656 409.515625 699.183594 405.957031 699.707031 L 405.957031 700.464844 L 416.917969 700.464844 L 416.917969 699.707031 C 412.503906 699.089844 412.21875 698.238281 412.03125 695.011719 C 411.933594 693.445312 411.886719 692.070312 411.886719 687.65625 L 411.886719 675.511719 L 433.1875 701.132812 L 434.375 701.132812 L 434.375 682.390625 C 434.375 677.457031 434.46875 676.269531 434.519531 674.800781 C 434.613281 671.574219 435.324219 671.050781 438.457031 670.386719 L 438.457031 669.628906 L 427.304688 669.628906 Z M 359.277344 668.585938 C 358.328125 669.484375 357.613281 669.628906 356.382812 669.628906 L 337.355469 669.628906 C 336.027344 669.628906 335.269531 669.628906 334.460938 668.585938 L 333.796875 668.585938 C 333.703125 671.003906 333.464844 674.183594 333.226562 676.746094 L 334.035156 676.746094 C 334.605469 674.894531 335.363281 673.140625 336.171875 672.238281 C 336.835938 671.527344 337.402344 671.003906 339.445312 671.003906 L 343.761719 671.003906 L 343.761719 694.632812 C 343.761719 698.804688 343.238281 698.949219 339.777344 699.707031 L 339.777344 700.464844 L 353.820312 700.464844 L 353.820312 699.707031 C 350.117188 699.089844 349.644531 698.710938 349.644531 694.632812 L 349.644531 671.003906 L 353.535156 671.003906 C 355.953125 671.003906 356.523438 671.242188 357.332031 672.144531 C 358.515625 673.472656 358.847656 674.800781 359.417969 676.648438 L 360.175781 676.554688 C 359.9375 674.136719 359.890625 670.71875 359.890625 668.585938 Z M 456.242188 581.058594 L 436.851562 581.058594 L 436.851562 582.347656 C 445.003906 583.632812 445.519531 585.089844 443.886719 591.097656 C 441.226562 600.707031 438.742188 609.542969 435.222656 620.699219 C 430.332031 607.914062 425.097656 594.957031 420.035156 581.660156 L 417.976562 581.660156 C 415.402344 589.296875 408.710938 609.113281 404.59375 620.78125 C 401.589844 611.175781 397.988281 599.589844 395.070312 589.808594 C 393.613281 585.007812 393.867188 583.460938 400.386719 582.347656 L 400.386719 581.058594 L 376.023438 581.058594 L 376.023438 582.347656 C 381.683594 583.375 382.457031 584.75 384.773438 592.296875 C 389.492188 607.65625 394.125 622.671875 398.757812 638.113281 L 401.160156 638.113281 C 405.28125 625.589844 410.253906 612.03125 415.144531 598.304688 C 420.464844 611.859375 425.355469 624.730469 430.160156 638.113281 L 432.5625 638.113281 C 437.796875 621.042969 444.488281 599.25 446.71875 592.640625 C 449.378906 584.664062 449.980469 583.460938 456.242188 582.347656 Z M 456.242188 581.058594 "/>
</svg>
